<svg xmlns="http://www.w3.org/2000/svg" viewBox="0 0 1191.47 218.01">
  <path d="M549.75 0h-98.23l-34.68 29.85L415.91 0H102.44L55.6 70.86h30.1L0 218h299.35l41-35.71 1.13 35.71h214.68l5.45-10.84c7.65 8.36 20.71 10.21 43.07 10.21 13.68 0 31.36-.66 31.36-.66l173.91.06 6.84-12c8.05 10.39 17.1 12.16 39.42 12.16h24.13l3.14-5.56c11 8.48 58.12 5.73 69.37 5.42h72.69l17.06-30.38h30.68l-15.49 30.38h60.43l15.49-30.38h29.5l28.26-55h-29.64l15.46-30.26h-44c4.91-25-18.49-34-42-30.12h-55.37l-5.27 9.26c-10.16-12.83-49.26-10.11-66.74-9.44h-14.25l14.6-25.63h-129l-21 36C803.55 68.21 785.12 69.66 775 71h-56l-5.27 9.25c-9.16-8.51-19.53-10.1-43-10.1-11.56 0-24.23.84-32.35 2.61l15.77-27.58H497.82L549.75 0Z" fill="#414141"/>
  <g>
    <path d="M190.79 54.51h-29.34L77.6 201.66H28.44l85.7-147.15H86l25.22-38.16H216Zm146.93-38.16H232.94l-25.22 38.16h28.13l-85.7 147.15h49.16l83.85-147.15h29.34Zm80.62 184h36.75l45.38-82.06h2.17l-30.92 82.07h21.69l62.38-82.06h2.53L510 200.34h36.64l79.43-138.83h-48.2L524.79 128h-1.92l22.7-66.46h-47.84Zm158.23-21c-11.25 19.62-.3 21.71 28 21.71 33.36 0 43.63-3 54.29-21.69l40.41-71c10.12-17.75 4.31-21.89-28.46-21.89s-43.22 3.52-53.72 21.87Zm85.37-77c4.11 0 3.94 2.48 2.12 5.67l-40.78 71.48c-2.18 3.8-4.47 5.84-8.65 5.84-4.59 0-4.8-2.35-2.8-5.85l40.9-71.49c2.04-3.53 3.71-5.64 9.21-5.64Zm122.64-15.82c-6.82 0-16.94 2.56-23.36 5.42l2.41-4.59h-35.06l-64.4 113h35.07l52.21-91.5c2.28-4 4.86-5.42 8.9-5.42 4.46 0 4.41 2.15 2.54 5.43l-52.33 91.5h35.31l50-87.41c7.91-13.71 14.07-26.43-11.29-26.43ZM765.4 200.41h35.06l64.69-113.2h-35.07Zm69.82-122.64h35.07l9.45-16.19h-35.07Zm51.14 9.45-9.36-.08-9.1 15.78h9.4l-42.56 74.55c-12.06 21.13-4.16 23.14 21.49 23.14h14.58l8.8-15.61c-4.34 0-14.54 1.15-10.9-5.27l43.63-76.8h14.1l9.08-15.69h-14l14.6-25.63h-35.05Zm214.55-.6c-7.22 0-16.35 2.43-23 5.42l2.54-4.59h-35.07l-64.4 113h35.07l52.21-91.5c2.29-4 4.68-5.43 8.9-5.43 4.4 0 4.42 2.15 2.55 5.43l-13.88 24.29h33.62l11.47-20.2c12.82-22.56 5.77-26.42-10.01-26.42Zm-113.34 0c-32.77 0-43.23 3.48-53.73 21.86l-40.52 71c-11.25 19.63-.3 21.72 28 21.72 33.36 0 43.63-3 54.29-21.69l40.41-71c10.13-17.7 4.32-21.84-28.45-21.84Zm-6.76 21.54L940 179.67c-2.18 3.8-4.47 5.84-8.65 5.84-4.59 0-4.8-2.35-2.8-5.84l40.9-71.46c2-3.57 3.71-5.68 9.21-5.68 4.14 0 3.97 2.47 2.15 5.68Z" fill="#fff"/>
    <path d="m402.85 106.22 3 95.44h-48.52l-1.69-54.34-62.41 54.34h-51l112.06-96.44-2.76-88.87h48.48l1.5 48.22 56-48.22h48.48Zm720.85 63.89h29.53l11.46-22.28h-29.57l15.46-30.26h-23.86l-15.34 30.26h-29.53l-11.46 22.28H1100l-15.49 30.38h23.73Z" fill="#2878c8"/>
  </g>
</svg>