<svg id="_01" data-name="01" xmlns="http://www.w3.org/2000/svg" viewBox="0 0 1191.47 218.01"><defs><style>.cls-1{fill:#414141;}.cls-2{fill:#fff;}.cls-3{fill:#2878c8;}</style></defs><path id="_01-2" data-name="01" class="cls-1" d="M549.75,0H451.52L416.84,29.85,415.91,0H102.44L55.6,70.86H85.7L0,218H299.35l41-35.71L341.48,218H556.16l5.45-10.84c.4.46.79.87,1.17,1.24l.87.86,1,.72c7.22,5.25,18.79,7.39,39.94,7.39h.1c13.68,0,31.36-.66,31.36-.66l173.91.06,6.84-12a21.79,21.79,0,0,0,4.2,4.53c6.54,5.41,16.79,7.62,35.22,7.63h24.13l3.14-5.56c7.31,4.29,18.63,6.07,37.91,6.08h.1c13.68,0,31.36-.66,31.36-.66l72.69,0,17.06-30.38h30.68l-15.49,30.38h60.43l15.49-30.38h29.5l28.26-55h-29.64l15.46-30.26h-44A30.29,30.29,0,0,0,1133,88l-.53-2.07-1-1.86c-5.12-9.17-15.4-13.82-30.56-13.82h0a57.52,57.52,0,0,0-9.65.83l-55.37,0-5.27,9.26a22.35,22.35,0,0,0-2.51-2.22c-7-5.66-18.55-7.88-40.46-7.88h-.09c-9.4,0-23.68.66-23.68.66H949.66l14.6-25.63-129,0-21,36c-8.55-11-24.29-11-29.68-11h0A58.45,58.45,0,0,0,775,71l-56,0-5.27,9.25A22.16,22.16,0,0,0,711.29,78c-7-5.66-18.56-7.88-40.46-7.89h-.09c-13.6,0-24.14.84-32.26,2.61l15.77-27.58-156.33,0L549.75,0Z"/><g id="_02" data-name="02"><g id="_01-3" data-name="01"><path class="cls-2" d="M190.79,54.51H161.45L77.6,201.66H28.44l85.7-147.15H86l25.22-38.16H216ZM337.72,16.35H232.94L207.72,54.51h28.13l-85.7,147.15h49.16L283.16,54.51H312.5Zm80.62,184h36.75l45.38-82.06h2.17l-30.92,82.07h21.69l62.38-82.06h2.53L510,200.34h36.64L626.07,61.51h-48.2L524.79,128h-1.92l22.7-66.46H497.73Zm158.23-21a40.21,40.21,0,0,0-3.74,8.68q-1.55,5.85,1.42,8.77,5.87,4.26,30.33,4.26,26.4,0,36.07-4.24,10.53-4.26,18.22-17.45l40.41-71a42,42,0,0,0,3.8-8.93q1.6-6.11-1.85-8.52-5.1-4.43-30.41-4.44-25.67,0-35.46,4.25-10.82,4.42-18.27,17.61Zm77.81-73.88a4.36,4.36,0,0,1,2-1.83,11.14,11.14,0,0,1,5.51-1.25c1.61,0,2.69.47,3.24,1.42a3.53,3.53,0,0,1,0,1.67,19.67,19.67,0,0,1-1.16,2.58L623.28,179.5a28.64,28.64,0,0,1-2.31,3.25c-.85.78-1.38,1.28-1.6,1.51a11.21,11.21,0,0,1-4.74,1.08c-2,0-3.29-.47-3.85-1.42a3.18,3.18,0,0,1-.11-1.84,18.66,18.66,0,0,1,1.16-2.59L652.73,108A21.36,21.36,0,0,1,654.38,105.44Zm147.36-5.38a19.18,19.18,0,0,0,.79-4.8,8.76,8.76,0,0,0-.7-3.3q-3.27-5.43-17.25-5.43a50.91,50.91,0,0,0-11.49,1.54A68.3,68.3,0,0,0,761.22,92l2.41-4.59H728.57l-64.4,113h35.07l52.21-91.5a10.51,10.51,0,0,1,3.65-4.25,10.31,10.31,0,0,1,5.25-1.17c1.93,0,3.08.33,3.47,1a3.24,3.24,0,0,1,.24,1.84,21.91,21.91,0,0,1-1.17,2.59l-52.33,91.5h35.31l50-87.41A52.53,52.53,0,0,0,801.74,100.06ZM765.4,200.41h35.06l64.69-113.2H830.08ZM835.22,77.77h35.07l9.45-16.19H844.67Zm51.14,9.45L877,87.14l-9.1,15.78h9.4l-42.56,74.55a54.73,54.73,0,0,0-5,11.1q-1.5,5.69,1.6,8.1,4.63,3.93,24.87,3.94h14.58L879.61,185h-4.34c-3.45,0-5.62-.34-6.48-1a2.28,2.28,0,0,1-.88-2.59,4.4,4.4,0,0,1,.8-1.67l43.63-76.8h14.1l9.08-15.69h-14l14.6-25.63H901.07Zm7,92.19a40.21,40.21,0,0,0-3.74,8.68q-1.53,5.85,1.43,8.77,5.85,4.26,30.33,4.27,26.39,0,36.07-4.25,10.51-4.26,18.21-17.45l40.41-71a41.51,41.51,0,0,0,3.8-8.93c1.08-4.06.45-6.9-1.85-8.52q-5.1-4.42-30.4-4.43-25.67,0-35.47,4.24-10.81,4.42-18.26,17.62Zm77.81-73.87a4.38,4.38,0,0,1,2-1.84,11.14,11.14,0,0,1,5.51-1.25c1.61,0,2.69.47,3.24,1.42a3.68,3.68,0,0,1,0,1.67,21.91,21.91,0,0,1-1.17,2.59l-40.78,71.46a28.71,28.71,0,0,1-2.3,3.25c-.85.78-1.39,1.28-1.6,1.51a11.22,11.22,0,0,1-4.75,1.08c-2,0-3.29-.47-3.84-1.42a3.11,3.11,0,0,1-.12-1.84,18.21,18.21,0,0,1,1.16-2.58l40.9-71.47A21.38,21.38,0,0,1,971.19,105.54Zm145.67-5.81a15.37,15.37,0,0,0,.34-7.68q-3-5.43-16.29-5.43a42.27,42.27,0,0,0-11,1.5,55.39,55.39,0,0,0-12,3.92l2.54-4.59h-35.07l-64.4,113h35.07l52.21-91.5a10.48,10.48,0,0,1,3.65-4.26,10.31,10.31,0,0,1,5.25-1.17c1.93,0,3.09.34,3.47,1a3.25,3.25,0,0,1,.24,1.84,22.12,22.12,0,0,1-1.16,2.59l-13.88,24.29h33.62l11.47-20.2A55.23,55.23,0,0,0,1116.86,99.73Z"/></g><g id="_02-2" data-name="02"><path class="cls-3" d="M402.85,106.22l3,95.44H357.33l-1.69-54.34-62.41,54.34h-51l112.06-96.44-2.76-88.87h48.48l1.5,48.22,56-48.22h48.48Zm720.85,63.89h29.53l11.46-22.28h-29.57l15.46-30.26h-23.86l-15.34,30.26h-29.53l-11.46,22.28H1100l-15.49,30.38h23.73Z"/></g></g></svg>