<svg xmlns="http://www.w3.org/2000/svg" viewBox="0 0 500 114">
  <path d="M94.841 16.63c-5.966 0-11.279 1.025-15.94 3.073-4.66 2.049-8.31 4.904-10.948 8.566-2.637 3.662-3.943 7.926-3.917 12.791-.026 5.967 1.92 10.703 5.837 14.211 3.918 3.483 9.284 6.005 16.095 7.567l8.22 1.922c2.868.665 5.225 1.395 7.069 2.189 1.869.768 3.25 1.689 4.147 2.764.896 1.05 1.358 2.319 1.384 3.804-.026 1.588-.525 2.996-1.498 4.225-.973 1.229-2.37 2.189-4.188 2.88-1.793.691-3.969 1.038-6.53 1.038-2.79 0-5.25-.436-7.375-1.307-2.1-.87-3.751-2.15-4.955-3.84-1.204-1.69-1.882-3.803-2.036-6.338H62c.077 6.146 1.472 11.228 4.187 15.249 2.714 4.02 6.517 7.017 11.408 8.988 4.891 1.972 10.627 2.958 17.208 2.958 6.556 0 12.15-.947 16.785-2.842 4.66-1.895 8.233-4.623 10.717-8.182 2.484-3.56 3.739-7.823 3.764-12.79-.025-3.15-.563-5.992-1.613-8.528-1.05-2.535-2.6-4.775-4.648-6.722-2.023-1.946-4.531-3.624-7.527-5.032-2.97-1.409-6.403-2.535-10.295-3.38l-6.76-1.536c-1.793-.384-3.406-.832-4.84-1.345-1.434-.512-2.664-1.1-3.689-1.766-.998-.692-1.766-1.486-2.304-2.382-.512-.896-.742-1.933-.691-3.111.025-1.434.449-2.701 1.268-3.803.82-1.126 2.048-2.01 3.687-2.65 1.639-.64 3.688-.96 6.146-.96 3.713 0 6.568.794 8.565 2.381 2.023 1.562 3.163 3.75 3.42 6.567h18.206c-.051-4.89-1.318-9.193-3.802-12.906-2.484-3.713-5.98-6.593-10.487-8.642-4.481-2.074-9.77-3.111-15.864-3.111zm65.534 1.076L133.834 96.37h20.435l5.174-16.515h27.167l5.186 16.515h20.434l-26.542-78.664Zm64.344 0V96.37h51.74V80.93h-32.726V17.706Zm65.573 0V96.37h19.013v-45.4h.5l31.304 45.4h16.133V17.706h-18.975V63.03h-.653l-30.96-45.325Zm82.858 0V96.37H428V80.93h-35.837V64.76h33.033V49.28h-33.033V33.147H428V17.706Zm-200.444 19.82h.614l8.756 27.885h-18.108Z" fill="#202735"/>
</svg>