<svg xmlns="http://www.w3.org/2000/svg" viewBox="0 0 500 114">
  <path d="M36.758 93.031c3.486 0 6.365-.29 8.635-.869 2.271-.577 4.093-1.367 5.466-2.365 1.374-.999 2.323-2.181 2.852-3.548.528-1.366.792-2.892.792-4.572 0-3.574-1.689-6.544-5.07-8.909-3.379-2.366-9.189-4.915-17.428-7.648-3.592-1.26-7.183-2.706-10.774-4.335-3.592-1.629-6.814-3.68-9.664-6.151-2.854-2.471-5.177-5.465-6.973-8.987C2.799 42.125 1.9 37.843 1.9 32.796c0-5.046.951-9.591 2.853-13.638 1.901-4.048 4.594-7.49 8.081-10.329 3.486-2.837 7.711-5.019 12.675-6.544C30.472.762 36.071 0 42.304 0c7.393 0 13.784.787 19.171 2.365 5.386 1.577 9.823 3.311 13.308 5.202l-7.128 19.395c-3.064-1.576-6.47-2.969-10.22-4.179-3.75-1.208-8.265-1.814-13.547-1.814-5.914 0-10.167.817-12.755 2.447-2.588 1.628-3.882 4.125-3.882 7.488 0 1.998.476 3.679 1.427 5.046.95 1.367 2.297 2.6 4.04 3.705 1.742 1.106 3.749 2.104 6.021 2.996 2.27.894 4.779 1.814 7.525 2.76 5.704 2.102 10.668 4.178 14.893 6.228 4.226 2.049 7.739 4.44 10.538 7.173 2.798 2.735 4.885 5.941 6.258 9.621 1.373 3.678 2.06 8.144 2.06 13.402 0 10.196-3.592 18.105-10.774 23.73-7.184 5.624-18.01 8.435-32.481 8.435-4.859 0-9.242-.29-13.151-.867-3.907-.578-7.367-1.289-10.378-2.128-3.009-.841-5.597-1.735-7.762-2.681-2.167-.946-3.989-1.84-5.467-2.68l6.971-19.553c3.274 1.787 7.315 3.39 12.121 4.81 4.805 1.419 10.695 2.13 17.666 2.13Zm135.764 18.762c-1.163-3.784-2.457-7.673-3.882-11.668-1.427-3.995-2.826-7.988-4.2-11.984h-42.778c-1.373 3.996-2.772 7.989-4.199 11.984-1.426 3.995-2.72 7.884-3.882 11.668H87.913c4.12-11.772 8.029-22.654 11.726-32.639 3.697-9.987 7.314-19.395 10.853-28.226 3.538-8.828 7.024-17.211 10.456-25.148 3.434-7.936 6.998-15.689 10.695-23.258h23.608c3.592 7.569 7.13 15.322 10.616 23.258 3.486 7.937 6.998 16.32 10.536 25.148 3.539 8.831 7.157 18.239 10.854 28.226 3.697 9.985 7.604 20.867 11.725 32.639Zm-29.629-84.516c-.527 1.577-1.321 3.734-2.377 6.466-1.056 2.733-2.271 5.886-3.644 9.461-1.372 3.574-2.879 7.514-4.515 11.825-1.638 4.31-3.302 8.831-4.991 13.56h31.212c-1.689-4.729-3.327-9.25-4.911-13.56-1.584-4.311-3.089-8.251-4.516-11.825-1.426-3.575-2.667-6.728-3.723-9.461-1.056-2.732-1.9-4.889-2.535-6.466Zm143.701 63.387v21.129h-73.359V2.522h24.716v88.142Zm89.513 21.129c-7.077-12.51-14.735-24.861-22.974-37.054-8.24-12.193-17.007-23.704-26.302-34.533v71.587h-24.399V2.522h20.122c3.485 3.47 7.342 7.726 11.566 12.772 4.225 5.046 8.529 10.433 12.913 16.163 4.383 5.729 8.741 11.667 13.071 17.817 4.331 6.151 8.398 12.062 12.2 17.739V2.522h24.558v109.271Zm46.098 0V2.522h74.15v20.657h-49.432v21.443h43.888v20.183h-43.888v26.333H500v20.655Z" fill="#3c78d8"/>
</svg>