<?xml version="1.0" encoding="utf-8"?>
<!-- Generator: Adobe Illustrator 24.1.2, SVG Export Plug-In . SVG Version: 6.00 Build 0)  -->
<svg version="1.1" id="Capa_1" xmlns="http://www.w3.org/2000/svg" xmlns:xlink="http://www.w3.org/1999/xlink" x="0px" y="0px"
	 viewBox="0 0 750 500" style="enable-background:new 0 0 750 500;" xml:space="preserve">
<style type="text/css">
	.st0{fill:#00247D;}
	.st1{fill:#FFFFFF;}
	.st2{fill:#CF142B;}
	.st3{stroke:#FFFFFF;stroke-width:144.3376;stroke-miterlimit:80;}
	.st4{stroke:#CF142B;stroke-width:86.6025;stroke-miterlimit:80;}
</style>
<path class="st0" d="M0,0v500h750V0H0z"/>
<polygon class="st1" points="458.9,250 750,55.9 750,0 666.1,0 375,194.1 83.9,0 0,0 0,55.9 291.1,250 0,444.1 0,500 83.9,500 
	375,305.9 666.1,500 750,500 750,444.1 "/>
<path class="st2" d="M750,0L375,250c0-12.4,0-24.8,0-37.3L694.1,0H750z M375,250c125,83.3,250,166.7,375,250v-37.3L430.9,250H375z
	 M0,37.3L319.1,250H375C250,166.7,125,83.3,0,0V37.3z M55.9,500L375,287.3c0-12.4,0-24.8,0-37.3L0,500H55.9z"/>
<path class="st3" d="M375,0v500 M0,250h750"/>
<path class="st4" d="M375,0v500 M0,250h750"/>
</svg>
