<svg xmlns="http://www.w3.org/2000/svg" viewBox="0 0 24 24">
  <path fill="#172c68" d="M22.8 5.113c.009.639-.079 1.44-.162 2.023-.025.195-.063.386-.12.574C23.546 9.378 24 11.385 24 13.578c0 2.599-1.423 4.738-3.644 6.198C18.16 21.221 15.192 22 12 22s-6.16-.779-8.356-2.224C1.423 18.316 0 16.177 0 13.578c0-2.193.453-4.2 1.483-5.868-.057-.188-.095-.379-.12-.574-.085-.583-.177-1.384-.163-2.023.01-.718.12-1.438.239-2.152.054-.331.142-.642.551-.835.416-.2.858-.128 1.291-.019 1.462.363 2.832.873 4.118 1.485 1.361-.357 2.895-.541 4.601-.541s3.24.184 4.6.542c1.305-.626 2.689-1.125 4.118-1.484.433-.11.876-.183 1.291.017.408.193.497.504.552.835.118.714.224 1.434.238 2.152h.001Zm-1.2 8.465c0-1.776-.464-4.21-3-4.21-1.144 0-2.225.262-3.305.526-1.079.263-2.157.526-3.295.526-1.142 0-2.216-.263-3.295-.526-1.08-.264-2.16-.526-3.305-.526-2.526 0-3 2.444-3 4.21 0 1.858.991 3.401 2.684 4.513 1.708 1.126 4.142 1.803 6.916 1.803 2.77 0 5.207-.678 6.916-1.803 1.693-1.112 2.684-2.655 2.684-4.513Zm-12 .527c0 1.453-.808 2.631-1.8 2.631S6 15.558 6 14.105c0-1.454.808-2.631 1.8-2.631s1.8 1.177 1.8 2.631Zm6.6 2.631c.992 0 1.8-1.178 1.8-2.631 0-1.454-.808-2.631-1.8-2.631s-1.8 1.177-1.8 2.631c0 1.453.808 2.631 1.8 2.631Z" />
</svg>