<svg xmlns="http://www.w3.org/2000/svg" viewBox="0 0 24 24">
  <path fill="#172c68" d="M9.448 15.524c-.311-.006-.643-.142-.869-.356-.224-.236-.36-.569-.36-.868 0-.3.136-.634.359-.869l5.093-5.107c.237-.229.575-.368.878-.368.303 0 .64.138.878.367.223.237.359.568.359.868 0 .3-.136.633-.359.869l-5.096 5.108c-.229.218-.567.353-.883.356ZM8.68 22c-1.758-.06-3.457-.808-4.691-2.06C2.694 18.655 2.015 16.941 2 15.253c-.014-1.688.637-3.414 1.909-4.72l1.293-1.347c.232-.242.57-.395.876-.404.307-.007.656.126.899.356.221.235.356.567.356.863 0 .297-.135.628-.356.863l-1.299 1.314c-.83.846-1.215 1.918-1.205 3.02.008 1.102.415 2.169 1.259 3.003.782.828 1.822 1.3 2.958 1.343h.017c1.142-.048 2.185-.532 2.958-1.377l1.294-1.392c.228-.238.56-.391.863-.403.304-.012.648.116.895.337.227.232.365.564.365.861 0 .297-.136.619-.357.851l-1.281 1.452c-1.223 1.289-2.942 2.061-4.717 2.127H8.68Zm8.343-7.632c-.224-.236-.361-.569-.361-.868 0-.3.136-.633.359-.868l1.303-1.324c.826-.796 1.208-1.825 1.2-2.887-.009-1.061-.409-2.084-1.249-2.865-.805-.761-1.856-1.148-2.962-1.098h-.032c-1.113-.047-2.158.353-2.953 1.13l-1.293 1.261c-.237.23-.574.371-.878.371-.303 0-.639-.14-.876-.37-.23-.235-.366-.571-.366-.872 0-.302.142-.643.37-.879l1.299-1.217c1.244-1.216 2.954-1.901 4.694-1.88h.033c1.727-.037 3.434.618 4.696 1.799C21.303 5.06 21.985 6.757 22 8.425c.013 1.668-.639 3.378-1.913 4.659l-1.3 1.293c-.234.212-.57.34-.885.337-.315.001-.648-.133-.879-.346Z" />
</svg>