<svg xmlns="http://www.w3.org/2000/svg" viewBox="0 0 512 512">
  <path d="M 276.16778,417.00013 C 176.09306,417.00013 95,335.8886 95,235.79055 95,162.37999 137.16333,96.49346 202.51028,68.055964 c 6.29903,-2.8 13.73361,0.175 16.44611,6.475 1.4,3.15 1.4,6.824997 0,9.974997 -7.52306,17.237499 -11.45958,39.286529 -11.45958,63.786529 0,86.18556 70.07097,156.27208 156.23611,156.27208 24.49416,0 46.53833,-3.9375 63.77097,-11.4625 6.29903,-2.8 13.73458,0.175 16.44611,6.475 1.4,3.15 1.4,6.825 0,9.975 -28.51722,65.27403 -94.30167,107.44806 -167.78222,107.44806 z"/>
</svg>