<svg xmlns="http://www.w3.org/2000/svg" viewBox="0 0 512 512">
  <path d="M256 136c-10.6 0-19.1-8.6-19.1-19.1V75.1c0-10.6 8.6-19.1 19.1-19.1 10.6 0 19.1 8.6 19.1 19.1v41.7c0 10.6-8.5 19.2-19.1 19.2zm0 320c-10.6 0-19.1-8.6-19.1-19.1v-41.7c0-10.6 8.6-19.1 19.1-19.1 10.6 0 19.1 8.6 19.1 19.1v41.7c0 10.5-8.5 19.1-19.1 19.1zm98.4-279.3c-10.6 0-19.1-8.6-19.1-19.1 0-5.1 2-9.9 5.6-13.5l29.5-29.5c7.6-7.4 19.7-7.2 27.1.4 7.2 7.4 7.2 19.3 0 26.7L368 171.2c-3.7 3.5-8.5 5.6-13.6 5.5zM128.1 403c-10.6 0-19.1-8.6-19.1-19.1 0-5.1 2-9.9 5.6-13.5l29.5-29.5c7.4-7.6 19.5-7.7 27.1-.4 7.6 7.4 7.7 19.5.4 27.1l-.4.4-29.5 29.5c-3.6 3.5-8.5 5.5-13.6 5.5zm308.8-127.9h-41.7c-10.6 0-19.1-8.6-19.1-19.1 0-10.6 8.6-19.1 19.1-19.1h41.7c10.6 0 19.1 8.6 19.1 19.1 0 10.6-8.6 19.1-19.1 19.1zm-320 0H75.1c-10.6 0-19.1-8.6-19.1-19.1 0-10.6 8.6-19.1 19.1-19.1h41.7c10.6 0 19.1 8.6 19.1 19.1.1 10.6-8.5 19.1-19 19.1zm267 127.9c-5.1 0-9.9-2-13.5-5.6l-29.5-29.5c-7.4-7.6-7.2-19.7.4-27.1 7.4-7.2 19.3-7.2 26.7 0l29.5 29.5c7.5 7.5 7.5 19.6 0 27.1-3.7 3.6-8.5 5.6-13.6 5.6zM157.6 176.7c-5.1 0-9.9-2-13.5-5.6l-29.5-29.5c-7.4-7.6-7.2-19.7.4-27.1 7.4-7.2 19.3-7.2 26.7 0l29.5 29.5c7.5 7.5 7.5 19.6 0 27.1-3.6 3.6-8.5 5.6-13.6 5.6zm98.4 168c-49 0-88.7-39.7-88.7-88.7s39.7-88.7 88.7-88.7 88.7 39.7 88.7 88.7c-.1 49-39.7 88.6-88.7 88.7z"/>
</svg>