<svg xmlns="http://www.w3.org/2000/svg" viewBox="0 0 512 512">
  <path d="m 116.92285,88.000977 c -6.1375,0 -12.28828,2.348828 -16.98828,7.048828 -9.4,9.300005 -9.4,24.500395 0,33.900395 l 127,127 -127,127 c -4.7,4.7 -7,10.9 -7,17 0,6.1 2.3,12.3 7,17 9.3,9.4 24.50039,9.4 33.90039,0 L 255.99902,294.78614 378.16504,416.9502 c 9.4,9.4 24.60039,9.4 33.90039,0 4.7,-4.7 7,-10.9 7,-17 0,-6.1 -2.3,-12.3 -7,-17 l -127,-127 127,-127 c 9.4,-9.4 9.4,-24.60039 0,-33.900395 -9.4,-9.4 -24.60039,-9.4 -33.90039,0 L 255.99902,217.21582 133.83496,95.049805 c -4.65,-4.7 -10.77461,-7.048828 -16.91211,-7.048828 z"/>
</svg>