<svg xmlns="http://www.w3.org/2000/svg" viewBox="0 0 512 512">
  <path d="M256 56c54.3 0 61.1.2 82.4 1.2 21.3 1 35.8 4.3 48.6 9.3 13.2 5.1 24.3 12 35.4 23.1 10.2 10 18 22.1 23.1 35.4 4.9 12.7 8.3 27.3 9.3 48.6.9 21.3 1.2 28.1 1.2 82.4s-.2 61.1-1.2 82.4c-1 21.3-4.4 35.8-9.3 48.6-5 13.4-12.9 25.5-23.1 35.4-10 10.2-22.1 18-35.4 23.1-12.7 4.9-27.3 8.3-48.6 9.3-21.3.9-28.1 1.2-82.4 1.2s-61.1-.2-82.4-1.2c-21.3-1-35.8-4.4-48.6-9.3-13.4-5-25.4-12.9-35.4-23.1-10.2-10-18-22.1-23.1-35.4-5-12.7-8.3-27.3-9.3-48.6-.9-21.3-1.2-28.1-1.2-82.4s.2-61.1 1.2-82.4c1-21.3 4.3-35.8 9.3-48.6 5-13.4 12.9-25.5 23.1-35.4 10-10.2 22.1-18 35.4-23.1 12.8-5 27.2-8.3 48.6-9.3 21.3-.9 28.1-1.2 82.4-1.2zm0 100c-55.2 0-100 44.8-100 100s44.8 100 100 100 100-44.8 100-100-44.8-100-100-100zm130-5c0-13.8-11.2-25-25-25s-25 11.2-25 25 11.2 25 25 25 25-11.2 25-25zm-130 45c33.1 0 60 26.9 60 60s-26.9 60-60 60-60-26.9-60-60 26.9-60 60-60z"/>
</svg>