<svg xmlns="http://www.w3.org/2000/svg" viewBox="0 0 512 512">
  <path d="M456 133.9c-15 6.5-30.9 10.8-47.1 12.7 17.1-10 29.9-25.9 36.1-44.7-16.1 9.4-33.8 16.1-52.1 19.6-15.7-16.3-37.3-25.5-60-25.5-45.3 0-82 36.2-82 80.7 0 6.2.7 12.4 2.1 18.4-65.8-3.1-127.2-33.7-169.2-84.4-7.3 12.3-11.1 26.3-11.2 40.6 0 28 14.6 52.7 36.7 67.2-13.1-.3-25.9-3.8-37.3-10.1v1c0 39.2 28.3 71.7 65.8 79.2-7.1 1.9-14.3 2.8-21.6 2.8-5.2 0-10.3-.5-15.4-1.5 10.4 32.1 40.8 55.4 76.7 56.1-29.2 22.5-65.1 34.7-101.9 34.6-6.5 0-13.1-.4-19.6-1.2 37.5 24 81.1 36.6 125.6 36.5 151.1 0 233.7-123.1 233.7-229.8 0-3.5-.1-7-.3-10.4 16.1-11.3 29.9-25.5 41-41.8z"/>
</svg>