<svg xmlns="http://www.w3.org/2000/svg" viewBox="0 0 512 512">
  <path d="M256 76c48.869 0 54.99.18 74.16 1.08 19.169.9 32.22 3.871 43.74 8.37 11.88 4.59 21.87 10.8 31.86 20.791 9.179 8.999 16.2 19.889 20.791 31.859 4.409 11.43 7.469 24.571 8.369 43.74.811 19.17 1.08 25.291 1.08 74.16s-.18 54.99-1.08 74.16c-.9 19.169-3.96 32.22-8.369 43.74-4.501 12.06-11.612 22.951-20.791 31.86-9 9.179-19.89 16.2-31.86 20.791-11.43 4.409-24.571 7.469-43.74 8.369-19.17.811-25.291 1.08-74.16 1.08s-54.99-.18-74.16-1.08c-19.169-.9-32.22-3.96-43.74-8.369-12.06-4.501-22.86-11.612-31.859-20.791-9.18-9-16.201-19.89-20.791-31.86-4.499-11.43-7.47-24.571-8.37-43.74C76.269 310.99 76 304.869 76 256s.18-54.99 1.08-74.16c.9-19.169 3.871-32.22 8.37-43.74 4.5-12.06 11.611-22.951 20.791-31.859 8.999-9.18 19.889-16.201 31.859-20.791 11.52-4.499 24.48-7.47 43.74-8.37C201.01 76.269 207.131 76 256 76Zm0 119.641c33.298 0 60.359 27.061 60.359 60.359S289.298 316.359 256 316.359 195.641 289.298 195.641 256s27.061-60.359 60.359-60.359Zm130.777-45.269c0-13.882-11.267-25.149-25.149-25.149-13.883 0-25.15 11.267-25.15 25.149 0 13.883 11.267 25.15 25.15 25.15 13.882 0 25.149-11.267 25.149-25.15ZM256 155.402c-55.53 0-100.598 45.068-100.598 100.598S200.47 356.598 256 356.598 356.598 311.53 356.598 256 311.53 155.402 256 155.402Z"/>
</svg>