<svg xmlns="http://www.w3.org/2000/svg" viewBox="0 0 512 512">
  <path d="M423 201.194c0-27.485-9.386-50.015-24.884-67.76 2.413-6.437 10.848-32.185-2.41-66.889-1.809-.351-3.617-.611-5.511-.523-8.782 0-28.586 3.48-61.391 26.529-39.867-11.307-81.97-11.307-121.836 0-32.716-23.049-52.606-26.529-61.39-26.529-1.808-.088-3.617.088-5.512.523-13.258 34.704-4.994 60.452-2.41 66.889-15.412 17.657-24.882 40.187-24.882 67.76 0 96.726 56.74 118.386 110.727 124.821-6.889 6.437-13.261 17.484-15.412 33.752-8.784 4.173-18.255 6.436-27.813 6.609-14.551 0-30.909-6.002-43.05-27.574 0 0-12.743-23.92-37.197-26.094h-.086c-1.722 0-22.728.521-1.55 15.482 0 0 15.93 7.742 26.95 36.969 0 0 10.591 36.881 57.345 36.881 8.265 0 16.53-.957 24.538-2.957.088 13.134.174 22.562.26 34.652.084 6.785 5.51 12.265 12.225 12.265h96.348c6.718 0 12.143-5.48 12.226-12.351.088-16.614.26-37.872.26-61.098 0-23.572-7.92-38.967-16.533-46.709C366.086 319.58 423 298.182 423 201.194Z"/>
</svg>