<svg xmlns="http://www.w3.org/2000/svg" viewBox="0 0 512 512">
  <path d="m 317.16442,100.18093 c -15.532,-16.883996 -37.222,-26.180996 -61.164,-26.180996 -24.069,0 -45.833,9.241 -61.29,26.018996 -15.626,16.964 -23.239,40.018 -21.453,64.912 3.544,49.115 40.662,89.068 82.743,89.068 42.081,0 79.136,-39.946 82.735,-89.052 1.81,-24.669 -5.852,-47.675 -21.571,-64.766 z m -59.44198,333.817 c -18.14344,0 -157.22402,-0.0323 -157.22402,-32.336 0,-59.087 79.04922,-121.1335 155.502,-121.949 81.33983,0 155.5,60.65858 155.5,121.941 0,32.28256 -136.93485,32.344 -153.77798,32.344 z"/>
</svg>