<?xml version="1.0" encoding="UTF-8" standalone="no"?>
<svg
   xmlns:dc="http://purl.org/dc/elements/1.1/"
   xmlns:cc="http://creativecommons.org/ns#"
   xmlns:rdf="http://www.w3.org/1999/02/22-rdf-syntax-ns#"
   xmlns:svg="http://www.w3.org/2000/svg"
   xmlns="http://www.w3.org/2000/svg"
   xmlns:sodipodi="http://sodipodi.sourceforge.net/DTD/sodipodi-0.dtd"
   xmlns:inkscape="http://www.inkscape.org/namespaces/inkscape"
   xml:space="preserve"
   viewBox="0 0 750 500"
   version="1.1"
   id="svg12"
   sodipodi:docname="en.svg"
   inkscape:version="0.92.5 (2060ec1f9f, 2020-04-08)"><metadata
   id="metadata18"><rdf:RDF><cc:Work
       rdf:about=""><dc:format>image/svg+xml</dc:format><dc:type
         rdf:resource="http://purl.org/dc/dcmitype/StillImage" /></cc:Work></rdf:RDF></metadata><defs
   id="defs16"><clipPath
     clipPathUnits="userSpaceOnUse"
     id="clipPath891"><path
       inkscape:connector-curvature="0"
       id="path893"
       d="M 0,500 H 375 V 0 H 0 Z"
       style="fill:#ffffff;stroke:none;stroke-width:1px;stroke-linecap:butt;stroke-linejoin:miter;stroke-opacity:1"
       sodipodi:nodetypes="ccccc" /></clipPath><clipPath
     clipPathUnits="userSpaceOnUse"
     id="clipPath824"><path
       sodipodi:nodetypes="ccccc"
       style="fill:#ffffff;stroke:none;stroke-width:1px;stroke-linecap:butt;stroke-linejoin:miter;stroke-opacity:1"
       d="M 375,500 H 750 V 0 H 375 Z"
       id="path826"
       inkscape:connector-curvature="0" /></clipPath></defs><sodipodi:namedview
   pagecolor="#ffffff"
   bordercolor="#666666"
   borderopacity="1"
   objecttolerance="10"
   gridtolerance="10"
   guidetolerance="10"
   inkscape:pageopacity="0"
   inkscape:pageshadow="2"
   inkscape:window-width="1366"
   inkscape:window-height="701"
   id="namedview14"
   showgrid="false"
   inkscape:zoom="0.456"
   inkscape:cx="210.52632"
   inkscape:cy="250"
   inkscape:window-x="0"
   inkscape:window-y="0"
   inkscape:window-maximized="1"
   inkscape:current-layer="svg12" />
  
  
  
  
  <g
   id="g857"
   clip-path="url(#clipPath891)"
   transform="scale(0.93333333,1)"><path
     id="path2"
     d="M 0,0 V 500 H 750 V 0 Z"
     inkscape:connector-curvature="0"
     style="fill:#00247d" /><path
     id="path4"
     d="M 458.9,250 750,55.9 V 0 H 666.1 L 375,194.1 83.9,0 H 0 V 55.9 L 291.1,250 0,444.1 V 500 H 83.9 L 375,305.9 666.1,500 H 750 v -55.9 z"
     inkscape:connector-curvature="0"
     style="fill:#ffffff" /><path
     id="path6"
     d="M 750,0 375,250 V 212.7 L 694.1,0 Z M 375,250 c 125,83.3 250,166.7 375,250 V 462.7 L 430.9,250 Z M 0,37.3 319.1,250 H 375 C 250,166.7 125,83.3 0,0 Z M 55.9,500 375,287.3 V 250 L 0,500 Z"
     inkscape:connector-curvature="0"
     style="fill:#cf142b" /><path
     id="path8"
     stroke-miterlimit="80"
     d="M 375,0 V 500 M 0,250 h 750"
     inkscape:connector-curvature="0"
     style="stroke:#ffffff;stroke-width:144.33760071;stroke-miterlimit:80" /><path
     id="path10"
     stroke-miterlimit="80"
     d="M 375,0 V 500 M 0,250 h 750"
     inkscape:connector-curvature="0"
     style="stroke:#cf142b;stroke-width:86.60250092;stroke-miterlimit:80" /></g><g
   id="g846"
   clip-path="url(#clipPath824)"
   mask="none"
   transform="matrix(0.93333333,0,0,1,50.000001,0)"><path
     id="path2-3"
     d="M 0,0 H 750 V 500 H 0 Z"
     style="fill:#c60b1e"
     inkscape:connector-curvature="0" /><path
     id="path4-6"
     d="M 0,125 H 750 V 375 H 0 Z"
     style="fill:#ffc400"
     inkscape:connector-curvature="0" /></g>
</svg>