<svg xmlns="http://www.w3.org/2000/svg" viewBox="0 0 512 512">
  <path d="m 456,160.769 c -0.033,-30.574 -23.892,-55.351 -53.333,-55.384 h -40 V 91.538 C 362.644,68.607 344.747,50.024 322.667,50 H 189.333 c -22.08,0.024 -39.977,18.607 -40,41.538 v 13.847 h -40 C 79.892,105.418 56.032,130.195 56,160.769 v 41.539 H 456 Z M 336,105.385 H 176 V 91.538 c 0,-7.647 5.97,-13.845 13.333,-13.845 h 133.334 c 7.364,0 13.333,6.198 13.333,13.845 z M 322.667,230 c 0,11.471 0.26434,27.693 -20,27.693 h -93.333 c -19.45178,0 -20.001,-16.222 -20.001,-27.693 H 56 V 354.616 C 56,385.204 79.878,410 109.333,410 H 402.667 C 432.122,410 456,385.204 456,354.616 V 230 Z"/>
</svg>