<svg xmlns="http://www.w3.org/2000/svg" viewBox="0 0 512 512">
  <path d="M317.164 82.181C301.632 65.297 279.942 56 256 56c-24.069 0-45.833 9.241-61.29 26.019-15.626 16.964-23.239 40.018-21.453 64.912 3.544 49.115 40.662 89.068 82.743 89.068 42.081 0 79.136-39.946 82.735-89.052 1.81-24.669-5.852-47.675-21.571-64.766Zm79.294 333.817H115.543c-7.448.098-14.54-3.188-19.313-8.944-5.188-6.243-7.279-14.77-5.732-23.392 6.738-37.622 27.758-69.227 60.797-91.413 29.353-19.696 66.534-30.536 104.705-30.536 38.17 0 75.352 10.848 104.705 30.536 33.04 22.178 54.06 53.782 60.795 91.405 1.549 8.623-.541 17.148-5.729 23.392-4.772 5.759-11.866 9.048-19.313 8.952Z"/>
</svg>