<svg xmlns="http://www.w3.org/2000/svg" viewBox="0 0 512 512">
  <path d="m 441.86,109.63957 3.3e-4,306.29185 c 2e-5,19.46804 -13.12704,43.22835 -44.53077,43.22838 l -243.90749,2e-4 c 1.89278,10.0789 9.98048,25.28068 34.35467,25.28068 h 219.31034 c 36.94012,0 56.45529,-30.78218 56.45529,-59.40242 V 142.24381 c 0,-14.99649 -8.50389,-27.54078 -21.68237,-32.60424 z M 137.51758,51.423828 c -19.47919,0 -35.16211,15.672574 -35.16211,35.140625 V 393.62109 c 0,19.46804 15.68292,35.14063 35.16211,35.14063 h 236.60351 c 19.4792,0 35.16211,-15.67259 35.16211,-35.14063 V 86.564453 c 0,-19.468051 -15.68291,-35.140625 -35.16211,-35.140625 z m 28.13476,75.771482 h 52.10938 c 7.74932,0 14.0293,6.61932 14.0293,14.78321 v 49.1289 c 0,8.16498 -6.27998,14.78516 -14.0293,14.78516 h -52.10938 c -7.74933,0 -14.03125,-6.62018 -14.03125,-14.78516 v -49.1289 c 0,-8.16389 6.28192,-14.78321 14.03125,-14.78321 z m 124.73828,0.20313 h 58.75391 c 6.99012,0 12.61914,5.62902 12.61914,12.61914 0,6.99012 -5.62902,12.61719 -12.61914,12.61719 h -58.75391 c -6.99012,0 -12.61718,-5.62707 -12.61718,-12.61719 0,-6.99012 5.62706,-12.61914 12.61718,-12.61914 z m 0,52.92578 h 58.75391 c 6.99012,0 12.61914,5.62706 12.61914,12.61719 0,6.99012 -5.62902,12.61718 -12.61914,12.61718 h -58.75391 c -6.99012,0 -12.61718,-5.62706 -12.61718,-12.61718 0,-6.99013 5.62706,-12.61719 12.61718,-12.61719 z M 165.65234,254.3457 H 347.5957 c 7.54981,0 14.02704,6.11864 14.4043,14.07227 0.38559,8.43402 -5.99983,15.49509 -14.01172,15.49609 H 166.04297 c -7.54777,0 -14.02702,-6.11559 -14.4043,-14.07031 -0.38556,-8.43401 6.00076,-15.49705 14.01367,-15.49805 z m 0,76.02539 H 347.5957 c 7.54981,0 14.02704,6.11667 14.4043,14.07032 0.38559,8.434 -5.99983,15.49509 -14.01172,15.49609 H 166.04297 c -7.54777,0 -14.02702,-6.11642 -14.4043,-14.07227 -0.38556,-8.43292 6.00076,-15.49314 14.01367,-15.49414 z"/>
</svg>