<svg xmlns="http://www.w3.org/2000/svg" viewBox="0 0 512 512">
  <path d="m 423.565,154.45569 c 2.226,-1.309 2.226,-4.551 0,-5.86 L 295.057,73.332686 c -16.737,-9.78 -37.386,-9.78 -54.123,0 L 112.452,148.59569 c -2.226,1.309 -2.226,4.551 0,5.86 l 153.865,91.242 c 1.055,0.626 2.362,0.626 3.416,0 z m -317.517,25.078 c -2.244,-1.306 -5.048,0.326 -5.048,2.938 v 147.504 c 0.026,14.462 7.661,27.824 20.057,35.104 l 128.433,80.463 c 2.243,1.305 5.046,-0.324 5.048,-2.934 v -171.111 c -0.001,-1.21 -0.643,-2.329 -1.682,-2.934 z m 175.413,92.558 v 170.475 c 0.003,2.61 2.806,4.239 5.048,2.934 l 130.425,-80.464 c 12.387,-7.269 20.023,-20.613 20.066,-35.061 v -147.482 c -0.01,-2.606 -2.809,-4.229 -5.048,-2.926 l -148.808,89.598 c -1.037,0.604 -1.678,1.718 -1.683,2.926 z"/>
</svg>