<svg xmlns="http://www.w3.org/2000/svg" viewBox="0 0 512 512">
  <path d="M411.565 154.456c2.226-1.309 2.226-4.551 0-5.86L283.057 73.333c-16.737-9.78-37.386-9.78-54.123 0l-128.482 75.263c-2.226 1.309-2.226 4.551 0 5.86l153.865 91.242c1.055.626 2.362.626 3.416 0ZM86.048 177.534c-2.244-1.306-5.048.326-5.048 2.938v147.504c.026 14.462 7.661 27.824 20.057 35.104l136.433 82.463c2.243 1.305 5.046-.324 5.048-2.934V271.498c-.001-1.21-.643-2.329-1.682-2.934Zm183.413 94.558v170.475c.003 2.61 2.806 4.239 5.048 2.934l136.425-82.464c12.387-7.269 20.023-20.613 20.066-35.061V180.494c-.01-2.606-2.809-4.229-5.048-2.926l-154.808 91.598c-1.037.604-1.678 1.718-1.683 2.926Z"/>
</svg>