<svg xmlns="http://www.w3.org/2000/svg" viewBox="0 0 512 512">
  <path d="M456 166.769c-.033-30.574-23.892-55.351-53.333-55.384h-40V97.538c-.023-22.931-17.92-41.514-40-41.538H189.333c-22.08.024-39.977 18.607-40 41.538v13.847h-40c-29.441.033-53.301 24.81-53.333 55.384v41.539h400Zm-120-55.384H176V97.538c0-7.647 5.97-13.845 13.333-13.845h133.334c7.364 0 13.333 6.198 13.333 13.845Zm-13.333 131.538c0 11.471-8.956 20.77-20 20.77h-93.333c-11.045 0-20.001-9.299-20.001-20.77v-3.461c0-1.912-1.491-3.462-3.333-3.462H56v124.616C56 391.204 79.878 416 109.333 416h293.334C432.122 416 456 391.204 456 360.616V236H326.001c-1.842 0-3.334 1.55-3.334 3.462Z"/>
</svg>