<svg xmlns="http://www.w3.org/2000/svg" viewBox="0 0 512 512">
  <path d="M364.572 391.714V99.928C364.572 81.19 349.38 66 330.642 66H99.928C81.19 66 66 81.19 66 99.928V398.5c0 26.233 21.267 47.5 47.5 47.5h290.81c.541.005.981-.435.976-.976-.001-.438-.298-.82-.721-.933-23.597-6.472-39.965-27.909-39.993-52.377ZM120.286 147.428c0-7.495 6.075-13.57 13.572-13.57h54.284c7.497 0 13.572 6.075 13.572 13.57v54.286c0 7.496-6.075 13.572-13.572 13.572h-54.284c-7.497 0-13.572-6.076-13.572-13.572Zm176.428 230.714H134.238c-7.302 0-13.57-5.614-13.935-12.918-.373-7.742 5.803-14.223 13.555-14.224h162.474c7.304 0 13.572 5.615 13.937 12.918.373 7.743-5.804 14.223-13.555 14.224Zm0-54.284H134.238c-7.302 0-13.57-5.616-13.935-12.92-.373-7.742 5.803-14.223 13.555-14.224h162.474c7.304 0 13.572 5.616 13.937 12.918.373 7.743-5.804 14.225-13.555 14.226Zm0-54.286H134.238c-7.302 0-13.57-5.616-13.935-12.919-.373-7.743 5.803-14.224 13.555-14.225h162.474c7.304 0 13.572 5.616 13.937 12.918.373 7.743-5.804 14.225-13.555 14.226Zm0-54.286H242.81c-7.302 0-13.572-5.616-13.936-12.918-.373-7.743 5.803-14.225 13.554-14.226h53.904c7.304 0 13.572 5.616 13.937 12.919.373 7.743-5.804 14.224-13.555 14.225Zm0-54.286H242.81c-7.302 0-13.572-5.615-13.936-12.918-.373-7.743 5.803-14.224 13.554-14.224h53.904c7.304 0 13.572 5.614 13.937 12.918.373 7.742-5.804 14.223-13.555 14.224Zm115.281-27.142H391.79c-.042 0-.076.033-.076.076v257.78c0 14.991 12.153 27.143 27.143 27.143 14.991 0 27.143-12.152 27.143-27.143V167.862c0-18.781-15.225-34.004-34.005-34.004Z"/>
</svg>