<svg xmlns="http://www.w3.org/2000/svg" xmlns:xlink="http://www.w3.org/1999/xlink" viewBox="0 0 1200.78 383.5">
  <defs>
    <style>
      .cls-14{opacity:.8;mix-blend-mode:screen}.cls-15{fill:none;stroke-miterlimit:10;stroke:#f0140a;stroke-width:11.68px}
    </style>
  </defs>
  <g style="isolation:isolate">
    <g>
      <g>
        <g>
          <g>
            <g>
              <path d="M217.65 321.91c-3.17 19.24-21.35 32.35-38.69 32.63-25.43.43-48.44-26.73-42-50.73 5-18.55 26.53-31.3 47.09-27.38s37.11 24.14 33.6 45.48Z" fill="#d00000"/>
              <path d="m211.83 295.37-56.07 44.57c19.5 13.29 52 6.41 62.09-19.5a37.75 37.75 0 0 0-6.02-25.07Z" fill="#fc0000"/>
              <g>
                <path d="M179.87 342.12a21.92 21.92 0 0 0 3.79-2.14c4.63-3.27 6.13-7.16 7.71-11.27 1.64-4.27 3.34-8.68 8.94-13.18a43.9 43.9 0 0 1 5.12-3.45c2.93-1.76 5.46-3.28 7-7 .13-.3.25-.61.36-.92a28.76 28.76 0 0 1-4.79 19.65c-6.1 9.34-16.83 16.19-28.13 18.31Z" fill="#fcac97"/>
                <path d="M211.55 309.29A28.52 28.52 0 0 1 206.8 323a41.63 41.63 0 0 1-19 15.24c2.55-2.85 3.75-6 4.92-9 1.65-4.28 3.2-8.32 8.49-12.57a42 42 0 0 1 5-3.34 21.88 21.88 0 0 0 5.37-4m.28-13.9a15.25 15.25 0 0 1-.7 9.13c-2.17 5.06-6.2 5.43-11.73 9.87-11.31 9.08-7.63 18.07-16.58 24.4a23.74 23.74 0 0 1-13.79 4 32.7 32.7 0 0 1-13.27-2.85 32.76 32.76 0 0 0 16.71 4.34c24.34 0 50.58-23.28 39.36-48.89Z" fill="#fc997e"/>
              </g>
              <path d="M190.73 335.56c1.64-9.65 9.35-20.57 20-24.94-1.39 12.72-11.49 22-20 24.94Z" fill="#fcfcfc"/>
            </g>
            <g>
              <path d="M155.76 339.94c8 3.65 19.32 4.32 27.06-1.15 9-6.33 5.27-15.32 16.58-24.4 5.53-4.44 9.56-4.81 11.73-9.87a15.25 15.25 0 0 0 .7-9.13 43.15 43.15 0 0 0-27.76-19l-46.36 34.68c.17 12.65 7.2 23.93 18.05 28.87Z" fill="#0000fc"/>
              <g>
                <path d="M165.9 331c-9 0-16.31-6-18.5-15.08l51.43-27c3.78 1.15 6.83 3.56 8 6.39a6.47 6.47 0 0 1-.28 5.81c-1.6 2.93-4.72 4-7.73 5-.75.26-1.48.51-2.15.78-5.91 2.36-8 6.47-10.08 10.44-1.81 3.53-3.69 7.17-8.42 10a23.94 23.94 0 0 1-12.3 3.62Z" fill="#7e9cfc"/>
                <path d="M199 290.53c3.11 1.08 5.58 3.08 6.57 5.38a5 5 0 0 1-.22 4.54c-1.33 2.43-4.17 3.41-6.92 4.35-.74.25-1.51.51-2.22.8-6.42 2.56-8.77 7.12-10.83 11.13-1.8 3.5-3.5 6.8-7.87 9.39a22.69 22.69 0 0 1-11.57 3.41c-7.93 0-14.45-5.08-16.78-12.87L199 290.53m-.29-3.15-52.93 27.76c2 10.49 10.24 17.31 20.16 17.31a25.57 25.57 0 0 0 13.06-3.82c10.52-6.24 7.82-16.13 18.29-20.32 3.39-1.35 8.3-2.22 10.62-6.46 3.24-5.93-1.6-12.43-9.2-14.47Z" fill="#3850fc"/>
              </g>
            </g>
          </g>
          <g>
            <g>
              <path d="M39.89 275.7c9-9.37 1.83-26.6 8.76-35.4 4.74-5.83 15.52-10.73 42.61-5.36-9.57-14.62-4.43-44 13.68-71.21 22.34-33 56.43-52.84 73.05-32.11-3.5-10-10-45 14.63-47.1 26.85-3 47.13 31.58 67.73 25.84 3.22-.9 8.27-3.28 13.28-11-6.05-26.3-19.74-48.46-41-62.59-56.21-37.42-143.91-4.5-195.85 73.54C-1.65 168-9.72 234.26 11.42 280c10.92 2.11 22.23 2.21 28.47-4.3Z" fill="#0000fc"/>
              <path d="M12.66 229.93c5.42 5.84 14 9.28 15.35 18.4 2 9.16-6.07 20.83-19.14 13.5.67 9.92 15.09 17.55 25.88 8.69 9.18-7.53.1-21.89 7-33.87 3.39-5.91 11.43-12.74 32.85-14.48-19.8-31.41-17.75-71.81 4.86-100.25 21-26.47 56.32-38.08 89.67-29.45 3.76-5.26 10.05-12.22 19.35-14.6 22.65-5.79 43.73 20.58 54 13.14 9.67-7 3.53-36.92-21.17-55.11-18.91-13.9-62.64-17.06-108.15 3.4C84.87 54.39 58 78.56 36.9 110.12c-13.08 22.41-45.17 97.26-24.24 119.81Z" fill="#3850fc"/>
              <g>
                <path d="M40.4 228.77a53.1 53.1 0 0 1 3.53-29.61 55 55 0 0 0 8.87 21.42 63 63 0 0 0-12.4 8.19ZM229.57 88.3c-2.06-1-4.27-2.14-6.55-3.36-8.27-4.39-17.64-9.37-27.79-9.37a28.74 28.74 0 0 0-7.14.89 29.92 29.92 0 0 0-8.92 4C165.84 65.27 149 57.27 130.4 57.27c-14.2 0-29.35 5-41.51 13.24 10.77-11.78 31.09-28.6 60.2-29.87 1.16 0 2.33-.07 3.49-.07 31.42 0 61.26 18.6 76.99 47.73Z" fill="#97bcfc"/>
                <path d="M152.59 39.11V42c29.41 0 57.31 16.57 73.29 42.81l-2.17-1.15c-8.42-4.48-18-9.55-28.48-9.55a30.3 30.3 0 0 0-7.51.94 30.8 30.8 0 0 0-8.28 3.5c-13.49-14.89-30.39-22.74-49-22.74a73.72 73.72 0 0 0-32.14 7.57c11.45-10 28.54-20.31 50.89-21.28 1.14-.05 2.29-.07 3.43-.07v-2.92m-109 165.1A56.55 56.55 0 0 0 50.63 220a67.17 67.17 0 0 0-9.18 6 52.88 52.88 0 0 1 2.11-21.83m109-165.1c-1.18 0-2.37 0-3.55.07-43.66 1.9-67.75 38-70.08 41.61 11.32-11.93 30.76-22.06 51.45-22.06 16.54 0 33.88 6.47 48.52 23.65a28.67 28.67 0 0 1 9.53-4.51 27.37 27.37 0 0 1 6.78-.84c14.36 0 27.68 10.64 37.48 14.18-15.52-31.85-46.86-52.1-80.13-52.1ZM44.88 194.19c-6.88 11.38-8.05 27.18-5.35 37.35 3.48-3.45 11.26-8.88 15.61-10.34-5.62-6.64-10.08-18.77-10.26-27Z" fill="#7e9cfc"/>
              </g>
              <path d="M113.74 54.51a70 70 0 0 1 31.39-11.92c40.44-4.56 69 30.59 71.54 33.82-8.62-5-22.63-7-33.82-2.67-19.31-19.8-48.96-24.45-69.11-19.23ZM44.41 211.56a29.57 29.57 0 0 0-1.14 12.88 42.19 42.19 0 0 1 6.27-4 23.29 23.29 0 0 1-5.13-8.88Zm-31.07 55.1c9.52 11.23 24.89 3.92 19.8-9.75-2.02 10.35-12.4 13.41-19.8 9.75Z" fill="#fcfcfc"/>
            </g>
            <g>
              <path d="M44.53 319.39c56.23 37.43 143.92 4.51 195.87-73.53 32.33-48.57 43.19-103.16 33.23-146.5C249.7 134 225.69 81 192.62 84.52c-24.62 2.09-18.12 37.2-14.62 47.1 10.26 14.34 5.25 44.3-13.17 72-22.46 33.18-57.28 53.38-73.57 31.32-27.09-5.37-37.87-.47-42.61 5.36-6.93 8.8.23 26-8.76 35.4-6.24 6.51-17.55 6.41-28.47 4.28 7.44 16.09 18.47 29.67 33.11 39.41Z" fill="#fc0000"/>
              <path d="M44.53 319.39c56.23 37.43 143.92 4.51 195.87-73.53 25.42-38.18 37.55-80.09 36.75-117.32-44.52-22.63-72.89 30.17-99.16 3.08a28.52 28.52 0 0 1 4.63 11.93c33.93 104-76.49 191.91-171.21 136.42 7.45 16.1 18.48 29.68 33.12 39.42Z" fill="#d00000"/>
              <g>
                <path d="M32.64 290.8c-.49 0-1 0-1.48-.06-7.45-.55-13-5.23-16.17-8.67a57.94 57.94 0 0 0 8.44.67c7.79 0 13.68-2 17.52-6 5-5.27 5.14-12.17 5.22-18.83.08-6.12.15-11.89 3.66-16.73 4.15-5.72 13.16-9.27 23.52-9.27 6.5 0 12.62 1.5 16.86 4.12 4.12 6.17 10.76 9.56 18.72 9.56a31.25 31.25 0 0 0 5-.42h1.56c15.28 0 33.38-11.35 47.57-29.44-4 12.31-14.88 35.94-41.31 47.67a72.51 72.51 0 0 1-29.6 6.21A81 81 0 0 1 62 263.69l-1.67-.69-.33 1.73c-3.14 14.86-14.89 26.07-27.36 26.07ZM196 135.11a16.06 16.06 0 0 1-2.54-.19c-10.46-1.63-16.14-14-17.4-21.87-.79-4.79-.65-14.64 4.91-21.23 3.53-4.19 8.7-6.33 15.37-6.37h1.12c14.18 0 25.23 8.15 35 15.34 8.08 6 15.7 11.58 23.84 11.58a17.51 17.51 0 0 0 4.49-.58c4.26-1.11 8.15-3.83 11.62-8.11 0 7.57-1.67 12.62-5 15a10.27 10.27 0 0 1-6.18 1.76c-8.45 0-20.55-6.61-32.26-13-12.25-6.69-23.83-13-32.56-13a12.1 12.1 0 0 0-7.8 2.48c-2.77 2.22-6.55 7.59-5.64 13.29 1.3 6.49 6.06 10.64 12.13 10.64 5.44 0 10.18-3.36 12.51-8.73a11.62 11.62 0 0 1 3.58 6.78 13.92 13.92 0 0 1-2.86 10.69c-3.88 5-9.87 5.51-12.27 5.51Z" fill="#fcac97"/>
                <path d="M197.42 86.89c13.7 0 24.54 8 34.11 15.06 8.27 6.1 16.08 11.86 24.7 11.86a19 19 0 0 0 4.86-.63 22 22 0 0 0 9.6-5.57c-.4 4.16-1.57 8-4.23 9.9a8.91 8.91 0 0 1-5.33 1.48c-8.08 0-20-6.52-31.56-12.82C217.15 99.39 205.41 93 196.31 93a13.57 13.57 0 0 0-8.72 2.8c-3 2.43-7.16 8.34-6.16 14.66v.12c1.41 7 6.85 11.75 13.55 11.75a14.85 14.85 0 0 0 12.85-7.64 10.34 10.34 0 0 1 1.79 4.46 12.49 12.49 0 0 1-2.57 9.58c-3.48 4.45-8.93 4.93-11.11 4.93a14.56 14.56 0 0 1-2.32-.17c-9.69-1.51-15-13.19-16.18-20.68-.7-4.22-.64-13.85 4.58-20 3.25-3.85 8.05-5.82 14.27-5.85h1.07m-38.63 136.18c-5.49 12.55-16.47 29.6-37.53 38.95a71.18 71.18 0 0 1-29 6.08 79.45 79.45 0 0 1-29.67-5.83L59.26 261l-.73 3.46c-3 14.2-14.09 24.91-25.89 24.91-.45 0-.92 0-1.37-.06A21.73 21.73 0 0 1 19.12 284c1.5.12 2.94.18 4.31.18 8.2 0 14.45-2.18 18.57-6.47 5.45-5.69 5.54-12.87 5.63-19.82.08-5.88.15-11.43 3.39-15.9 3.81-5.26 12.58-8.66 22.33-8.66 6.11 0 11.83 1.36 15.83 3.74 4.41 6.42 11.4 9.94 19.75 9.94a32.13 32.13 0 0 0 5.12-.42h1.48c13.77 0 29.72-8.9 43.2-23.51M197.42 84h-1.13c-21.31.12-23.14 20.65-21.71 29.29 1.44 9 7.73 21.38 18.61 23.09a18.8 18.8 0 0 0 2.77.2c4.56 0 9.95-1.62 13.41-6.06 5-6.29 4.54-16.1-2.54-20.76-1.94 6.45-7 9.65-11.83 9.65s-9.43-3.15-10.69-9.41c-.79-5 2.59-9.89 5.11-11.92a10.67 10.67 0 0 1 6.89-2.16c16.87 0 47.34 26 64.82 26a11.78 11.78 0 0 0 7-2c3.08-2.21 6.43-7.26 5.47-20.52-5 7.79-10 10.15-13.28 11a16.35 16.35 0 0 1-4.12.53c-17.17 0-32.34-26.92-58.81-26.92Zm-30.87 124.54c-15.07 22.28-35.39 35.19-51 35.19h-1.64a29.26 29.26 0 0 1-5 .43c-7.28 0-13.65-3-17.67-9.17-4.69-3-11.24-4.51-17.91-4.51-9.82 0-19.91 3.27-24.7 9.87-7.84 10.81.23 26-8.76 35.4-3.93 4.1-9.87 5.58-16.46 5.58a63.54 63.54 0 0 1-12-1.3c1.29 1.81 8.34 11.38 19.64 12.22.52 0 1.05.06 1.58.06 12.53 0 25.32-10.79 28.75-27.23a81.42 81.42 0 0 0 30.8 6.06 73.8 73.8 0 0 0 30.19-6.34c35.63-15.8 43.49-52.74 44.18-56.26Z" fill="#fc997e"/>
              </g>
              <path d="M49.75 264c7.25 20.3-14.32 33.38-31.39 19.73 19.83 2.35 28.3-10.32 31.39-19.73Zm44.77-21.17c-4.3-2.88-14.42-8.29-25.08-8.29-8.35 0-18.6 2-18.6 13.77 0 12.42 24.43 18.33 42.76 18.33 24.9 0 47.73-11.5 56.89-35.12-18.22 21.06-44.37 17.4-55.97 11.33Zm87.24-120c6.47 17.13 31.51 12.08 26.15-5.84-.91 3.92-10.81 17.26-26.15 5.9Zm44.16-18.49a30.48 30.48 0 0 0-11.57-13.12c-13.44-7.84-36.55-7.13-33.57 11.17 9.66-20.81 37.85-3.75 45.14 2.01Zm14.72 4.26c6 12.13 30.85 17.31 29.93-1.1-10.49 9.76-24.83 4.65-29.93 1.16Z" fill="#fcfcfc"/>
            </g>
          </g>
          <g>
            <g>
              <path d="M207 111.62c0 17.93-25.21 17.92-25.2 0s25.2-17.92 25.2 0Z" fill="#0000fc"/>
              <path d="M203.91 109.16c0 14.67-20.63 14.67-20.63 0s20.63-14.66 20.63 0Z" fill="#7494fc"/>
              <path d="M199 107.49a6.89 6.89 0 1 1-13.76 0 6.89 6.89 0 1 1 13.76 0Z" fill="#fcfcfc"/>
            </g>
            <g>
              <path d="M33.22 255.8c0 17.82-25.21 17.82-25.2 0s25.2-17.8 25.2 0Z" fill="#fc0000"/>
              <path d="M30.17 253.35c0 14.59-20.63 14.58-20.63 0s20.63-14.58 20.63 0Z" fill="#fc8468"/>
              <path d="M25.3 251.69a6.89 6.89 0 1 1-13.76 0 6.89 6.89 0 1 1 13.76 0Z" fill="#fcfcfc"/>
            </g>
          </g>
        </g>
        <g>
          <g>
            <g>
              <path d="M285.78 289.08c-3.67-5.39-7.51-15.16-1.48-25.88 9.28-16.48 35.88-10.36 47.23-34.4l46-96.91c0-17.54-29.56-22.82-43.77-18.8-12.92 3.66-20 15.78-23.37 21.53-39.94 68.9-56.71 99-56.71 127 0 62.5 63.1 63.17 80.23 61.6-2.18-23.15-34.78-14.55-48.13-34.14Z" fill="#0000fc"/>
              <path d="M273.75 206.4c5.88-13.46 11.2-25.42 16.05-35.94 6-10.69 12.86-22.53 20.58-35.84a60.56 60.56 0 0 1 10-13.44c14.83-8.77 44.9-4.62 54.91 15.41l-2.21 4.65c-3.28-2.19-7-3.63-10.89-3.26-7.6.72-11.06 7.83-26.92 38.36-16.55 33-24.17 45.41-14.09 58.73-18.89 17.4-38.94 7.41-45.86 32.85-19.67-14.49-11.46-38.87-1.57-61.52Zm8.75 60.84a54.48 54.48 0 0 0-7.18.68c-1.51 13.25 1.69 21.05 5.11 25.79 12.72 17.69 44.12 14.79 47.47 29.82 2-.07 4-.18 6-.35a17.05 17.05 0 0 0-1.4-5.86c-7.09-15.79-34.59-10.63-46.72-28.24a24.32 24.32 0 0 1-3.28-21.84Z" fill="#3850fc"/>
              <g>
                <path d="M333.43 150c-4.69-.08-13.54-2.35-13.54-10.35 0-3.24 2-7.52 5.58-11.75s8-8.19 16-8.19c2 0 11.92.4 11.92 8.35.01 5.5-7.07 21.94-19.96 21.94Z" fill="#97bcfc"/>
                <path d="M341.5 118.28v2.94c2.45 0 10.43.5 10.43 6.88 0 3.91-6.17 20.47-18.46 20.47-.12 0-12.11-.3-12.11-8.88 0-2.9 1.91-6.84 5.23-10.81 3.86-4.6 7.87-7.66 14.9-7.66v-2.94m0 0c-8.5 0-13.28 4.11-17.14 8.71-3.63 4.33-5.92 8.92-5.92 12.7 0 9 9.58 11.73 15 11.82 14.18 0 21.45-17.79 21.45-23.41 0-8.18-8.63-9.82-13.37-9.82Z" fill="#7e9cfc"/>
              </g>
              <path d="M335.79 142.41c-3.57-.12-9.6-1.5-9.6-7.31 0-4.31 5.79-13.33 15.6-13.33 4.54-.06 8.56 2 8.5 6.64 0 3.19-3.29 14-14.5 14Z" fill="#fcfcfc"/>
            </g>
            <g>
              <path d="M445.77 193.58c10.26-21.5 19.94-42.74 10.22-57.67-18.53-28.46-62.56-32.53-78.47-4l-46 96.91c-11.83 25-37.89 17.87-47.23 34.4-6 10.69-2.25 20.57 1.48 25.88 13.73 19.56 46 11 48.12 34.1a108.08 108.08 0 0 0 25.1-4.81c31.74-10.56 50.52-48.78 86.78-124.81Z" fill="#fc0000"/>
              <path d="M283.19 265.46c5.16 43.44 67.12 16.82 90.16-11.15 3.27-4.09 7.89-11.87 24.61-45.4 24.15-48.44 29.64-62.55 40.51-63.51 4.31-.38 11.22 1.16 20.58 12.55-1.86 11-7.36 23.22-13.28 35.63-36.26 76-55 114.25-86.77 124.79a108.08 108.08 0 0 1-25.1 4.81c-2.17-23.11-34.53-14.68-48.12-34.1-3.13-4.48-6.97-13.91-2.59-23.62Zm39.32 8.7C325 243.65 281 251 291 277c5.73-19.34 25.73-15.46 31.51-2.84Z" fill="#d00000"/>
              <g>
                <path d="M307 293.21a12.8 12.8 0 0 1-10-4.43 10.61 10.61 0 0 1-2.23-6.5c3.08 4 7.29 6.36 11.8 6.36 5.18 0 9.59-3.14 12.07-8.31a11.31 11.31 0 0 1-1.63 8.23c-2.01 2.91-5.77 4.65-10.01 4.65ZM282.57 274a21.33 21.33 0 0 1 6.12-14.44c4.05-3.87 9.88-6.09 16.06-8.44 10.28-3.91 21.93-8.35 28.1-21.74l3.11-6.54c3.14 28.11-8.26 30.42-22.49 33.3-8.32 1.69-17.75 3.6-25.3 10.94a38.3 38.3 0 0 0-5.6 6.92Zm116.54-121.9c-.61 0-13.42-.21-13.42-9.84 0-4.93 6.48-20.46 21.54-20.46 5.76 0 12 2.39 12 7.65-.04 8.16-6.75 22.68-20.12 22.68Z" fill="#fcac97"/>
                <path d="M407.23 123.29c5.06 0 10.5 1.93 10.5 6.19 0 6.23-5.36 21.19-18.61 21.19-.49 0-12-.16-12-8.38 0-4.58 6-19 20.08-19m-72.26 105.13c.42 8.94-1 15.2-4.19 19-3.83 4.53-10.2 5.82-17.57 7.31-8.51 1.73-18.17 3.68-26 11.33-.73.71-1.44 1.46-2.12 2.23a18.94 18.94 0 0 1 4.67-7.65c3.84-3.67 9.53-5.84 15.57-8.13 10.54-4 22.49-8.56 28.89-22.47l.78-1.63m-18.08 57.09a8.15 8.15 0 0 1-1.07 2.22c-1.75 2.51-5 4-8.76 4a11.33 11.33 0 0 1-8.92-3.88 8.29 8.29 0 0 1-.55-.77 15.21 15.21 0 0 0 9 3 13.94 13.94 0 0 0 10.32-4.59m90.37-165.14c-15.88 0-23 15.92-23 21.92 0 9.12 10 11.27 14.88 11.3 14.81 0 21.54-15.93 21.54-24.11 0-6-6.48-9.11-13.42-9.11Zm-70.48 97.42-5.22 11c-9.56 20.74-32.65 19-43.84 29.74a22.82 22.82 0 0 0-6.15 20.38 37.34 37.34 0 0 1 7.65-10.76c20.63-20.07 55.65 2.2 47.56-50.37Zm-18 57.46c-1.68 8-6.83 11.93-12.24 11.93-4.8 0-9.8-3.11-12.78-9.29-2.57 11.13 5.41 16.78 13.27 16.78 8.37 0 16.59-6.41 11.75-19.42Z" fill="#fc997e"/>
              </g>
              <path d="M318.57 280.54c.31 13.88-17.51 16.31-22.63 4.84 8.7 8.56 20 3.95 22.63-4.84Zm-22.21-24.22c20.49 1.47 40.12-7 36.63-23.93-8.39 14.21-24.3 20.96-36.63 23.93Zm110.75-132.44c-9.26 0-15.49 8.53-15.49 13.1 0 6.49 6.41 7.46 9.86 7.49 10.5 0 14.92-9.25 14.92-14s-5.17-6.59-9.29-6.59Z" fill="#fcfcfc"/>
            </g>
          </g>
          <g>
            <g>
              <path d="M318.8 275.72c0 17.61-25.21 17.6-25.21 0s25.21-17.6 25.21 0Z" fill="#0000fc"/>
              <path d="M315.75 273.31c0 14.4-20.63 14.4-20.63 0s20.63-14.41 20.63 0Z" fill="#7494fc"/>
              <path d="M310.88 271.66c0 9.59-13.76 9.58-13.76 0s13.76-9.58 13.76 0Z" fill="#fcfcfc"/>
            </g>
            <g>
              <path d="M308.84 333.19c7.65 0 14-6.09 13.62-10.57-.64-7.2-19-13.66-25.15-8.28-2.95 2.59-2.29 7.24-2.1 8.28 1 5.64 6.79 10.57 13.63 10.57Z" fill="#d00000"/>
              <path d="M307.44 327.73c6.38.38 13.09-4 12.86-7.42-.33-5.05-15.86-10.86-21.37-6.08a7 7 0 0 0-1.92 6.93c1.16 4.33 6.62 6.35 10.43 6.57Z" fill="#fc0000"/>
              <path d="M307.32 322.29c3.2-.42 6.7-2.93 6.39-5.52s-4.7-4-7.15-4.24c-3.81-.43-8.73 1.24-6.93 6.22 1 2.76 4.8 3.92 7.69 3.54Z" fill="#fc8468"/>
              <path d="M306 319.08c2-.26 4.16-1.83 4-3.43s-2.92-2.46-4.44-2.64c-2.34-.28-5.43.8-4.31 3.87.64 1.71 3 2.43 4.75 2.2Z" fill="#fcfcfc"/>
            </g>
          </g>
        </g>
        <g>
          <g>
            <g>
              <path d="M553.45 161.09c-27-20.1-42.67 38.63-73.89-11.42-10.46 23.66-30.67 65.2-43.53 90.26 9.47-7.62 25.8-6.63 34.2 1.95 13.09 12.94 1.29 34.62 11.43 42.83 4.23 3.42 12.88 5 32.61-4.51 10.86-21.68 24.55-51.86 44.11-93.43 1.53-8.12 2-19.38-4.93-25.68Z" fill="#fc0000"/>
              <path d="M558.66 170.72c-2.28-3.9-8.86-5.43-13.43-3.6-5.5 2.2-7.21 6-10.16 10.63 15.26 3.13 15.21 17 10.89 26.23-4.45 9.54-16.28 20.35-28.57 7l-12.24 24.93c-7.93 1.76-13.52 10.2-15.21 14.6 2.34-3 13-10.39 20.24-1.9 8 9.37-4.67 34.76-18.53 27.67s-4.82-34.19-20.69-46c-15-11.15-29.49.77-34.93 9.67 9.47-7.62 25.8-6.63 34.2 1.95 13.09 12.94 1.29 34.62 11.43 42.83 4.23 3.42 12.88 5 32.61-4.51 10.86-21.68 24.55-51.86 44.11-93.43 1.06-3.63 2.24-12.72.28-16.07Z" fill="#d00000"/>
              <path d="M514 276c-12.33 9.63-33.66 9.25-37-10.23-2 22.86 9.64 28 37.22 14.48q2.75-5.49 5.76-11.74A24 24 0 0 1 514 276Z" fill="#800"/>
              <g>
                <path d="M499.18 277.3a10.43 10.43 0 0 1-8.41-3.84c-2.53-3.19-2.7-7.95-.76-12.2a12.16 12.16 0 0 0 2.47 6.05 11.85 11.85 0 0 0 9.44 4.44 17.66 17.66 0 0 0 10.6-4 10.27 10.27 0 0 1-2.37 4.63 14.9 14.9 0 0 1-10.97 4.92Zm30.08-65.94c-3.6 0-6.68-1.29-8.45-3.55-2.49-3.17-2.64-7.9-.72-12.13a12 12 0 0 0 2.47 6 11.77 11.77 0 0 0 9.33 4.37 17.81 17.81 0 0 0 10.61-4 9.9 9.9 0 0 1-2.41 4.74 14.9 14.9 0 0 1-10.83 4.57Zm-21.85-31.47c-4.67 0-13.35-.9-19.07-6.9a19.41 19.41 0 0 1-5.09-11.62 29.71 29.71 0 0 0 3.94 4c6.52 4.81 12.43 7.12 18.15 7.12 7.55 0 13.48-4 19.23-7.87 5.42-3.65 10.54-7.1 16.7-7.1a16.43 16.43 0 0 1 3 .28 16.67 16.67 0 0 1 11 7.7 15.88 15.88 0 0 0-6.3-2.73 13.58 13.58 0 0 0-2.44-.22c-5.37 0-9.63 3.39-14.14 7-4.72 3.77-10.08 8-17.93 9.66a34.9 34.9 0 0 1-7.05.68Z" fill="#fcac97"/>
                <path d="M541.28 159a16 16 0 0 1 2.75.25 14.79 14.79 0 0 1 5.2 2.11 14.59 14.59 0 0 0-2.7-.25c-5.88 0-10.33 3.55-15 7.31s-9.8 7.82-17.31 9.37a33.55 33.55 0 0 1-6.76.67c-4.43 0-12.67-.84-18-6.45a16.49 16.49 0 0 1-3.59-5.88l.45.38.07.06.07.06c6.71 4.94 12.91 7.34 18.95 7.34 8 0 14.13-4.12 20.05-8.12 5.23-3.52 10.17-6.85 15.89-6.85m-21 42a13.55 13.55 0 0 0 1.13 1.7 13.23 13.23 0 0 0 10.48 4.92A17.22 17.22 0 0 0 539 206a13.45 13.45 0 0 1-9.69 4c-3.15 0-5.81-1.09-7.31-3a8.8 8.8 0 0 1-1.67-6m-30.13 65.52a14.21 14.21 0 0 0 1.13 1.69 13.3 13.3 0 0 0 10.59 5 17 17 0 0 0 6.92-1.55 13.62 13.62 0 0 1-9.66 4.18 9 9 0 0 1-7.26-3.29 8.84 8.84 0 0 1-1.72-6m51.08-110.47c-13.38 0-21.89 15-35.94 15-4.91 0-10.5-1.83-17.22-6.78a29 29 0 0 1-6.46-7.77c-.91 19.26 13.71 24.88 25.75 24.88a36.39 36.39 0 0 0 7.35-.73c15.8-3.26 21.68-16.63 31.77-16.62a11.76 11.76 0 0 1 2.17.2c4.58.84 7.89 4 10 6.52a17.74 17.74 0 0 0-14.09-14.37 18.81 18.81 0 0 0-3.29-.3Zm-19.41 34.36c-5.25 5.62-5.88 13.62-2.21 18.3 2.2 2.81 5.82 4.11 9.6 4.11 7.53 0 15.73-5.18 14.83-14-4.13 4.09-8.45 5.84-12.2 5.84-7 0-12-6-10-14.23ZM491.81 256c-5.29 5.63-5.91 13.68-2.18 18.37a11.89 11.89 0 0 0 9.55 4.39c7.78 0 16-6.18 14.88-14.3-4.09 4.09-8.39 5.83-12.14 5.83-7 0-12.12-6.13-10.11-14.29Z" fill="#fc997e"/>
              </g>
              <path d="M523.27 168.27c-8.14 14-28.71 13.56-36.25-1.09 14.17 10.82 28.83 6.23 36.25 1.09Zm29.45-4.86c-7.78-9.12-19.57-7.5-20.44 3 8.45-8.66 19.11-3.63 20.44-3Zm-62.6 99.52c-3.39 14.77 13.19 18.44 21.53 6.39-9.09 8.01-21.17 4.88-21.53-6.39Zm30-65.66c-1.5 6.68.74 11.11 4.87 12.87 5.31 2.27 13.54-.1 16.66-6.48-9.05 8.88-20.71 4.34-21.5-6.39Z" fill="#fcfcfc"/>
            </g>
            <g>
              <g>
                <path d="M481.66 284.71c-10.14-8.21 1.66-29.89-11.43-42.83-6.09-6-15.88-8.49-24.61-6.45a25.61 25.61 0 0 0-9.59 4.5c-10.44 21.17-17.75 38.25-18.28 52.35 0 22.63 16.73 39.38 41.42 39.38 24.43 0 33.06-8.37 55.1-51.46-19.73 9.49-28.38 7.93-32.61 4.51Z" fill="#0000fc"/>
                <path d="M442.51 241.06c-3.12 2.22-8.57 7-13.91 22-4 11.3-7.67 21.61-7.64 30.19 0 12 8.77 20.78 22.4 20.78 11.24 0 21.12-6.16 37.42-30.16-8.55-8.74 2.1-29.46-10.55-42-10.65-10.56-22.29-4.67-27.72-.81Z" fill="#3850fc"/>
                <g>
                  <path d="M489.72 300.55a15.91 15.91 0 0 1-7.82-2.22c-8.16-4.6-10.14-15.14-12-25.32-2.4-12.79-4.88-26-20.09-26a42.93 42.93 0 0 0-13.17 2.47c6.6-9.84 14-12 19.23-12a19.44 19.44 0 0 1 10 2.78c9.88 5.94 9.86 16.26 9.85 26.25 0 7.81 0 15.18 5.08 19.38a14.91 14.91 0 0 0 9.66 3c5.36 0 12.28-1.85 20.59-5.5-5.05 8.83-12.78 17.16-21.33 17.16ZM444 296a16 16 0 0 1-7-1.61 12.75 12.75 0 0 1-7.18-10.51 14.82 14.82 0 0 1 3.55-11.26 15.07 15.07 0 0 0 14.77 12.14 17.42 17.42 0 0 0 11.66-4.86A16 16 0 0 1 444 296Z" fill="#97bcfc"/>
                  <path d="M455.82 238.9a18.16 18.16 0 0 1 9.22 2.57c9.17 5.51 9.15 15.41 9.14 25 0 8.17 0 15.89 5.63 20.54a16.33 16.33 0 0 0 10.58 3.31c4.68 0 10.26-1.27 16.9-3.84-3.93 5.81-10.12 12.62-17.57 12.62a14.4 14.4 0 0 1-7.1-2c-7.56-4.26-9.48-14.46-11.32-24.32-2.4-12.75-5.11-27.2-21.54-27.2a38.65 38.65 0 0 0-9.33 1.28c5.5-6.37 11.18-7.91 15.39-7.91m-22.95 37a16.45 16.45 0 0 0 15.29 10.31 17.94 17.94 0 0 0 9.84-3.07 14.52 14.52 0 0 1-14 11.37 14.64 14.64 0 0 1-6.32-1.46 11.33 11.33 0 0 1-6.35-9.34 13.34 13.34 0 0 1 1.57-7.81M455.82 236c-7.41 0-15.89 4.09-22.64 16.26 6.87-2.61 12.28-3.76 16.58-3.76 25.53 0 12 40.22 31.42 51.15a17.16 17.16 0 0 0 8.54 2.41c11.85 0 20.77-13.9 24.55-21.82-11 5.31-18.61 7.16-23.88 7.16-4.15 0-6.87-1.15-8.73-2.65-10.61-8.74 3.49-34.57-15.11-45.76a21 21 0 0 0-10.73-3Zm-21.3 33.57c-9 6.86-8.17 21.38 1.87 26.16A17.37 17.37 0 0 0 461 276.54c-4 4.73-8.59 6.72-12.83 6.72a13.74 13.74 0 0 1-13.64-13.73Z" fill="#7e9cfc"/>
                </g>
                <path d="M442.85 246c10.67-11.46 32-8.05 27.56 12.32-4.31-14.53-17.35-16.91-27.56-12.32Zm33.76 39c1.37 16.53 20.24 18.34 27.51 3.47-6.02 3.36-18.27 6.69-27.51-3.47ZM434 281.67c-2 12.58 17.26 16.16 24.21 1.21-7.86 8.18-19.86 7.96-24.21-1.21Z" fill="#fcfcfc"/>
              </g>
              <g>
                <path d="M571.84 119c-5.53-9.78-18.74-20.21-39.36-20.21-31.25 0-38.38 20.73-52.92 50.86 28.78 45.49 42.75 1.27 67.33 7.84 12.71 3.39 13.78 18.38 11.49 29.26 2.06-4.38 4.17-8.86 6.36-13.49C570.55 161 582 137 571.84 119Z" fill="#0000fc"/>
                <path d="M562 146.86c1.7-3.18 8.19-16.2 2.89-28.33-7.44-17-33.31-21.2-49.67-13.89-9.21 4.12-14.11 11.28-18.92 18.31-3 4.44-13.59 19.79-8.21 29.51 2.4 4.32 8 10.21 18.7 10.45 8.66.2 13-6 20.36-10.58 6.73-4.1 17.47-7.83 34.85-5.47Z" fill="#3850fc"/>
                <g>
                  <path d="M510.05 158.86a18.43 18.43 0 0 1-2.33-.14c-5.18-.61-9.06-3.14-10.94-7.12a14.29 14.29 0 0 1-.32-10.64 11.76 11.76 0 0 0 2.32 4.13 14.52 14.52 0 0 0 11.08 4.77c6.61 0 12.38-3.7 16-10.09a16.79 16.79 0 0 1-2.63 12.52 15.77 15.77 0 0 1-13.18 6.57Zm27.58-30.45c-3.27-7.92-11.11-15.63-24.42-15.63h-.43c3.85-3.29 10.62-7 17.26-7a14.58 14.58 0 0 1 8 2.26c3.06 2 4.74 4.54 5 7.64.36 4.44-2.27 9.32-5.41 12.73Z" fill="#97bcfc"/>
                  <path d="M530 104.29v2.94a13.07 13.07 0 0 1 7.22 2c2.7 1.73 4.11 3.86 4.32 6.52.26 3.29-1.41 7-3.6 9.9a26.28 26.28 0 0 0-21-14.16c3.64-2.29 8.42-4.29 13-4.29v-2.94m-5.45 39.9a14.5 14.5 0 0 1-2.56 7.26 14.33 14.33 0 0 1-12 5.94 17.62 17.62 0 0 1-2.16-.13c-4.65-.54-8.13-2.78-9.78-6.28a11.5 11.5 0 0 1-1-5.65c.18.25.37.48.58.72a16 16 0 0 0 12.19 5.27 18.92 18.92 0 0 0 14.73-7.13m5.45-39.9c-9 0-18.17 6.4-20.94 10.21a34.56 34.56 0 0 1 4.11-.25c13.4 0 21.16 8.14 23.81 16.82 6.45-5.77 12.2-17.61 1.83-24.28a16 16 0 0 0-8.81-2.5Zm-3.8 31.19c-3.48 9.16-10.26 12.91-16.38 12.91-7.21 0-13.49-5.2-12.38-12.91-7 10.86-2.79 23.19 10.07 24.7a21.35 21.35 0 0 0 2.5.15c12.73 0 20.89-11.86 16.19-24.85Z" fill="#7e9cfc"/>
                </g>
                <path d="M524.52 144.53c-1 16.32-24.92 17.32-26.61 3 5.09 9.32 18.57 10.26 26.61-3Zm12-24.8c5.63-13.13-8.25-14.63-16.79-9.07a27.33 27.33 0 0 1 16.81 9.07Z" fill="#fcfcfc"/>
              </g>
            </g>
          </g>
          <g>
            <g>
              <g>
                <path d="M514.77 263.23c-10.24 19.35-31.53 8.08-21.3-11.27s31.53-8.08 21.3 11.27Z" fill="#0000fc"/>
                <path d="M513.59 259.21c-8.37 15.83-25.8 6.61-17.43-9.22s25.84-6.61 17.43 9.22Z" fill="#7494fc"/>
                <path d="M510.43 255.23c-5.57 10.53-17.19 4.38-11.62-6.15s17.19-4.39 11.62 6.15Z" fill="#fcfcfc"/>
              </g>
              <g>
                <path d="M544.9 197.39c-10.23 19.35-31.53 8.09-21.3-11.26s31.53-8.08 21.3 11.26Z" fill="#0000fc"/>
                <path d="M543.73 193.37c-8.38 15.84-25.81 6.62-17.43-9.21s25.8-6.62 17.43 9.21Z" fill="#7494fc"/>
                <path d="M540.57 189.39c-5.58 10.54-17.2 4.39-11.63-6.15s17.2-4.38 11.63 6.15Z" fill="#fcfcfc"/>
              </g>
            </g>
            <g>
              <g>
                <path d="M460.19 278.3c-10.07 19.58-34.66 6.93-24.59-12.64s34.66-6.93 24.59 12.64Z" fill="#fc0000"/>
                <path d="M459 276.15c-9.25 18-32 6.28-22.75-11.7s31.96-6.28 22.75 11.7Z" fill="#fc8468"/>
                <path d="M455.58 273.35c-7.8 15.17-26.49 5.55-18.7-9.61s26.49-5.55 18.7 9.61Z" fill="#fcac97"/>
                <path d="M450.74 270.05c-4.41 8.58-15.21 3-10.8-5.56s15.21-3.02 10.8 5.56Z" fill="#fcfcfc"/>
              </g>
              <g>
                <path d="M524.12 143.58c-10.29 20-35.22 7.18-24.93-12.82s35.22-7.18 24.93 12.82Z" fill="#fc0000"/>
                <path d="M522.88 141.38c-9.44 18.37-32.5 6.51-23.06-11.85s32.51-6.53 23.06 11.85Z" fill="#fc8468"/>
                <path d="M519.45 138.54c-8 15.5-26.92 5.75-19-9.74s26.97-5.75 19 9.74Z" fill="#fcac97"/>
                <path d="M514.55 135.19c-4.51 8.76-15.46 3.13-10.95-5.63s15.46-3.14 10.95 5.63Z" fill="#fcfcfc"/>
              </g>
            </g>
          </g>
        </g>
        <g>
          <g>
            <g>
              <path d="M796.1 108.41c-13.51-.29-28.47 8-57.52 22.69-11.58 5.84-29.58 14.79-52.36 25.54-8.66 3-11.34 3.82-24.08 8.64-24.1 9.34-45.43 48.29-70.34 46.11-14.78-1-18.93-14.82-17.53-27.88q-17.71 35.87-35.31 71.8c-4 8.15-11.81 23.6-11.81 39.1 0 28.5 24.12 41.34 42.12 41.34 27.33 0 41.32-29.49 46.73-40.17l19.72-39v.16l78.36-26.28c6-2.35 32.12-15.59 84.43-42.09 20.18-10.22 37-17.94 37-36.94 0-23.27-20.91-43.02-39.41-43.02Z" fill="#0000fc"/>
              <path d="M575 196.64c6.32 23.15 31.39 15.44 45.37 2.18-1.39 5.88-.83 15.63 1.53 21.65-26.55 70.26-43.81 87-55.13 85.39-7-1-23.88-7.31-32.79 4.39-5.61-19.43-.05-31.75 10.74-56 15.6-35.03 25.63-51.84 30.28-57.61Zm103 2.9c17.5 5.37 31.08-1.94 70.81-20.44 60.79-28.3 74.47-32.37 74.71-43.07.24-11-13.91-22-26.77-24.82-8.56-1.88-14.58.47-52.32 20.2-24.17 12.64-46.84 24.93-58.34 29-13 5.21-28.73 9-35.83 18.5 5.53 7.22 14.52 16.57 27.74 20.63Z" fill="#3850fc"/>
              <g>
                <path d="M587.93 222.62a23.18 23.18 0 0 1-9.29-1.78c-4.25-1.88-7.51-6-9-11.34-1.75-6.49-.65-13.83 3-20.7.24 7.21 2.16 12.78 5.74 16.61s8.5 5.68 14.55 5.68c8.22 0 18-3.61 26-9.42-5.52 14.33-19.46 20.95-31 20.95Zm93.8-51.86c36.87-18.53 59.64-30.5 75.11-38.63 25-13.17 27.66-14.55 34.76-14.55a14.36 14.36 0 0 1 14.69 14.08c0 4.51-3 9.55-24.63 16.43-17.93 5.71-48.12 12.57-99.93 22.67Z" fill="#97bcfc"/>
                <path d="M791.6 119.05a12.9 12.9 0 0 1 13.22 12.53v.16c0 10-25.92 18.33-112.87 35.52 31.34-15.84 51.48-26.43 65.57-33.83 25.41-13.36 27.49-14.38 34.08-14.38m-219.79 75.47a23 23 0 0 0 5.55 11.89c3.76 4 9.16 6.15 15.63 6.15 7 0 15.12-2.52 22.38-6.76-6.28 10.48-17.75 15.35-27.44 15.35a21.65 21.65 0 0 1-8.69-1.65c-3.85-1.7-6.81-5.49-8.14-10.39a25.16 25.16 0 0 1 .71-14.59m219.79-78.41c-12.33 0-12.16 4.14-120.08 58.12 113.25-21.82 136.24-30 136.24-42.49.3-5.38-4.49-15.63-16.16-15.63Zm-217.33 67.4c-11.83 16.4-6.94 33.93 3.78 38.68a24.66 24.66 0 0 0 9.88 1.9c13.18 0 29.53-8.4 33.94-26.58-7.73 6.85-19.15 12.11-28.88 12.11-11.13 0-20-6.88-18.72-26.11Z" fill="#7e9cfc"/>
              </g>
              <path d="M792.1 120.71c6.25 0 8.89 6.12 8.83 9.2 0 5-5.2 13.25-70.68 24.26 12.27-8.79 49.23-33.46 61.85-33.46Zm-218.21 86c2.59 23.19 33.34 8.94 34.31 4.74-15.85 6.71-26.6 3.21-34.31-4.73Z" fill="#fcfcfc"/>
            </g>
            <g>
              <g>
                <path d="M694.42 0c-32.57 0-47 34.15-52.78 46.08-22.12 46-44.77 91.69-67.37 137.43-1.4 13.08 2.76 26.91 17.53 27.88 24.91 2.18 46.24-36.77 70.34-46.11 12.75-4.82 15.41-5.68 24.08-8.64 35.57-70.4 36.72-72.76 38.46-76.33 4.17-8.57 11.9-23.4 11.9-40.15 0-22-17.48-40.16-42.16-40.16Z" fill="#fc0000"/>
                <path d="M656.5 167.91c-6.65 3.71-10.44 7.75-14.84 11.07-6.07 4.56-11.83 8.22-15.94 11s-26.45 17.33-39.37 11.4c-7.21-3.32-10.75-11.83-12.08-17.82-2 9-.42 28.07 20.08 28.07 12.17 0 23.34-9.84 33.48-18l26.56-4.93c-2.43-1.36-6.8-5.08-7.75-8.7-1.43-5.52 10-11.89 9.86-12.09Z" fill="#800"/>
                <path d="M662.14 165.28c-5.58 2.14-11 5.92-16.36 10.37 0 0 47.59-96.36 64.25-128.07C717.27 33.81 724.88 23.67 736 33c3.13 18-6.48 37.44-11.28 47.31-1.74 3.57-2.89 5.93-38.46 76.33-8.7 2.96-11.4 3.77-24.12 8.64Zm-49.29 15.62c5.75-9.9 2.55-21.77-6.26-23.67-10.52-2.23-19.11 5.14-20.69 15.77 10.1-13.25 26.04-6.17 26.95 7.9Z" fill="#d00000"/>
                <g>
                  <path d="M595.7 198.52a16.25 16.25 0 0 1-3.23-.33 11.72 11.72 0 0 1-8.9-7.93 13.61 13.61 0 0 1 .46-9.93c1.55 8.25 6.61 11.31 11.28 11.31 5.67 0 11.38-4.12 15.29-10.78a17 17 0 0 1-3.19 11.75 14.49 14.49 0 0 1-11.71 5.91Zm83.66-156.23c-5.91 0-11.86-3-11.86-9.71 0-8.36 9.87-24.42 23.37-24.42 10.79 0 12 6.13 12 8.77.03 8.67-9.87 25.36-23.51 25.36Z" fill="#fcac97"/>
                  <path d="M690.87 9.62c9.14 0 10.54 4.58 10.57 7.29 0 8-9.55 23.92-22.09 23.92-4.79 0-10.39-2.16-10.39-8.25 0-7.66 9.47-23 21.91-23M584.3 185.81c2.61 5.24 7.07 7.29 11 7.29 4.84 0 9.69-2.7 13.57-7.28a15 15 0 0 1-2.64 5.92 13 13 0 0 1-10.54 5.32 15.07 15.07 0 0 1-3-.3 10.28 10.28 0 0 1-7.8-7 12.16 12.16 0 0 1-.65-4M690.87 6.7C676.27 6.7 666 23.75 666 32.58c0 7.17 6 11.17 13.31 11.17 14.67 0 25-17.84 25-26.84 0-1.81-.51-10.21-13.49-10.21ZM585 176.05c-7.11 8.25-3.35 21.47 7.15 23.57a18 18 0 0 0 3.52.36c11.34 0 19.18-11.36 15.52-23.61-3.79 9-10.32 13.81-15.91 13.81-5.39 0-9.91-4.5-10.28-14.13Z" fill="#fc997e"/>
                </g>
                <path d="M690.94 10.89c-9.67 0-16.6 9.31-16.6 15.48s6.31 7.15 8.81 7.15c9 0 16.83-9.27 16.83-15.9.02-5.25-5.54-6.73-9.04-6.73Zm-84.39 177.76a11 11 0 0 1-21.53.73 13.69 13.69 0 0 0 21.53-.73Z" fill="#fcfcfc"/>
              </g>
              <g>
                <path d="M635.69 256.72c-5.26-11.75-23.34-59.15-6-68.25 37-19.39 33.95 46.17 84.32 42 4.61 23 28.22 65.7 50.37 65.7 13 0-.29-15.39-.29-34.06 0-16.33 15.81-36.17 41.48-36.17 34.33 0 51 26.84 51 61.5 0 56-39 96.08-92.33 96.08-62.3-.03-86.93-33.82-128.55-126.8Z" fill="#fc0000"/>
                <path d="M629.73 188.47c-17.6 11.47.37 55.2 6 68.25 46.2 107.89 76.54 126.78 128.2 126.78 74.34 0 99.34-68.42 91.75-108.63-11.68-13.88-53-9.77-68.27 11.05-15.63 21.38-1.47 65-48.54 65-49.27 0-83.45-81.83-88.94-106.45-1-.23-14.43-3.39-19.1-15.94-4.49-11.75.71-30.56 14.92-30.24 22.38.5 9.52 36.49 74 50.31a121.16 121.16 0 0 1-5.72-18.13c-52.09-.03-50.11-64.28-84.3-42Z" fill="#d00000"/>
                <path d="M716.49 239.42c-1-3.14-1.79-6.15-2.44-9-29.11-.28-41.95-20.65-55.27-37.48 10.82 11.6 16.95 43.35 57.71 46.48Z" fill="#800"/>
                <g>
                  <path d="M741.52 320c-13.78 0-30.14-8-44.91-21.88s-26.27-32.3-31.33-50.23c-.9-3.2-1.7-6.93-2.54-10.88-3.31-15.5-7.43-34.81-22-34.81-8.73 0-13.88 7.08-16.31 12.25-2.06-8.89-1.13-17 2.65-22.24 3.29-4.55 8.5-6.86 15.46-6.86 13.3 0 18.7 11.37 24.95 24.53 5.84 12.31 12.46 26.24 27.13 32.05a90.83 90.83 0 0 0 12.05 38.64C713.33 292 724.42 311 745.61 311c10.38 0 19.25-4.9 25.33-9.54-8.72 12.62-18.22 18.54-29.42 18.54Zm51-54.8c-4.15 0-14.94-2.21-14.94-12.3 0-9.52 10.14-20.59 23.23-20.59h.33c3.19 0 13.58.71 13.58 9.85.02 7.89-9.35 23.05-22.18 23.05Z" fill="#fcac97"/>
                  <path d="M642.57 186.82c12.38 0 17.59 11 23.63 23.69 5.85 12.33 12.46 26.24 27.07 32.44a92.34 92.34 0 0 0 12.17 38.36c6.78 11.66 18.14 31.17 40.16 31.17a39.82 39.82 0 0 0 18.67-5c-8.88 9.61-16.9 11-22.75 11-13.41 0-29.41-7.83-43.91-21.49-14.66-13.81-25.93-31.87-30.93-49.56-.89-3.15-1.68-6.85-2.51-10.78-3.42-16-7.68-36-23.4-36-7.49 0-12.53 4.76-15.6 9.48-.93-6.9.14-13 3.13-17.15s7.8-6.26 14.27-6.26m158.59 47c3.64 0 12.12.82 12.12 8.39 0 7.39-8.75 21.59-20.74 21.59-.13 0-13.48-.12-13.48-10.84 0-8.85 9.51-19.13 21.77-19.13h.33M642.57 183.9c-19.47 0-24.15 17.57-18.29 35.31.59-2.75 5.32-15.54 16.49-15.54 16.77 0 18.61 28.71 23.1 44.63 10.77 38.14 48 73.17 77.65 73.17 11.5 0 23.88-5.82 36-28-2 2.18-14.79 16.09-32 16.09-19.81 0-30.47-17.41-37.64-29.72A89.73 89.73 0 0 1 696 240.91c-30.25-11.06-25.75-57-53.47-57Zm158.59 46.95h-.33c-13.79 0-24.69 11.55-24.69 22s10.59 13.76 16.4 13.76c13.81 0 23.66-15.82 23.66-24.51 0-10.92-12.56-11.31-15-11.31Z" fill="#fc997e"/>
                </g>
                <path d="M632.53 200c1.85-5.09 7.39-10.84 15.27-8.23 8.32 2.76 11.88 12.21 20.26 27 9.12 16.12 9.45 13.46 14.34 23.38 5.71 11.59 10.33 34.77 20.94 46.22-.14.11-26.77-17.92-35.36-49.13-3.59-13-3.65-25.48-13.6-35-4.16-4.02-13.91-11.15-21.85-4.24Zm161 59.06c-4.42 0-10.6-2.67-10.6-10.5 0-8.92 9.61-15.09 17.27-15.09 6.37 0 11.31 3.8 11.31 8.55-.05 6.73-7.99 16.98-18.03 16.98Z" fill="#fcfcfc"/>
              </g>
            </g>
          </g>
          <g>
            <g>
              <path d="M609.51 181.57c-9.6 20.72-32.4 10.14-22.8-10.57s32.41-10.14 22.8 10.57Z" fill="#0000fc"/>
              <path d="M608.07 177.45c-7.86 17-26.52 8.3-18.66-8.65s26.52-8.3 18.66 8.65Z" fill="#7494fc"/>
              <path d="M606 176c-6.15 13.28-20.77 6.5-14.62-6.78S612.2 162.69 606 176Z" fill="#fcfcfc"/>
            </g>
            <g>
              <path d="M630.4 227.44c4.79 21.36 28.3 16.08 23.51-5.27s-28.29-16.09-23.51 5.27Z" fill="#0000fc"/>
              <path d="M632.59 223.87c3.92 17.48 23.16 13.16 19.24-4.31s-23.15-13.17-19.24 4.31Z" fill="#7494fc"/>
              <path d="M636.69 220.86c2.6 11.63 15.43 8.75 12.83-2.88s-15.44-8.75-12.83 2.88Z" fill="#fcfcfc"/>
            </g>
          </g>
        </g>
      </g>
      <g>
        <g>
          <path class="cls-15" d="M977.81 88.51c-30.76 27.86-65.21 63.83-91.72 96.63h70.2l-4.89 20.74H850.86l3.71-15.45c26.57-34.63 58.44-69.24 90-99.37h-63l4.89-20.74h95.65Zm27.38-18.19h24.65l-32.47 135.56h-24.65Zm82.43 135.56h-23.39c-8.58-44.23-14.67-89.27-18.94-135.56h26c2.71 35.16 6 73.28 10.85 106.41a1016.53 1016.53 0 0 0 60-106.41h26.81c-24.95 46.43-50.57 92.4-81.33 135.56Z"/>
        </g>
        <g>
          <path class="cls-15" d="M977.81 88.51c-30.76 27.86-65.21 63.83-91.72 96.63h70.2l-4.89 20.74H850.86l3.71-15.45c26.57-34.63 58.44-69.24 90-99.37h-63l4.89-20.74h95.65Zm27.38-18.19h24.65l-32.47 135.56h-24.65Zm82.43 135.56h-23.39c-8.58-44.23-14.67-89.27-18.94-135.56h26c2.71 35.16 6 73.28 10.85 106.41a1016.53 1016.53 0 0 0 60-106.41h26.81c-24.95 46.43-50.57 92.4-81.33 135.56Z"/>
          <path d="M977.81 88.51c-30.76 27.86-65.21 63.83-91.72 96.63h70.2l-4.89 20.74H850.86l3.71-15.45c26.57-34.63 58.44-69.24 90-99.37h-63l4.89-20.74h95.65Zm27.38-18.19h24.65l-32.47 135.56h-24.65Zm82.43 135.56h-23.39c-8.58-44.23-14.67-89.27-18.94-135.56h26c2.71 35.16 6 73.28 10.85 106.41a1016.53 1016.53 0 0 0 60-106.41h26.81c-24.95 46.43-50.57 92.4-81.33 135.56Z" stroke="#fccaca" stroke-width="5.11" fill="none" stroke-miterlimit="10"/>
        </g>
      </g>
    </g>
  </g>
</svg>