<svg id="_01" data-name="01" xmlns="http://www.w3.org/2000/svg" viewBox="0 0 1190.56 196.04"><defs><style>.cls-1{fill:#fff;}.cls-2{fill:#dc1414;}</style></defs><g id="_01-2" data-name="01"><rect id="_01-3" data-name="01" class="cls-1" x="9.7" y="9.7" width="1171.16" height="176.64" rx="88.32"/><path id="_02" data-name="02" d="M1092.54,196H98A98,98,0,0,1,98,0h994.52a98,98,0,0,1,0,196ZM98,19.4a78.62,78.62,0,0,0,0,157.24h994.52a78.62,78.62,0,1,0,0-157.24Z"/></g><g id="_02-2" data-name="02"><path id="_01-4" data-name="01" d="M194.33,155.27h-30.8l-31.7-41.17L100,155.27H69.21l47.9-59.61L73.59,41.6H104.3l27.39,35.56L159.23,41.6H190L146.27,95.66Zm94.17-53.56a29,29,0,0,0-9.39-7.53A26.36,26.36,0,0,0,289.42,72.9c0-9.87-4.23-17.73-12.57-23.38-7.76-5.26-18.35-7.92-31.47-7.92H199.77V155.27h47.72c14.89,0,26.54-2.93,34.63-8.7,8.59-6.12,12.94-15,12.94-26.3A28.94,28.94,0,0,0,288.5,101.71ZM224.38,63.38h19.43c10.68,0,15.42,1.68,17.53,3.08,2.56,1.72,3.71,4.08,3.71,7.65,0,5.29-2.12,7.21-3.72,8.19-2.2,1.35-6.78,3-16.11,3H224.38Zm23,70.11h-23V107.05h21c12.53,0,17.94,1.89,20.27,3.48,1.83,1.25,4.26,3.61,4.26,9.74C269.91,123.88,269.91,133.49,247.34,133.49ZM323.59,84.3c-19.85-.46-32.25,4.45-32.25,9.75,0,4.88,12.34,9.83,32.25,9.75Zm124,71H423.72V88.18L399,155.27H378.76L354,88.18v67.09H330.16V41.6H361l27.8,77.69,28-77.69h30.82Zm254.22,0H679.08L626,82.67v72.6H602.17V41.6h22.6l53.09,72.59V41.6h23.91Zm36.07,0H713.15V41.6h24.69Zm73,0H786.17V63.38h-37.7V41.6H848.86V63.38h-38Zm142.2-99.34C942,45.24,927.57,39.82,910.29,39.82s-31.75,5.42-42.9,16.1S850.5,81,850.5,98.43s5.68,31.72,16.88,42.48,25.59,16.14,42.91,16.14,31.66-5.42,42.76-16.11,16.8-25,16.8-42.51S964.2,66.67,953.05,55.93Zm-18,70.2c-6.48,6.53-14.63,9.71-24.91,9.71s-18.29-3.19-24.8-9.75-9.68-15.61-9.68-27.66,3.18-21.14,9.71-27.68S900.11,61,910.45,61c10.12,0,18.18,3.17,24.63,9.7s9.61,15.6,9.61,27.7S941.54,119.59,935.05,126.13ZM1074,120.41c-2.82-6.89-6.49-12.26-11-16a34.34,34.34,0,0,0,10.67-7.52,29.9,29.9,0,0,0,8.19-21.31,33.46,33.46,0,0,0-6.19-19.71,29.25,29.25,0,0,0-16.38-11.7c-6-1.67-13.78-2.52-23-2.52H980.66V155.27h24.61V110.68h23.43a21.71,21.71,0,0,1,12.83,3.85,21.34,21.34,0,0,1,7.94,9.93l12,30.81h26.66Zm-21.41-34.84c-2.39,1.52-7.46,3.32-18,3.32h-29.23V62.45h31.58c19.9,0,19.9,9.17,19.9,13.08C1056.75,82.91,1053.59,84.91,1052.55,85.57Zm70.36,50.77h-16V114h-22.31V98h22.31V75.67h16V98h22.32v16h-22.32Z"/><g id="_02-3" data-name="02"><path id="_01-5" data-name="01" d="M591.93,98.81A67.25,67.25,0,1,0,512.78,165V142a44.8,44.8,0,1,1,23.8,0v23A67.25,67.25,0,0,0,591.93,98.81Z"/><g id="_02-4" data-name="02"><circle id="_01-6" data-name="01" class="cls-2" cx="524.68" cy="98.81" r="33.35" transform="translate(83.81 399.95) rotate(-45)"/><ellipse id="_02-5" data-name="02" class="cls-1" cx="512.46" cy="82.27" rx="13.07" ry="10.29" transform="translate(46.67 311.22) rotate(-35.3)"/></g></g></g></svg>