<svg id="_01" data-name="01" xmlns="http://www.w3.org/2000/svg" viewBox="0 0 1197.64 531.88"><defs><style>.cls-1{fill:#7dc8f5;}.cls-2{fill:#303030;}.cls-3{fill:#79c8cd;}.cls-4{fill:#51a2f3;}.cls-5{fill:#96b4ff;}</style></defs><g id="_01-2" data-name="01"><g id="_01-3" data-name="01"><path class="cls-1" d="M80.85,345.93c-16,0-36.45-16.72-38.82-38.29-1.61-14.66,5.32-28.26,12.34-36.1,5.73-6.39,12.33-10.06,18.11-10.06.43,0,.86,0,1.28.06A15,15,0,0,1,81,264.4c.06-.36.13-.73.2-1.12a407.76,407.76,0,0,0,6.3-81L45.87,243.51,72,149.85l-61.61,7.36,54.4-38.42L9.47,66.63l68.74,25-7.62-79,33.83,71.67,44.41-66.42-20.22,82.48,63.81-4.08L166.61,110.8c1.1,0,2.29.07,3.65.13,1.88.09,4,.19,6.47.19a91,91,0,0,0,17.36-1.73c3.53-.69,6.71-1.57,9.51-2.35,4.3-1.2,8-2.24,11.67-2.24a16.43,16.43,0,0,1,7.86,1.94c6.67,3.54,9.35,10.37,10,12.38,2.42,7.35-3.77,14.27-10.32,21.59-5.61,6.27-11.41,12.76-11.41,19.17v147c0,9.23,0,37.33-16.65,37.33-10.82,0-16.82-10-28.29-30.78l-42.47-80V268.6c2.21,44.77-19.86,76.11-41.86,77.3Q81.49,345.93,80.85,345.93Zm94.28-129.78V179.38l-27.37-10Zm0-46.58v-9.69c0-10.06-6.63-16-12.47-21.29-6.46-5.82-13.11-11.81-7.2-21.52l-20.13,11.31Z"/><path class="cls-2" d="M74.07,25.29l30,63.58L143.6,29.76l-17.91,73.05,57-3.64-51,28.68q22.84,23.64,45.7,47.29V159.88c0-23.84-33-26-18.06-44.37,1.69-2,3.8-2.46,6.94-2.46,2.64,0,6,.32,10.47.32a92.11,92.11,0,0,0,17.79-1.77c8.86-1.72,15.08-4.55,20.75-4.55a14.09,14.09,0,0,1,6.81,1.68c6.14,3.26,8.46,9.69,8.92,11.1,3.94,11.94-21.84,25.15-21.84,40.05v147c0,7.94,0,35.08-14.4,35.08-9.44,0-14.92-9-26.32-29.62l-46.69-87.91v44.2c2.19,44.1-19.62,73.92-39.73,75q-.58,0-1.17,0c-15.61,0-34.39-16.35-36.58-36.29-2.37-21.55,15-43.66,28.21-43.66.36,0,.72,0,1.07,0,2.66.26,5.71,1.53,9,4.87.16-.8.51-2.64.94-5a413.41,413.41,0,0,0,6.12-88.43L51.72,230.91l23.34-83.69-56.12,6.7L68.33,119,18.94,72.47,80.79,95,74.07,25.29M177.38,224.45V177.81l-34.72-12.66,34.72,59.3M67.11,0l2.48,25.72,6,62.57L58.08,81.91,20.48,68.24,0,60.8,15.85,75.74l45.38,42.8L16.34,150.25,1.83,160.5l17.64-2.11L47.53,155l21.39-2.56L47.38,229.7,40,256.11l15.42-22.67,29.93-44a404.09,404.09,0,0,1-6,71.38A16.19,16.19,0,0,0,74,259.3c-.5,0-1-.07-1.5-.07-6.42,0-13.63,3.94-19.79,10.81-7.34,8.2-14.59,22.44-12.89,37.85,1.14,10.42,6.34,20.5,14.63,28.38,8,7.57,17.58,11.91,26.42,11.91.47,0,.94,0,1.41,0,23.07-1.24,46.24-33.51,44-79.6v-26l38.21,72,0,0,0,0c11,19.91,17.63,31.94,30.26,31.94,5.84,0,13.53-3.13,17-18.05,1.91-8.28,1.91-17.57,1.91-21.53v-147c0-5.56,5.51-11.71,10.84-17.67,6.69-7.48,13.6-15.21,10.78-23.79-.94-2.84-3.89-9.84-11.09-13.67a18.59,18.59,0,0,0-8.92-2.2c-4,0-7.82,1.08-12.28,2.32-2.89.81-5.88,1.64-9.33,2.31a88.08,88.08,0,0,1-16.93,1.69l-2.06,0,10.25-5.76,17.21-9.67-19.7,1.26L153,96.56l-21.46,1.36L148,30.83,154.05,6,139.86,27.26l-12.71,19L104.76,79.76,78.14,23.37,67.11,0ZM139,128.92l12.15-6.83a13,13,0,0,0,.8,7.09c1.71,4.3,5.36,7.59,9.23,11.08,5.76,5.19,11.73,10.56,11.73,19.62V164L139,128.92Zm33.91,78.94-20-34.21,6.12,2.23L172.88,181v26.91Z"/><path class="cls-3" d="M81,50.57l19,40.22a4.49,4.49,0,0,0,3.73,2.57h.34a4.52,4.52,0,0,0,3.74-2l25.32-37.88-11.83,48.24a4.51,4.51,0,0,0,4.37,5.58H126l27.57-1.76,9.75-.63-5.73,3.23-28.09,15.79a4.5,4.5,0,0,0-1,7l36.09,37.36-2.49-.91-17.85-6.51a4.31,4.31,0,0,0-1.54-.27,4.5,4.5,0,0,0-3.88,6.77l34.71,59.3a4.5,4.5,0,0,0,3.89,2.23,4.29,4.29,0,0,0,1.17-.16,4.5,4.5,0,0,0,3.33-4.34V177.81a4.32,4.32,0,0,0-.21-1.34,4.21,4.21,0,0,0,.21-1.33V159.88c0-13.06-8.5-20.72-14.71-26.31-7.63-6.88-9.43-8.95-4.38-15.2.35-.41.76-.82,3.47-.82,1,0,2.26.06,3.68.12,1.95.1,4.17.2,6.79.2A97.19,97.19,0,0,0,195.38,116c3.79-.73,7.11-1.66,10-2.47,3.82-1.07,7.12-2,9.86-2A9.64,9.64,0,0,1,220,112.7c4.45,2.36,6.3,7.13,6.77,8.54,1.2,3.64-4,9.4-8.94,15-6.15,6.88-13.13,14.68-13.13,23.67v147c0,3.66,0,12.23-1.68,19.5s-4.47,11.08-8.22,11.08c-6.69,0-11.45-7.48-22.37-27.26l-46.67-87.88a4.5,4.5,0,0,0-8.47,2.11v44.43c1,19.37-2.9,37.53-10.88,51.12-6.77,11.53-16,18.69-24.6,19.16l-.92,0c-12.94,0-30.14-14.4-32.11-32.28C47.37,294.45,53.35,282.79,59.4,276c4.38-4.89,9.27-7.81,13.08-7.81.22,0,.43,0,.64,0,2,.19,4.07,1.38,6.17,3.53a4.47,4.47,0,0,0,3.22,1.36A4.78,4.78,0,0,0,83.8,273a4.51,4.51,0,0,0,3.13-3.46c.16-.81.52-2.67.94-5a415.93,415.93,0,0,0,6.2-89.39,4.49,4.49,0,0,0-3.25-4.16,4.45,4.45,0,0,0-1.25-.18,4.52,4.52,0,0,0-3.72,2l-22.43,33,16-57.27a4.5,4.5,0,0,0-4.34-5.71,4.71,4.71,0,0,0-.53,0L46.47,146.1l-10.42,1.25,34.87-24.63a4.5,4.5,0,0,0,.49-7L37.88,84.14,55,90.37l24.26,8.82a4.49,4.49,0,0,0,6-4.66L81,50.57m-7-25.28L80.79,95,18.94,72.47,68.33,119,18.94,153.92l56.12-6.7L51.72,230.91l37.85-55.66a413.41,413.41,0,0,1-6.12,88.43c-.43,2.33-.78,4.17-.94,5-3.25-3.34-6.3-4.61-9-4.87-.35,0-.71,0-1.07,0-13.17,0-30.58,22.11-28.21,43.66,2.19,19.94,21,36.29,36.58,36.29q.59,0,1.17,0c20.11-1.08,41.92-30.9,39.73-75v-44.2l46.69,87.91C179.84,333,185.32,342,194.76,342c14.4,0,14.4-27.14,14.4-35.08v-147c0-14.9,25.78-28.11,21.84-40-.46-1.41-2.78-7.84-8.92-11.1a14.09,14.09,0,0,0-6.81-1.68c-5.67,0-11.89,2.83-20.75,4.55a92.11,92.11,0,0,1-17.79,1.77c-4.45,0-7.83-.32-10.47-.32-3.14,0-5.25.45-6.94,2.46-14.9,18.37,18.06,20.53,18.06,44.37v15.26q-22.86-23.64-45.7-47.29l51-28.68-57,3.64,17.91-73L104.09,88.87l-30-63.58ZM177.38,224.45l-34.72-59.3,34.72,12.66v46.64Z"/></g><g id="_02" data-name="02"><path class="cls-1" d="M286.15,345.4c-21.46,0-33.31-3.9-36.25-11.92-3.54-9.66,8.14-21.16,11.4-24.12V229.43a19.58,19.58,0,0,1-11.23-8.36c-4.19-6.92-2.82-15.12.4-20.18,2.95-4.63,6.5-5.58,21.41-9.57l4-1.08,5.78-1.56a29.1,29.1,0,1,1,19.12-4,9,9,0,0,1,6.09,2.24c3.89,3.46,3.89,8.9,3.89,10.69V309.39c3.11,3,14.31,14.53,10.65,24.18C318.39,341.54,306.85,345.4,286.15,345.4Z"/><path class="cls-2" d="M285.65,133.06a26.82,26.82,0,1,1-26.82,26.82,26.82,26.82,0,0,1,26.82-26.82M300.4,187a6.9,6.9,0,0,1,5,1.67c2.95,2.62,3.14,6.92,3.14,9V310.37s37,32.78-22.35,32.78c-61.34,0-22.6-32.78-22.6-32.78V227.68c-1.2-.23-7.84-1.64-11.56-7.78-3.61-6-2.52-13.25.38-17.8,2.69-4.23,6.15-4.85,24.09-9.68,12.89-3.48,19.71-5.47,23.94-5.47m-14.75-58.39a31.32,31.32,0,0,0-12.44,60.07l-1.91.51c-15.22,4.08-19.31,5.17-22.72,10.54-3.6,5.65-5.13,14.81-.44,22.55A21.42,21.42,0,0,0,259.05,231v77.33c-4.37,4.09-15.07,15.5-11.26,25.88,3.3,9,15.85,13.4,38.36,13.4,21.75,0,34-4.34,37.36-13.28,3.93-10.36-6.34-21.84-10.51-25.94V197.63c0-5.47-1.57-9.63-4.65-12.37a10.86,10.86,0,0,0-2.33-1.6,31.31,31.31,0,0,0-20.37-55.1Z"/><path class="cls-3" d="M285.65,137.56a22.32,22.32,0,1,1-22.32,22.32,22.35,22.35,0,0,1,22.32-22.32m14.75,53.89h0c1.37,0,1.7.3,2,.54,1.08.95,1.63,2.85,1.63,5.64V310.37a4.52,4.52,0,0,0,1.51,3.37c3.95,3.52,11.5,12.42,9.58,17.45-.85,2.24-5.38,7.46-28.94,7.46-25.2,0-29.27-5.73-29.91-7.49-1.84-5,6.09-13.85,10.21-17.35a4.52,4.52,0,0,0,1.6-3.44V227.68a4.5,4.5,0,0,0-3.65-4.42,13.14,13.14,0,0,1-8.56-5.69,12.85,12.85,0,0,1,.33-13c1.44-2.27,3.54-3,17.45-6.68l4-1.08,4.21-1.14c9.61-2.6,15.41-4.17,18.56-4.17m-14.75-58.39a26.82,26.82,0,1,0,26.82,26.82,26.82,26.82,0,0,0-26.82-26.82ZM300.4,187c-4.23,0-11,2-23.94,5.47-17.94,4.83-21.4,5.45-24.09,9.68-2.9,4.55-4,11.84-.38,17.8,3.72,6.14,10.36,7.55,11.56,7.78v82.69s-38.74,32.78,22.6,32.78c59.35,0,22.35-32.78,22.35-32.78V197.63c0-2.09-.19-6.39-3.14-9a6.9,6.9,0,0,0-5-1.67Z"/></g><g id="_03" data-name="03"><path class="cls-1" d="M395.23,346.19c-19.1,0-33.65-12.64-36.37-15.17-18.52-17.25-27.52-50.35-22.92-84.31,4.13-30.57,18.18-54.86,37.57-65a65.16,65.16,0,0,1,29.2-6.84c15.47,0,28.19,5.43,35.83,15.28,11.64,15,10.81,39.15-1.89,54.94-7,8.67-19.39,17.43-31.38,17.43a22.9,22.9,0,0,1-10.1-2.29c-5.91-2.88-11-8.55-13.92-15-1.3,15.52,3,28.74,11.69,34.57.65.44,6.62,4.3,13.6,4.3a16.81,16.81,0,0,0,5.3-.84c6.69-2.23,10.27-8.45,13.44-13.93,3-5.14,5.52-9.58,10.17-9.58h.16c6.72.16,11.53,10.62,13.13,17.62,3,13.1-1.33,30-11.26,44.09-9.76,13.85-23.33,22.75-37.22,24.41a42.18,42.18,0,0,1-5,.3Z"/><path class="cls-2" d="M402.71,177.14c13.05,0,26.09,4.13,34.05,14.41,11.05,14.26,10,37.37-1.86,52.15-6.06,7.53-17.9,16.59-29.63,16.59a20.57,20.57,0,0,1-9.11-2.07c-8.57-4.17-15.12-14.68-15.37-24.2-5.05,21.35-.53,40,10.9,47.67.68.46,7.18,4.67,14.85,4.67a19.1,19.1,0,0,0,6-.94c13.66-4.56,15.47-23.4,22.9-23.4h.11c4.95.12,9.41,9,11,15.87,5.67,24.88-16.62,62.18-46.55,65.77a40.62,40.62,0,0,1-4.76.28c-18.78,0-33.18-13-34.83-14.57-36.89-34.35-28.67-123.3,14.15-145.65a62.78,62.78,0,0,1,28.16-6.58m0-4.5h0a67.51,67.51,0,0,0-30.24,7.09c-20,10.46-34.53,35.39-38.76,66.68A127.24,127.24,0,0,0,336,294c4,16.08,11.41,29.44,21.29,38.64,2.83,2.64,17.95,15.78,37.9,15.78a46.82,46.82,0,0,0,5.3-.31c14.52-1.75,28.66-11,38.79-25.35,10.28-14.6,14.73-32.18,11.61-45.89-1.51-6.61-6.63-19.16-15.27-19.37h-.21c-5.95,0-9.08,5.44-12.12,10.7s-6.32,11-12.21,12.93a14.55,14.55,0,0,1-4.58.71c-6.42,0-12.11-3.75-12.35-3.91-6.63-4.43-10.45-13.63-10.89-24.95a30.89,30.89,0,0,0,10.89,9.27,25.1,25.1,0,0,0,11.08,2.52c12.74,0,25.82-9.18,33.13-18.27,13.33-16.57,14.17-41.92,1.92-57.73-8.07-10.41-21.43-16.14-37.61-16.15Z"/><path class="cls-3" d="M402.71,181.64c7.72,0,22,1.65,30.49,12.66,9.65,12.45,8.84,33.34-1.81,46.58-5.78,7.18-16.42,14.91-26.12,14.91a16.11,16.11,0,0,1-7.14-1.61c-7-3.41-12.64-12.31-12.84-20.28a4.51,4.51,0,0,0-4-4.36l-.47,0a4.5,4.5,0,0,0-4.37,3.47c-5.45,23-.43,43.61,12.78,52.44,1.35.91,8.57,5.43,17.35,5.43a23.54,23.54,0,0,0,7.43-1.17c9.12-3.05,13.77-11.09,17.16-17,1.16-2,3.3-5.73,4.35-6.19,1.43.34,5.07,5.31,6.67,12.36,2.58,11.29-1.33,26.13-10.19,38.7-8.66,12.29-20.5,20.16-32.51,21.6a34.77,34.77,0,0,1-4.22.25c-16.93,0-30.3-12-31.77-13.36-17-15.81-25.14-46.6-20.83-78.46,3.84-28.4,16.55-50.8,34-59.91a58.26,58.26,0,0,1,26.08-6.07h0m0-4.5a62.78,62.78,0,0,0-28.16,6.58c-42.82,22.35-51,111.3-14.15,145.65,1.65,1.54,16.05,14.57,34.83,14.57a40.62,40.62,0,0,0,4.76-.28c29.93-3.59,52.22-40.89,46.55-65.77-1.57-6.92-6-15.75-11-15.87h-.11c-7.43,0-9.24,18.84-22.9,23.4a19.1,19.1,0,0,1-6,.94c-7.67,0-14.17-4.21-14.85-4.67-11.43-7.64-15.95-26.32-10.9-47.67.25,9.52,6.8,20,15.37,24.2a20.57,20.57,0,0,0,9.11,2.07c11.73,0,23.57-9.06,29.63-16.59,11.88-14.78,12.91-37.89,1.86-52.15-8-10.28-21-14.4-34.05-14.41Z"/></g><g id="_04" data-name="04"><path class="cls-1" d="M483.44,346.78l-61,16.88,48.39-45.26-51.53-32H461a137.44,137.44,0,0,1-1.79-27.29,125.42,125.42,0,0,1,13.59-50.68c9.5-18,22.26-29,36.9-31.89a40.86,40.86,0,0,1,7.84-.76,46.58,46.58,0,0,1,19.38,4.41c21.76,10.26,33.55,37.29,34.07,78.18.15,12.16.62,48.43-18.09,69.74l31.8,23.9-59.06-4.56,16.06,79.25-34.53-71.23-36.81,77.39Zm44.64-64.32a14.89,14.89,0,0,0,5.58-5.9c4.28-7.83,4-20.5-.72-35.68-.52-1.22-1.07-2.39-1.65-3.49-.06.34-.13.69-.2,1ZM497.21,245a35.84,35.84,0,0,0,.33,7.4v.21C498,262,501,270.19,505.88,276l11.17-20.68a11.67,11.67,0,0,1-1.32.07C509.55,255.42,502.65,251.44,497.21,245Z"/><path class="cls-2" d="M517.55,178A44.27,44.27,0,0,1,536,182.23c32,15.08,32.64,65.05,32.78,76.18.16,12.33.62,49.71-19.18,70l27.62,20.75L522.85,345q6.55,32.36,13.12,64.72l-28.81-59.43-32.28,67.87q5.65-37.23,11.3-74.46l-55.5,15.36,43.84-41h0L427.2,288.66h36.49a134.77,134.77,0,0,1-2.22-29.44c1.37-31.37,17.95-74.42,48.67-80.46a38.13,38.13,0,0,1,7.41-.72m11.27,60.25,0,0q-1.64,23.83-3.26,47.68c10.8-2.94,18.32-17.57,9.46-45.81a37.86,37.86,0,0,0-5.46-9.41,34,34,0,0,1-.77,7.59m-22.44,41.55,15.75-29.16a10.55,10.55,0,0,1-3.54,2.08,9.84,9.84,0,0,1-2.86.41c-6.12,0-14.24-4.92-19.92-13.93a35.16,35.16,0,0,0-.5,13.45c.61,12.36,5.15,21.5,11.07,27.15m11.17-106.3h0a43.12,43.12,0,0,0-8.28.8c-15.32,3-28.62,14.44-38.45,33A128,128,0,0,0,457,259a139.92,139.92,0,0,0,1.41,25.14h-47l13.4,8.32,42.34,26.29L431.73,351.9l-4.13,3.86-13.37,12.51,17.65-4.89,48.81-13.51-4.61,30.37-5.65,37.24-4.57,30.1,13.08-27.5,28.26-59.4,24.72,51,15.53,32.05-7.07-34.91-6.56-32.36-5.38-26.52,18,1.39,30.4,2.35,15.39,1.19-12.35-9.28-23.73-17.83c17.69-22.13,17.24-57.36,17.09-69.4-.08-5.85-.27-21.4-4.59-37.7-5.63-21.22-16-35.52-30.77-42.49a49.1,49.1,0,0,0-20.34-4.62ZM530.71,277l1.95-28.66c3.57,15.23,1.05,23.4-1,27.1a15.18,15.18,0,0,1-1,1.56Zm-25.13-5.18a39,39,0,0,1-5.78-19.39v-.21l0-.21q-.11-.74-.18-1.44c4.31,3.79,9.13,6.24,13.75,6.89l-3,5.62-4.71,8.74Z"/><path class="cls-3" d="M517.55,182.54h0a39.82,39.82,0,0,1,16.5,3.76c12.28,5.79,21,18.12,25.91,36.65,4,15.23,4.22,30,4.29,35.52.15,11.83.61,47.83-17.9,66.82a4.45,4.45,0,0,0-1.27,3.48,4.51,4.51,0,0,0,1.79,3.26l15.28,11.48-15-1.16L523.2,340.5h-.35a4.5,4.5,0,0,0-4.41,5.39l6,29.82-13.27-27.38a4.5,4.5,0,0,0-4-2.54h0a4.51,4.51,0,0,0-4,2.57l-19.2,40.37,1.08-7.13,5.65-37.23a4.51,4.51,0,0,0-5.65-5l-37.86,10.48,30.48-28.5a4.51,4.51,0,0,0-.7-7.11L443,293.16h20.71a4.51,4.51,0,0,0,4.43-5.35,130.74,130.74,0,0,1-2.16-28.4,118.66,118.66,0,0,1,12.82-47.82c5.94-11.24,16.35-25.3,32.23-28.42a33.88,33.88,0,0,1,6.54-.63m6.77,55.93-.55,8a4.67,4.67,0,0,0-1.64-.31,4.48,4.48,0,0,0-2.9,1.06,5.85,5.85,0,0,1-2,1.22,5,5,0,0,1-1.52.21c-4.17,0-11-3.7-16.12-11.83a4.49,4.49,0,0,0-3.8-2.1,5.81,5.81,0,0,0-.72,0,4.49,4.49,0,0,0-3.65,3.38,39.39,39.39,0,0,0-.61,15c.65,12.29,5.07,22.93,12.44,30a4.52,4.52,0,0,0,3.11,1.24,4.2,4.2,0,0,0,.7,0,4.51,4.51,0,0,0,3.26-2.31l7.87-14.58,4.73-8.76-1.84,27a4.51,4.51,0,0,0,4.49,4.81,4.72,4.72,0,0,0,1.18-.16,20.68,20.68,0,0,0,12.81-10.46c3.67-6.7,6.6-19.26-.23-41,0-.13-.09-.26-.14-.38a42.66,42.66,0,0,0-6.12-10.52,4.52,4.52,0,0,0-5-1.41,4.52,4.52,0,0,0-3,4.28,29.29,29.29,0,0,1-.67,6.6,4.85,4.85,0,0,0-.1,1.13M517.55,178a38.13,38.13,0,0,0-7.41.72c-30.72,6-47.3,49.09-48.67,80.46a134.77,134.77,0,0,0,2.22,29.44H427.2L474.52,318h0l-43.84,41,55.5-15.36q-5.65,37.23-11.3,74.46l32.28-67.87L536,409.71q-6.56-32.37-13.12-64.72l54.34,4.19-27.62-20.75c19.8-20.31,19.34-57.69,19.18-70-.14-11.13-.78-61.1-32.78-76.18A44.27,44.27,0,0,0,517.55,178Zm11.27,60.25a34,34,0,0,0,.77-7.59,37.86,37.86,0,0,1,5.46,9.41c8.86,28.24,1.34,42.87-9.46,45.81q1.63-23.85,3.26-47.68l0,0Zm-22.44,41.55c-5.92-5.65-10.46-14.79-11.07-27.15a35.16,35.16,0,0,1,.5-13.45c5.68,9,13.8,13.93,19.92,13.93a9.84,9.84,0,0,0,2.86-.41,10.55,10.55,0,0,0,3.54-2.08l-15.75,29.16Z"/></g><g id="_05" data-name="05"><path class="cls-1" d="M619.9,345.4c-21.45,0-33.3-3.9-36.24-11.92-3.54-9.66,8.14-21.16,11.4-24.12V156.71a22.71,22.71,0,0,1-9.47-6.11c-1.54-1.68-4.75-5.19-5.09-10.41a15.18,15.18,0,0,1,1.67-7.71c3.91-8,14.15-12.44,29.64-19.08L615,112c11.15-4.78,16.75-7.18,20.75-7.18a7.55,7.55,0,0,1,4.73,1.52c4,3,4,8.87,4,10.79V309.39c3.11,3,14.31,14.53,10.65,24.18C652.15,341.54,640.61,345.4,619.9,345.4Z"/><path class="cls-2" d="M635.75,107.1a5.32,5.32,0,0,1,3.37,1.06c3.15,2.37,3.14,7.3,3.14,9v193.2s37,32.78-22.35,32.78c-61.34,0-22.6-32.78-22.6-32.78V155a20.79,20.79,0,0,1-10.06-6c-1.44-1.57-4.22-4.6-4.5-9a13,13,0,0,1,1.44-6.59c3.64-7.49,14-11.78,29.76-18.52,12-5.18,18-7.84,21.8-7.84m0-4.5c-4.46,0-9.85,2.3-21.63,7.37l-2,.83-1.24.53c-16,6.84-26.51,11.36-30.79,20.17a17.6,17.6,0,0,0-1.88,8.84c.38,6,4.09,10,5.67,11.78a24.67,24.67,0,0,0,8.88,6.15v150.1c-4.37,4.09-15.07,15.5-11.26,25.88,3.3,9,15.85,13.4,38.36,13.4,21.75,0,34-4.34,37.36-13.28,3.93-10.36-6.34-21.84-10.51-25.94V117.17c0-2.21,0-8.88-4.93-12.6a9.86,9.86,0,0,0-6.08-2Z"/><path class="cls-3" d="M635.75,111.6c.45,0,.55.07.66.16.62.46,1.35,1.77,1.35,5.41v193.2a4.52,4.52,0,0,0,1.51,3.37c4,3.52,11.5,12.42,9.58,17.45-.85,2.24-5.38,7.46-28.94,7.46-25.2,0-29.27-5.73-29.91-7.49-1.84-5,6.09-13.85,10.21-17.35a4.52,4.52,0,0,0,1.6-3.44V155a4.5,4.5,0,0,0-3.36-4.35,16.22,16.22,0,0,1-7.88-4.65c-1.25-1.37-3.15-3.43-3.33-6.28a8.56,8.56,0,0,1,1-4.33c2.81-5.79,12.13-9.78,26.24-15.83l1.24-.53,1.95-.83c9.31-4,15.47-6.64,18.08-6.64m0-4.5c-3.75,0-9.75,2.66-21.8,7.84-15.74,6.74-26.12,11-29.76,18.52a13,13,0,0,0-1.44,6.59c.28,4.43,3.06,7.46,4.5,9a20.79,20.79,0,0,0,10.06,6V310.37s-38.74,32.78,22.6,32.78c59.35,0,22.35-32.78,22.35-32.78V117.17c0-1.71,0-6.64-3.14-9a5.32,5.32,0,0,0-3.37-1.06Z"/></g><g id="_06" data-name="06"><path class="cls-1" d="M711.68,346.72c-9.48,0-18.66-2.26-25.2-6.2-13.71-8.25-22.6-27.92-22.66-50.1-.06-21.32,7.87-38.9,21.22-47a34.5,34.5,0,0,1,6.12-2.94,21.6,21.6,0,0,1-6.63-1.78c-12.95-5.89-15.57-23-16.07-28.17-1.92-13,3.81-26.55,9.94-33.67,2.29-2.64,5.8-5.8,9.55-5.8a5.91,5.91,0,0,1,4,1.52,30,30,0,0,0,2.73,2.18l-35.84-30.11,61.51,16.65L706.9,79.44l34.92,66.61,38.07-56.8-17.43,74.18L819,151.79l-47.05,37.12,30.83,32.69L774.94,216c4.66,15.55,6.23,33.43,7.76,50.76,1.87,21.36,3.65,41.53,11,54.18.11.19.29.46.52.8,1.89,2.79,6.31,9.33,3.21,15.17-2.91,5.48-11.36,8.14-25.81,8.14-12.32,0-21.14-3-26.21-8.83a18.27,18.27,0,0,1-2.41-3.55C738.94,341.23,726.8,346.72,711.68,346.72Zm3.43-64.83a10.47,10.47,0,0,0-1.44,6.39,9.87,9.87,0,0,0,4.1,7.57,9.73,9.73,0,0,0,5.49,1.6,9.91,9.91,0,0,0,8.16-4h-.26a16.58,16.58,0,0,1-7.46-1.7A17.8,17.8,0,0,1,715.11,281.89ZM706.77,238a70.18,70.18,0,0,1,21.78,4.26c2.49-7.65,1.24-10.06.53-10.76a2.79,2.79,0,0,0-2.14-.7c-2.77,0-7,1.82-11.57,3.75C712.64,235.73,709.75,237,706.77,238Z"/><path class="cls-2" d="M711.38,92.83l30.21,57.62,33.28-49.67-15.4,65.56,50.66-10.43L768.6,188.67,796.26,218l-24.64-5c11.93,34.91,6,84.72,20.16,109.05,1.65,2.83,16.86,20.72-20.14,20.72-30.95,0-28.42-19.36-28.32-20.09v0a45.7,45.7,0,0,1-2,8.2c-3.6,9-16.44,13.58-29.66,13.58-8.68,0-17.53-2-24-5.88-27.15-16.34-29.82-76-1.43-93.28a37.25,37.25,0,0,1,19.62-5.06c10.92,0,20.69,3.59,24.09,4.94,3.7-10,2.34-13.69.74-15.28a5,5,0,0,0-3.72-1.35c-7.42,0-20.67,9.77-33.2,9.77a19.79,19.79,0,0,1-8.27-1.71c-13.09-6-14.66-25.29-14.78-26.45C668,192.3,680.62,173.28,688,173.28a3.57,3.57,0,0,1,2.48.95,35.1,35.1,0,0,0,16.8,8.12l-39.15-32.9,55,14.9L711.38,92.83M723.26,299.7a11.92,11.92,0,0,0,10.63-6,10,10,0,0,0,1-2.93,16.91,16.91,0,0,1-3.72.42,14.39,14.39,0,0,1-6.46-1.47,16.25,16.25,0,0,1-8.4-12.15,10.23,10.23,0,0,0-1.47,1.1c-5,4.65-4.66,14.71,1.68,19a12,12,0,0,0,6.75,2M702.42,66.06l4.52,27.5,10.62,64.62-48.3-13.07-19.68-5.33,15.61,13.12,19.56,16.44a19.67,19.67,0,0,0-8,6c-6.66,7.72-12.47,21.63-10.48,35.36.53,5.42,3.33,23.61,17.38,30l.89.38c-.21.12-.42.24-.62.37-14,8.54-22.36,26.85-22.3,49,.06,23,9.38,43.38,23.75,52,6.88,4.14,16.49,6.52,26.36,6.52,11.48,0,24.93-3.26,31.42-12.06.2.25.41.51.63.76,5.52,6.38,14.91,9.61,27.91,9.61,15.58,0,24.41-3,27.8-9.34,3.73-7-1.4-14.62-3.33-17.48-.19-.28-.35-.51-.45-.67-7.11-12.22-8.87-32.15-10.72-53.25-1.42-16.14-2.88-32.74-6.84-47.63l17.27,3.49,13.89,2.81-9.72-10.3-9-9.59-15.25-16.16L802,168.08l10.95-8.64,14.92-11.77-18.62,3.83-43.76,9,13.79-58.7,5.66-24.1L771.13,98.28l-29.07,43.38L715.37,90.74l-13-24.68Zm13.78,170.6.06,0c4.12-1.76,8.37-3.57,10.68-3.57a2.3,2.3,0,0,1,.58.06s.85,1.32-.46,6.25a75.82,75.82,0,0,0-10.86-2.71Zm7.06,58.54a7.11,7.11,0,0,1-7.35-7.1v-.05a19,19,0,0,0,6.79,5.74,17.89,17.89,0,0,0,2.81,1.12,8.73,8.73,0,0,1-2.25.29Z"/><path class="cls-3" d="M720.34,119.61l17.26,32.93a4.5,4.5,0,0,0,3.75,2.4h.24a4.52,4.52,0,0,0,3.74-2l19.49-29.1-9.73,41.46a4.49,4.49,0,0,0,4.38,5.53,4.76,4.76,0,0,0,.91-.09l32-6.6-26.61,21a4.49,4.49,0,0,0-.48,6.62l17.94,19-10.75-2.17a4.58,4.58,0,0,0-.9-.09,4.49,4.49,0,0,0-4.25,6c5.33,15.61,7,34.55,8.6,52.87,1.95,22.13,3.79,43,11.92,57,.2.35.45.72.76,1.18,1.1,1.63,4,6,2.84,8.22-.41.76-3.27,4.56-19.85,4.56-10.09,0-17.37-2.23-21.06-6.45a11.46,11.46,0,0,1-2.8-8.51,4.5,4.5,0,0,0-3.77-5.1,4,4,0,0,0-.69-.05,4.5,4.5,0,0,0-4.44,3.79V322a40,40,0,0,1-1.71,7.21c-2.56,6.43-12.8,10.75-25.48,10.75-8.28,0-16.2-1.91-21.72-5.23-11.73-7.06-19.34-24.47-19.39-44.34-.05-18.65,6.84-34.46,18-41.25a32.76,32.76,0,0,1,17.28-4.4c9.33,0,18.06,2.9,22.43,4.62a4.58,4.58,0,0,0,1.66.32,4.5,4.5,0,0,0,4.22-2.94c2.29-6.19,4.75-15-.31-20a9.39,9.39,0,0,0-6.89-2.66c-4.15,0-8.81,2-14.22,4.29-6,2.57-12.82,5.48-19,5.48a15.15,15.15,0,0,1-6.41-1.31c-9.91-4.5-11.86-19.68-12.15-22.67v-.14l0-.2c-1.55-10.49,3-21.74,8-27.76,2.27-2.77,4-3.7,4.63-3.92a39.44,39.44,0,0,0,18.6,8.93,4.78,4.78,0,0,0,.92.09,4.51,4.51,0,0,0,2.89-7.95l-23.54-19.78L722,168.7a4.77,4.77,0,0,0,1.18.15,4.49,4.49,0,0,0,4.44-5.23l-7.23-44m2.92,184.59a16.29,16.29,0,0,0,14.61-8.36,14.65,14.65,0,0,0,1.44-4.24,4.5,4.5,0,0,0-4.43-5.29,4.6,4.6,0,0,0-1,.11,12.32,12.32,0,0,1-2.74.31,10,10,0,0,1-4.46-1,11.69,11.69,0,0,1-6-8.83,4.52,4.52,0,0,0-2.57-3.38,4.58,4.58,0,0,0-1.88-.41,4.54,4.54,0,0,0-2.36.67,13.4,13.4,0,0,0-2.17,1.64,16.64,16.64,0,0,0,11.49,28.78M711.38,92.83l11.75,71.52-55-14.9,39.15,32.9a35.1,35.1,0,0,1-16.8-8.12,3.57,3.57,0,0,0-2.48-.95c-7.33,0-19.91,19-17.26,36.89.12,1.16,1.69,20.5,14.78,26.45a19.79,19.79,0,0,0,8.27,1.71c12.53,0,25.78-9.77,33.2-9.77a5,5,0,0,1,3.72,1.35c1.6,1.59,3,5.26-.74,15.28-3.4-1.35-13.17-4.94-24.09-4.94a37.25,37.25,0,0,0-19.62,5.06c-28.39,17.3-25.72,76.94,1.43,93.28,6.51,3.92,15.36,5.88,24,5.88,13.22,0,26.06-4.54,29.66-13.58a45.7,45.7,0,0,0,2-8.2v0c-.1.73-2.63,20.09,28.32,20.09,37,0,21.79-17.89,20.14-20.72-14.17-24.33-8.23-74.14-20.16-109l24.64,5L768.6,188.67l41.53-32.76-50.66,10.43,15.4-65.56-33.28,49.67L711.38,92.83ZM723.26,299.7a12,12,0,0,1-6.75-2c-6.34-4.29-6.68-14.35-1.68-19a10.23,10.23,0,0,1,1.47-1.1,16.25,16.25,0,0,0,8.4,12.15,14.39,14.39,0,0,0,6.46,1.47,16.91,16.91,0,0,0,3.72-.42,10,10,0,0,1-1,2.93,11.92,11.92,0,0,1-10.63,6Z"/></g><g id="_07" data-name="07"><path class="cls-1" d="M901.58,345.58c-1.64,0-3.22-.06-4.71-.18-5.18-.42-10.06-.81-14.78-4.13a21.5,21.5,0,0,1-6.83-8.11,32.76,32.76,0,0,1-3.76,3.6,37.68,37.68,0,0,1-23.84,8.09,39.32,39.32,0,0,1-20.57-5.65C812.23,330,809.62,316.6,809.62,292V231.21a22.71,22.71,0,0,1-9.47-6.11c-1.54-1.68-4.75-5.18-5.09-10.4a15.2,15.2,0,0,1,1.67-7.72c3.91-8,14.15-12.44,29.65-19.08l3.19-1.37c11.14-4.78,16.74-7.18,20.74-7.18a7.55,7.55,0,0,1,4.73,1.52c4,3,4,8.65,4,10.78s0,6.83,0,12.78l.21-.43c3.91-8.05,14.15-12.44,29.65-19.08l3.19-1.37c11.14-4.78,16.74-7.18,20.74-7.18a7.55,7.55,0,0,1,4.73,1.52c4,3,4,8.87,4,10.79V309.39c3.11,3,14.31,14.53,10.66,24.18-3.36,8.86-18.65,12-30.72,12Zm-37.86-52.74a6.67,6.67,0,0,0,1.67.22c4.45,0,6.63-5.81,6.81-11.56V228.23a22.71,22.71,0,0,1-9.47-6.11,21.6,21.6,0,0,1-3.62-5c0,25.59,0,60.24,0,60.75V278C858.9,281.28,859.4,291.08,863.72,292.84Z"/><path class="cls-2" d="M912.89,178.62a5.32,5.32,0,0,1,3.37,1.06c3.15,2.37,3.14,7.3,3.14,9V310.37s14.44,12.8,10.8,22.41c-2.87,7.58-17.36,10.55-28.62,10.55-1.59,0-3.11-.06-4.53-.18-5.12-.41-9.45-.75-13.66-3.72a20.61,20.61,0,0,1-7.52-10.68,30.49,30.49,0,0,1-5.79,6.27,35.54,35.54,0,0,1-22.42,7.58,36.93,36.93,0,0,1-19.38-5.31c-13.74-8.55-16.41-20.71-16.41-45.34V229.54a20.79,20.79,0,0,1-10.06-6c-1.44-1.57-4.22-4.6-4.5-9a13,13,0,0,1,1.44-6.59c3.64-7.49,14-11.78,29.76-18.52,12-5.18,18-7.85,21.8-7.84a5.34,5.34,0,0,1,3.37,1.06c3,2.28,3.12,6.86,3.14,9,.1,11.67,0,86.17,0,86.17s-.75,14.53,6.2,17.14a9.25,9.25,0,0,0,2.37.33c5.5,0,8.81-5.87,9.06-13.74v-55a20.79,20.79,0,0,1-10.06-6c-1.44-1.57-4.22-4.6-4.5-9a13,13,0,0,1,1.44-6.59c3.64-7.49,14-11.78,29.76-18.52,12-5.18,18-7.84,21.8-7.84m0-4.5c-4.46,0-9.85,2.31-21.64,7.37l-1.94.83-1.24.53c-12.2,5.23-21.24,9.1-26.73,14.57,0-2.55,0-4.53,0-5.79,0-2.43-.07-8.9-4.92-12.56a9.84,9.84,0,0,0-6.08-2c-4.46,0-9.84,2.3-21.63,7.36l-1.95.84-1.24.53c-16,6.84-26.51,11.36-30.79,20.17a17.6,17.6,0,0,0-1.88,8.84c.38,6,4.09,10,5.67,11.78a24.67,24.67,0,0,0,8.88,6.15V292c0,14.36,1,23.09,3.28,30.12a34.14,34.14,0,0,0,15.25,19,41.6,41.6,0,0,0,21.76,6,40,40,0,0,0,25.26-8.59c.64-.53,1.27-1.07,1.87-1.64a23.07,23.07,0,0,0,6,6.24c5.22,3.67,10.4,4.09,15.88,4.53,1.56.12,3.21.19,4.9.19,4.63,0,28-.65,32.83-13.46,3.93-10.36-6.34-21.84-10.51-25.94V188.69c0-2.21,0-8.88-4.93-12.6a9.86,9.86,0,0,0-6.08-2ZM864.45,290.7c-2.1-1.06-3.39-7.44-3.14-12.63v-.22c0-.47,0-29.39,0-53.9a24.72,24.72,0,0,0,8.59,5.84v51.7c-.16,4.65-1.77,9.32-4.56,9.32a4.69,4.69,0,0,1-.94-.11Z"/><path class="cls-3" d="M912.89,183.12c.45,0,.55.07.66.16.62.46,1.35,1.77,1.35,5.41V310.37a4.5,4.5,0,0,0,1.51,3.37c3.8,3.37,11.48,12.43,9.58,17.44-1.62,4.29-12.34,7.65-24.41,7.65-1.45,0-2.86-.06-4.17-.16-4.77-.38-8.22-.66-11.43-2.92a16.25,16.25,0,0,1-5.85-8.43,4.49,4.49,0,0,0-8-1.13,25.6,25.6,0,0,1-4.93,5.34,31,31,0,0,1-19.58,6.57,32.51,32.51,0,0,1-17-4.63c-11.09-6.9-14.29-16.21-14.29-41.52V229.54a4.5,4.5,0,0,0-3.36-4.35,16.22,16.22,0,0,1-7.88-4.65c-1.26-1.37-3.15-3.43-3.33-6.28a8.56,8.56,0,0,1,1-4.33c2.81-5.79,12.13-9.78,26.24-15.83l1.24-.53,2-.84c9.31-4,15.47-6.64,18.08-6.63.45,0,.55.07.66.16.87.65,1.32,2.48,1.35,5.45.09,11.31,0,82.79,0,86-.16,3.23-.31,17.92,9.12,21.46l.39.13a13.45,13.45,0,0,0,3.56.49c7.77,0,13.22-7.27,13.55-18.1a.71.71,0,0,0,0-.14v-55a4.5,4.5,0,0,0-3.36-4.35,16.22,16.22,0,0,1-7.88-4.65c-1.26-1.37-3.15-3.43-3.33-6.28a8.56,8.56,0,0,1,1-4.33c2.81-5.79,12.13-9.78,26.24-15.83l1.24-.53,1.94-.83c9.32-4,15.48-6.64,18.09-6.64m0-4.5c-3.75,0-9.75,2.66-21.8,7.84-15.74,6.74-26.12,11-29.76,18.52a13,13,0,0,0-1.44,6.59c.28,4.43,3.06,7.46,4.5,9a20.79,20.79,0,0,0,10.06,6v55c-.25,7.87-3.56,13.74-9.06,13.74A9.25,9.25,0,0,1,863,295c-6.95-2.61-6.2-17.14-6.2-17.14s.1-74.5,0-86.17c0-2.15-.12-6.73-3.14-9a5.34,5.34,0,0,0-3.37-1.06c-3.75,0-9.75,2.66-21.8,7.84-15.74,6.74-26.12,11-29.76,18.52a13,13,0,0,0-1.44,6.59c.28,4.43,3.06,7.46,4.5,9a20.79,20.79,0,0,0,10.06,6V292c0,24.63,2.67,36.79,16.41,45.34a36.93,36.93,0,0,0,19.38,5.31A35.54,35.54,0,0,0,870.08,335a30.49,30.49,0,0,0,5.79-6.27,20.61,20.61,0,0,0,7.52,10.68c4.21,3,8.54,3.31,13.66,3.72,1.42.12,2.94.18,4.53.18,11.26,0,25.75-3,28.62-10.55,3.64-9.61-10.8-22.41-10.8-22.41V188.69c0-1.71,0-6.64-3.14-9a5.32,5.32,0,0,0-3.37-1.06Z"/></g><g id="_08" data-name="08"><path class="cls-1" d="M992.14,342.59c-17.63,0-33.18-6.37-41.61-17-9.7-12.29-10.84-30.64-7.67-43.37,2.23-8.95,6.43-15.18,11.84-17.55a14.57,14.57,0,0,1,5.91-1.17,22,22,0,0,1,4.87.59,42.37,42.37,0,0,1-13.85-15.16c-5.08-9.85-6-23-2.37-36,3.75-13.63,11.67-24.93,22.31-31.81a52.88,52.88,0,0,1,28.84-8c21.52,0,42.62,11.09,46.07,24.22,2.32,8.79-3,18.24-6.92,25.14S1029.09,241,1019,241.1h-.15a13.09,13.09,0,0,1-3.07-.36c8.25,3.4,17.13,7.94,23.55,15.67,13.61,16.39,14.69,44.58,2.4,62.85-9.68,14.39-28.68,23.33-49.59,23.33Zm-11.75-45.1a18.64,18.64,0,0,0,6,3.74,21.47,21.47,0,0,0,7.56,1.41,13,13,0,0,0,8.66-2.88,12.79,12.79,0,0,0,4-8.75c.05-6.75-9.32-11-20.17-15.89l-2.09-.95c5,4.18,12.13,11.57,9.36,17.65C991.69,296.15,985.62,297.33,980.39,297.49Zm13.87-74.91a7.72,7.72,0,0,0-1.35,4.57c.34,4.87,7.41,7.58,16.35,11l2.35.91c-3.52-2-6.8-5.06-10.2-8.27A57.28,57.28,0,0,1,994.26,222.58Z"/><path class="cls-2" d="M1000.41,175.34c20.79,0,40.76,10.62,43.9,22.54,2.08,7.91-3.08,17-6.71,23.47s-9.83,17.4-18.62,17.5h-.13c-5.67,0-10.41-4.49-15.89-9.68a54.47,54.47,0,0,1-8.57-10.43c-1.81,2-4,5-3.72,8.57.87,12.68,31.45,11.9,46.93,30.54,12.76,15.36,14.12,42.53,2.26,60.16-10.11,15-29.29,22.33-47.72,22.33-16,0-31.39-5.49-39.84-16.18-14.12-17.88-9.87-51.69,3.31-57.47a12.16,12.16,0,0,1,5-1c7.74,0,16.24,5.76,18.14,7,5.53,3.75,15.38,12.6,12.86,18.14-1.71,3.74-8.31,4.37-12.56,4.37-1.94,0-3.39-.13-3.66-.16a22,22,0,0,0,10.16,8.23,23.72,23.72,0,0,0,8.37,1.56A14,14,0,0,0,1008.8,291c.13-17-42.15-17.94-55.17-43.17-9.84-19.07-2.41-50.93,19.16-64.88a50.65,50.65,0,0,1,27.62-7.64m0-4.5v0c-11.21,0-21.61,2.89-30.07,8.36-11.1,7.18-19.36,18.94-23.25,33.11-3.72,13.55-2.8,27.26,2.54,37.61a40.63,40.63,0,0,0,8.89,11.4,16,16,0,0,0-4.72,1.25c-6.06,2.66-10.72,9.43-13.12,19.07-3.31,13.26-2.09,32.42,8.09,45.31,8.85,11.2,25.06,17.89,43.37,17.89,21.65,0,41.37-9.32,51.46-24.32,12.8-19,11.66-48.45-2.54-65.54a51.76,51.76,0,0,0-16.51-12.7c8.19-3.17,13.54-12.64,17-18.72,3.86-6.83,9.68-17.15,7.14-26.83-3.76-14.27-25.4-25.89-48.25-25.89Zm-2.32,59.84a6.3,6.3,0,0,1-2.84-3.15c.91,1.08,1.86,2.14,2.84,3.15ZM986.81,299c4.5-1,7.48-3.12,8.89-6.24,1.77-3.89.46-8-2-11.72,6.19,3.12,10.61,6.21,10.58,10a10.52,10.52,0,0,1-3.22,7.09,10.77,10.77,0,0,1-7.16,2.31,19.46,19.46,0,0,1-6.75-1.26l-.36-.14Z"/><path class="cls-3" d="M1000.41,179.84c19.74,0,37.16,10.13,39.55,19.18,1.61,6.15-3,14.22-6.28,20.11-3,5.3-8.55,15.15-14.76,15.22h-.07c-3.87,0-8-3.91-12.8-8.45a49.63,49.63,0,0,1-7.85-9.57,4.53,4.53,0,0,0-3.42-2.07,2.55,2.55,0,0,0-.39,0,4.52,4.52,0,0,0-3.33,1.47c-3.52,3.87-5.16,7.88-4.88,11.91.63,9.16,10.36,12.9,20.66,16.85,9.5,3.65,20.26,7.78,27.3,16.26,11.63,14,12.54,39.08,2,54.76-8.44,12.55-25.3,20.35-44,20.35-15.58,0-29.15-5.41-36.31-14.47-8.24-10.44-9.11-26.79-6.42-37.56,1.66-6.67,4.66-11.53,8-13a7.86,7.86,0,0,1,3.19-.6c2.37,0,7.56.81,15.61,6.27a45.92,45.92,0,0,1,8.2,7.18c2.86,3.27,3.16,5.08,3.09,5.36s-2.35,1.74-8.46,1.74c-1.82,0-3.16-.13-3.21-.14l-.45,0a4.5,4.5,0,0,0-3.72,7,26.44,26.44,0,0,0,12.26,9.9,28.44,28.44,0,0,0,10,1.86,18.43,18.43,0,0,0,19.38-18.33c.09-11.14-11.68-16.46-24.14-22.09-12-5.41-25.53-11.55-31.53-23.17-4.25-8.25-5-19.87-1.86-31.11,3.26-11.86,10.35-22,19.46-27.93,7-4.53,15.71-6.92,25.18-6.92m0-4.5A50.65,50.65,0,0,0,972.79,183c-21.57,14-29,45.81-19.16,64.88,13,25.23,55.3,26.2,55.17,43.17a14,14,0,0,1-14.88,13.86,23.72,23.72,0,0,1-8.37-1.56,22,22,0,0,1-10.16-8.23c.27,0,1.72.16,3.66.16,4.25,0,10.85-.63,12.56-4.37,2.52-5.54-7.33-14.39-12.86-18.14-1.9-1.28-10.4-7-18.14-7a12.16,12.16,0,0,0-5,1c-13.18,5.78-17.43,39.59-3.31,57.47,8.45,10.69,23.86,16.18,39.84,16.18,18.43,0,37.61-7.3,47.72-22.33,11.86-17.63,10.5-44.8-2.26-60.16-15.48-18.64-46.06-17.86-46.93-30.54-.25-3.53,1.91-6.58,3.72-8.57a54.47,54.47,0,0,0,8.57,10.43c5.48,5.19,10.22,9.68,15.89,9.68h.13c8.79-.1,14.93-11,18.62-17.5s8.79-15.56,6.71-23.47c-3.14-11.92-23.11-22.54-43.9-22.54Z"/></g><g id="_09" data-name="09"><path class="cls-1" d="M1090.74,345.4c-21.45,0-33.3-3.9-36.24-11.92-3.54-9.66,8.14-21.16,11.4-24.12V229.43a19.58,19.58,0,0,1-11.23-8.36c-4.19-6.92-2.82-15.12.4-20.18,3-4.63,6.5-5.58,21.41-9.57l5.75-1.55L1080,173.86l-45.79,38,30-55.42-68-8.75,69.63-10.21-32-54.45,46.88,36.59,8.6-66.79,9.46,64.56,44-34.36-31.24,53.18,71.12,11.47L1113,157.58l29.37,54.31-42.91-35.63-1.52,9.43a33.88,33.88,0,0,1,7.09-1,9.15,9.15,0,0,1,6.46,2.24c3.89,3.46,3.89,8.9,3.89,10.69V309.39c3.11,3,14.31,14.53,10.66,24.18C1123,341.54,1111.45,345.4,1090.74,345.4Z"/><path class="cls-2" d="M1089.4,69.37l7.65,52.21,37.77-29.49-26.92,45.85,59.7,9.63-58.14,8.24,25.36,46.91-37-30.71-2.69,16.65A44.39,44.39,0,0,1,1105,187a6.9,6.9,0,0,1,5,1.67c3,2.62,3.14,6.92,3.14,9V310.37s37,32.78-22.35,32.78c-61.34,0-22.6-32.78-22.6-32.78V227.68c-1.2-.23-7.84-1.64-11.56-7.78-3.61-6-2.52-13.25.38-17.8,2.69-4.23,6.15-4.85,24.09-9.68l3.68-1-3.1-21.86-39.94,33.16,26-48.06-55.05-7.09,56.76-8.32-27.7-47.16,40.69,31.76,7-54.48m-.29-33-4.17,32.43-6,46.66-34.46-26.91L1025.87,74l12,20.34,24.31,41.4L1012,143.12l-32.36,4.74,32.44,4.17,48.55,6.25-22.88,42.3-11.07,20.47,17.9-14.87,9.74-8.08a15.92,15.92,0,0,0-1.13,1.58c-3.6,5.65-5.13,14.81-.44,22.55a21.42,21.42,0,0,0,10.91,8.81v77.33c-4.37,4.09-15.07,15.5-11.26,25.88,3.3,9,15.85,13.4,38.36,13.4,21.75,0,34-4.34,37.36-13.28,3.93-10.36-6.34-21.84-10.51-25.94V197.63a25.22,25.22,0,0,0-.25-3.57l14.6,12.12,17.9,14.87-11.07-20.47-22.29-41.22,51.75-7.33,29.4-4.17-29.32-4.73-53.21-8.59,23.59-40.17,12-20.34-18.59,14.51-31.68,24.73-6.53-44.56-4.74-32.35Zm-30.9,158.5,20.1-16.69,1.41,10-3.82,1c-9.19,2.46-14.31,3.84-17.69,5.72Zm42.44-12,.38-2.35,2.41,2c-.84.06-1.76.18-2.79.35Z"/><path class="cls-3" d="M1089.69,102.38l2.91,19.85a4.49,4.49,0,0,0,2.78,3.52,4.45,4.45,0,0,0,4.44-.63l19.18-15-15,25.51a4.5,4.5,0,0,0,3.16,6.72l30.38,4.9-28.74,4.07a4.5,4.5,0,0,0-3.32,6.6l14.3,26.44-19.08-15.84a4.55,4.55,0,0,0-2.88-1,4.33,4.33,0,0,0-1.58.29,4.49,4.49,0,0,0-2.86,3.49l-2.69,16.65a4.49,4.49,0,0,0,5.54,5.08,40.79,40.79,0,0,1,8.75-1.57c1.37,0,1.7.3,2,.54,1.08.95,1.63,2.85,1.63,5.64V310.37a4.52,4.52,0,0,0,1.51,3.37c4,3.52,11.5,12.42,9.58,17.45-.85,2.24-5.38,7.46-28.94,7.46-25.2,0-29.27-5.73-29.91-7.49-1.84-5,6.09-13.85,10.21-17.35a4.52,4.52,0,0,0,1.6-3.44V227.68a4.5,4.5,0,0,0-3.65-4.42,13.14,13.14,0,0,1-8.56-5.69,12.85,12.85,0,0,1,.33-13c1.44-2.27,3.54-3,17.45-6.68l4-1.08,3.68-1a4.5,4.5,0,0,0,3.28-5l-3.1-21.87a4.48,4.48,0,0,0-2.83-3.56,4.34,4.34,0,0,0-1.62-.3,4.54,4.54,0,0,0-2.88,1l-22,18.3,14.92-27.59a4.5,4.5,0,0,0-3.38-6.61l-22.62-2.91,24.4-3.57a4.5,4.5,0,0,0,3.23-6.73l-15.75-26.83,22.09,17.25a4.47,4.47,0,0,0,2.77.95,4.42,4.42,0,0,0,1.71-.34,4.5,4.5,0,0,0,2.75-3.58l2.84-22.05m-.29-33-7,54.48L1041.7,92.09l27.7,47.16-56.76,8.32,55.05,7.09-26,48.06,39.94-33.16,3.1,21.86-3.68,1c-17.94,4.83-21.4,5.45-24.09,9.68-2.9,4.55-4,11.84-.38,17.8,3.72,6.14,10.36,7.55,11.56,7.78v82.69s-38.74,32.78,22.6,32.78c59.35,0,22.35-32.78,22.35-32.78V197.63c0-2.09-.19-6.39-3.14-9a6.9,6.9,0,0,0-5-1.67,44.39,44.39,0,0,0-9.85,1.71l2.69-16.65,37,30.71-25.36-46.91,58.14-8.24-59.7-9.63,26.92-45.85-37.77,29.49-7.65-52.21Z"/></g></g><g id="_02-2" data-name="02"><path class="cls-4" d="M1074.76,529.63a21.4,21.4,0,0,1-6.75-1,19.06,19.06,0,0,1-5.7-3,16.07,16.07,0,0,1-4.46-5.29,14.92,14.92,0,0,1-1.7-7,15.78,15.78,0,0,1,2.06-7.68,15.4,15.4,0,0,1,6-6.1l5-2.8,4.86,3a3.94,3.94,0,0,0,1,.47,4.44,4.44,0,0,0,1,.17c.51,0,.65-.09.78-.19a10.42,10.42,0,0,0,2.57-3,58.39,58.39,0,0,0,4.18-8.34c1.19-2.83,2.5-6.06,3.9-9.63l-.1-.37q-1.12-4.11-2.4-8.61c-.85-3-1.72-6-2.6-9.06s-1.76-6-2.65-8.95-1.73-5.74-2.54-8.39-1.59-5.07-2.32-7.32c-.17-.51-.33-1-.49-1.47a20.54,20.54,0,0,1-3.06,4.63,32.94,32.94,0,0,1-11.31,8.08,67.25,67.25,0,0,1-14.08,4.4c-1.94.4-4,.76-6.1,1.09a15.3,15.3,0,0,0,2.27,4.56,8.45,8.45,0,0,0,2.75,2.46,5.23,5.23,0,0,0,2.58.65,9.29,9.29,0,0,0,3.93-1,20.14,20.14,0,0,0,5.54-4.28l4.95-5.1,6.35,3.17c.3.15.68.36,1.16.63a14.32,14.32,0,0,1,2.06,1.42,14,14,0,0,1,2.07,2.07,10.65,10.65,0,0,1,2.39,6.7,10.25,10.25,0,0,1-2.07,6.17,46.51,46.51,0,0,1-6.56,7.33,42.51,42.51,0,0,1-7.61,5.43,35.5,35.5,0,0,1-8.47,3.4,34.68,34.68,0,0,1-8.61,1.12,31.15,31.15,0,0,1-13.87-3.13,32.09,32.09,0,0,1-5.15-3.16c-2,.83-3.93,1.59-5.72,2.27s-3.71,1.35-5.3,1.85a43.35,43.35,0,0,1-5.1,1.29,28.63,28.63,0,0,1-5.06.49,21,21,0,0,1-5.28-.67,22.37,22.37,0,0,1-4.68-1.83,26.06,26.06,0,0,1-4.06-2.65c-1.1-.87-2.25-1.85-3.41-2.94a77,77,0,0,1-6.36-6.85c-2.28-2.72-4.86-6.13-7.66-10.13q-2.17-3.09-4.63-6.84l-.17,5.46q-.24,7.62-.46,15.06l-.24,8.3L945.66,487l-10.92-1.22.37-9q.52-12.56.94-23.86c.29-8.06.52-15.23.72-21.92s.34-13.85.45-20.86c.09-6.15.14-12.36.15-18.49-1,.09-2.08.23-3.31.41l-9.83,1.43-2.65-21.95,8.25-2.11c4.44-1.13,8.27-2,11.39-2.56a51.36,51.36,0,0,1,9.18-1,20.19,20.19,0,0,1,8.59,1.67,14.8,14.8,0,0,1,7,6.49,18.92,18.92,0,0,1,2.11,7.5c.13,1.72.2,3.65.2,5.75,0,.53,0,1.71-.06,3.55l-.14,5c4.15-5.69,8.12-10.66,11.81-14.77a67.43,67.43,0,0,1,11.95-10.78,26.39,26.39,0,0,1,14.94-4.94,19.7,19.7,0,0,1,6.83,1.14,16.9,16.9,0,0,1,5.73,3.46,15.35,15.35,0,0,1,3.93,5.87,16.86,16.86,0,0,1,1.06,6,19.65,19.65,0,0,1-7.67,15.42l-2.62,2h-7.87s-2.92-3.15-2.95-3.17a7.35,7.35,0,0,0-1.94,1,45.22,45.22,0,0,0-6.88,6.15,125.06,125.06,0,0,0-8.51,10.17c-1.89,2.49-3.86,5.15-5.87,7.9,2.37,4,4.57,7.53,6.55,10.63,2.86,4.48,5.5,8.41,7.84,11.68s4.37,5.92,6.18,8.07,3.44,4,4.92,5.45a34.68,34.68,0,0,0,2.66,2.42,10.81,10.81,0,0,0,1.63,1.13,3.38,3.38,0,0,0,.46.22,41.91,41.91,0,0,1-1.18-10,53.9,53.9,0,0,1,4.88-22.29,50.87,50.87,0,0,1,5.85-9.73,43,43,0,0,1,8.21-8.18,39.24,39.24,0,0,1,10.38-5.59,36.33,36.33,0,0,1,12.19-2.11,31.79,31.79,0,0,1,9.16,1.29,25.91,25.91,0,0,1,6.54,3c1-.35,2-.68,2.91-1,1.9-.59,3.55-1.07,5.07-1.47s3.14-.79,4.52-1a24,24,0,0,1,4.38-.47,15.85,15.85,0,0,1,5.62,1,15.52,15.52,0,0,1,5.39,3.57,20.75,20.75,0,0,1,3.62,5,40.51,40.51,0,0,1,2.42,5.7c.43,1.15,1,2.7,1.53,4.45s1.2,3.71,1.92,6.07c.4,1.34.83,2.76,1.27,4.24q1.83-4.67,3.65-9.26,2.46-6.19,4.74-11.86a13.9,13.9,0,0,1,3.59-5.17,15.4,15.4,0,0,1,4-2.62,17.32,17.32,0,0,1,4.06-1.23,20.87,20.87,0,0,1,3.36-.28,19.43,19.43,0,0,1,5.66.83,26.5,26.5,0,0,1,4.08,1.63l9.48,4.74-5.56,9c-1.25,2-2.53,4.26-3.81,6.62s-2.71,5.11-4.21,8.08-2.91,5.9-4.35,9-2.92,6.3-4.4,9.64c-1.35,3-2.77,6.27-4.34,9.92s-2.86,6.74-4.11,9.79-2.59,6.36-3.79,9.51-2.42,6.37-3.6,9.39-2.34,6-3.47,8.81c-1.21,3-2.45,5.82-3.69,8.39a74.48,74.48,0,0,1-4.13,7.32,36.08,36.08,0,0,1-5.67,6.84,28.1,28.1,0,0,1-7.65,5.1A24.24,24.24,0,0,1,1074.76,529.63Z"/><path class="cls-2" d="M1006.75,367.56a17.43,17.43,0,0,1,6.06,1,14.66,14.66,0,0,1,5,3,13.09,13.09,0,0,1,3.35,5,14.58,14.58,0,0,1,.92,5.17,17.39,17.39,0,0,1-6.8,13.64l-2,1.54h-6.13l-2.21-2.38a3.24,3.24,0,0,0-.71-.63,2.87,2.87,0,0,0-.9-.18c-.37,0-1.42.14-3.32,1.45a46.23,46.23,0,0,0-7.25,6.46A127.78,127.78,0,0,0,984.07,412c-2.19,2.89-4.46,5.95-6.77,9.14,2.65,4.46,5.11,8.48,7.35,12,2.88,4.51,5.54,8.47,7.9,11.77s4.44,6,6.28,8.21,3.54,4.06,5.06,5.59c1,1,2,1.9,2.84,2.59a13.65,13.65,0,0,0,2,1.35,4.79,4.79,0,0,0,1.13.47,4.55,4.55,0,0,0,1.13.13,9,9,0,0,0,2-.26l.19,0a39.63,39.63,0,0,1-1.84-12,50.62,50.62,0,0,1,1.2-10.93,51.21,51.21,0,0,1,3.47-10.42,48.88,48.88,0,0,1,5.6-9.3,40.44,40.44,0,0,1,7.77-7.75,37.18,37.18,0,0,1,9.79-5.28,34.23,34.23,0,0,1,11.43-2,30,30,0,0,1,8.52,1.19,23.92,23.92,0,0,1,6.87,3.32c1.31-.46,2.62-.93,3.89-1.32,1.79-.56,3.45-1.05,5-1.45s3.09-.76,4.36-1a22.21,22.21,0,0,1,4-.43,13.32,13.32,0,0,1,4.81.89,13.11,13.11,0,0,1,4.61,3.05,18.67,18.67,0,0,1,3.22,4.49,37.61,37.61,0,0,1,2.29,5.38c.39,1.06.91,2.57,1.51,4.41s1.22,3.77,1.9,6,1.4,4.64,2.16,7.26c.32,1.08.64,2.17.95,3.29l1.14-2.92c1.65-4.19,3.29-8.36,4.92-12.48s3.22-8.08,4.73-11.85a11.71,11.71,0,0,1,3-4.33,12.76,12.76,0,0,1,3.44-2.24,14.92,14.92,0,0,1,3.52-1.07,17.46,17.46,0,0,1,3-.25,17.26,17.26,0,0,1,5,.73,25.1,25.1,0,0,1,3.72,1.49l7.28,3.64-4.27,6.93c-1.25,2-2.55,4.3-3.87,6.73s-2.79,5.26-4.24,8.14-2.91,5.91-4.38,9-2.95,6.39-4.42,9.68-2.92,6.62-4.35,9.95-2.79,6.59-4.12,9.82-2.61,6.43-3.81,9.57-2.42,6.36-3.59,9.38-2.34,6-3.47,8.78-2.41,5.73-3.63,8.25a66.39,66.39,0,0,1-4,7.07,33.86,33.86,0,0,1-5.32,6.43,26,26,0,0,1-7,4.69,22.17,22.17,0,0,1-9.09,1.87,19.3,19.3,0,0,1-6-.92,16.72,16.72,0,0,1-5-2.61,13.71,13.71,0,0,1-3.83-4.55,12.73,12.73,0,0,1-1.45-5.92,13.57,13.57,0,0,1,1.78-6.59,13.06,13.06,0,0,1,5.12-5.22l3.83-2.16,3.74,2.31a5.72,5.72,0,0,0,1.64.74,6.43,6.43,0,0,0,1.51.24,3.36,3.36,0,0,0,2.08-.59,12.61,12.61,0,0,0,3.18-3.69,60.38,60.38,0,0,0,4.35-8.67c1.28-3,2.69-6.51,4.19-10.37l-.29-1.09c-.75-2.75-1.56-5.62-2.41-8.63s-1.72-6-2.6-9.07-1.77-6-2.65-9-1.73-5.75-2.55-8.4-1.6-5.09-2.33-7.35-1.36-4.13-1.93-5.74c-.36-1-.66-1.74-.91-2.31a18.91,18.91,0,0,1-4.54,10.42,30.59,30.59,0,0,1-10.55,7.51,65.13,65.13,0,0,1-13.61,4.25q-4,.83-8.45,1.42c.15.75.34,1.48.55,2.17a18.06,18.06,0,0,0,2.73,5.62,10.93,10.93,0,0,0,3.47,3.08,7.59,7.59,0,0,0,3.66.92,11.47,11.47,0,0,0,4.89-1.24,22,22,0,0,0,6.19-4.75l3.8-3.91,4.88,2.43c.28.14.62.33,1.06.57a14.47,14.47,0,0,1,1.75,1.21,11.38,11.38,0,0,1,1.73,1.74,8.41,8.41,0,0,1,1.9,5.29,8.06,8.06,0,0,1-1.62,4.82,43.75,43.75,0,0,1-6.26,7,40.6,40.6,0,0,1-7.2,5.15,34.06,34.06,0,0,1-7.94,3.18,32,32,0,0,1-8,1.05,29.07,29.07,0,0,1-12.88-2.9,30.8,30.8,0,0,1-5.8-3.72l-.89.37q-3.27,1.36-6,2.38t-5.17,1.8a39.76,39.76,0,0,1-4.83,1.22,26.14,26.14,0,0,1-4.66.46,18.71,18.71,0,0,1-4.71-.6,19.34,19.34,0,0,1-4.2-1.64,24.87,24.87,0,0,1-3.72-2.43c-1-.81-2.12-1.74-3.26-2.81a74,74,0,0,1-6.17-6.65c-2.24-2.67-4.78-6-7.55-10-2.54-3.63-5.4-7.95-8.5-12.87l-.39,12.71q-.24,7.62-.46,15.07l-.19,6.37-17.54,2.22-8.58-.95.29-7q.52-12.55.94-23.86T939,431q.32-10.62.46-20.9t.15-20.73v-.18a49.56,49.56,0,0,0-5.88.57l-7.56,1.1-2.13-17.7,6.34-1.62c4.38-1.11,8.16-2,11.24-2.53a48.93,48.93,0,0,1,8.77-.94,17.94,17.94,0,0,1,7.65,1.46,12.62,12.62,0,0,1,5.91,5.52,16.64,16.64,0,0,1,1.85,6.61c.13,1.65.19,3.52.19,5.57,0,.52,0,1.69-.06,3.5l-.18,6.62c0,1.72-.1,3.61-.16,5.66l4-5.6a186.26,186.26,0,0,1,11.89-14.91,65.59,65.59,0,0,1,11.54-10.43,24.22,24.22,0,0,1,13.68-4.55m32.33,64.56a28.06,28.06,0,0,0,6.28-2.09,7,7,0,0,0,2.57-1.87,1.12,1.12,0,0,0,.26-.81,2.93,2.93,0,0,0-.18-1.07,1.84,1.84,0,0,0-.39-.65,1.18,1.18,0,0,0-.44-.3,1.3,1.3,0,0,0-.54-.09,5.46,5.46,0,0,0-2.18.38,7,7,0,0,0-2,1.32,12,12,0,0,0-2,2.47,21,21,0,0,0-1.4,2.71m-32.33-69.06a28.6,28.6,0,0,0-16.21,5.33,69.34,69.34,0,0,0-12.35,11.14c-2.46,2.73-5,5.84-7.71,9.29,0-.74,0-1.23,0-1.55,0-2.16-.07-4.16-.21-5.92a21,21,0,0,0-2.37-8.39,17.07,17.07,0,0,0-8-7.48,22.36,22.36,0,0,0-9.53-1.87,53.16,53.16,0,0,0-9.59,1c-3.17.58-7,1.45-11.53,2.59l-6.34,1.62-3.83,1,.48,3.92,2.13,17.7.55,4.58,4.56-.67,7.56-1.1.72-.1c0,5.31-.06,10.65-.14,15.93-.11,7-.26,14-.45,20.83s-.43,13.93-.72,21.9-.61,15.94-.94,23.84l-.29,7-.17,4.2,4.17.46,8.58,1,.53,0,.53-.06L963.76,487l3.82-.49.11-3.85.19-6.37q.2-6.7.41-13.54l.76,1.08c2.84,4.06,5.46,7.52,7.78,10.29a77.34,77.34,0,0,0,6.56,7.06c1.19,1.12,2.39,2.15,3.55,3.05a29.33,29.33,0,0,0,4.4,2.88,24.11,24.11,0,0,0,5.14,2,22.8,22.8,0,0,0,5.86.75,30.36,30.36,0,0,0,5.47-.53,45.49,45.49,0,0,0,5.37-1.36c1.63-.51,3.41-1.12,5.41-1.88,1.47-.56,3-1.17,4.63-1.83a34.28,34.28,0,0,0,4.46,2.63,33.46,33.46,0,0,0,14.86,3.36,36.76,36.76,0,0,0,9.17-1.19,38.09,38.09,0,0,0,9-3.61,44.43,44.43,0,0,0,8-5.72,47.74,47.74,0,0,0,6.9-7.71,12.42,12.42,0,0,0,2.49-7.47,12.81,12.81,0,0,0-2.89-8.1,15.69,15.69,0,0,0-2.4-2.42,17.85,17.85,0,0,0-2.32-1.6c-.51-.29-.93-.52-1.3-.7l-4.89-2.45-1.1-.55a33.78,33.78,0,0,0,9.78-7.53c.25-.28.48-.56.71-.85.42,1.31.85,2.71,1.32,4.2.86,2.79,1.71,5.6,2.54,8.36s1.68,5.67,2.64,8.94l2.6,9.06c.87,3.09,1.62,5.79,2.29,8.22-1.28,3.27-2.49,6.25-3.6,8.89a57.5,57.5,0,0,1-4,8,12,12,0,0,1-1.64,2.13l-.22,0h0a2.8,2.8,0,0,1-.38-.2l-3.74-2.32-2.26-1.39-2.32,1.3-3.83,2.15a17.61,17.61,0,0,0-6.86,7,18,18,0,0,0-2.33,8.75,17.21,17.21,0,0,0,1.95,8,18.27,18.27,0,0,0,5.07,6,21.48,21.48,0,0,0,6.39,3.34,23.77,23.77,0,0,0,7.45,1.14,26.63,26.63,0,0,0,10.93-2.26,30.28,30.28,0,0,0,8.26-5.51,38.17,38.17,0,0,0,6-7.27,74.71,74.71,0,0,0,4.25-7.53c1.27-2.64,2.53-5.51,3.76-8.55s2.38-6,3.49-8.85,2.37-6.16,3.61-9.4,2.44-6.28,3.76-9.44,2.58-6.23,4.1-9.79,3-6.86,4.32-9.88c1.47-3.29,2.94-6.52,4.39-9.6s2.88-6.06,4.32-8.93,2.86-5.59,4.18-8,2.52-4.53,3.74-6.52l4.27-6.92,2.58-4.19-4.39-2.2-7.28-3.64a28.71,28.71,0,0,0-4.42-1.77,21.65,21.65,0,0,0-6.33-.93,22.3,22.3,0,0,0-3.74.32,19.25,19.25,0,0,0-4.6,1.39,17.52,17.52,0,0,0-4.63,3,16.14,16.14,0,0,0-4.14,6c-1.55,3.83-3.14,7.83-4.75,11.89-.43,1.08-.86,2.16-1.28,3.24-.48-1.53-.92-2.93-1.33-4.17-.58-1.76-1.11-3.32-1.56-4.52a42.09,42.09,0,0,0-2.55-6,23,23,0,0,0-4-5.55,17.58,17.58,0,0,0-6.18-4.07,17.88,17.88,0,0,0-6.43-1.19,25.65,25.65,0,0,0-4.78.51c-1.45.26-3,.63-4.71,1.08s-3.23.89-5.15,1.49q-1,.31-2,.66a28,28,0,0,0-6.16-2.67,34.14,34.14,0,0,0-9.8-1.38,38.54,38.54,0,0,0-13,2.24,41.3,41.3,0,0,0-11,5.92,45.05,45.05,0,0,0-8.63,8.6,53.36,53.36,0,0,0-6.12,10.16A56.47,56.47,0,0,0,1008.1,439a55.68,55.68,0,0,0-1.3,11.9c0,1.53.08,3.05.23,4.56-1.43-1.43-3-3.2-4.75-5.25s-3.81-4.78-6.07-7.94-4.93-7.14-7.77-11.58c-1.76-2.75-3.69-5.87-5.75-9.3,1.7-2.32,3.36-4.55,5-6.66a126.54,126.54,0,0,1,8.36-10,42.65,42.65,0,0,1,6.52-5.84l.17-.11,1.12,1.21,1.34,1.44h9.61l1.21-.93,2-1.54a21.85,21.85,0,0,0,8.56-17.21,19.18,19.18,0,0,0-1.21-6.76,17.59,17.59,0,0,0-4.48-6.69,19.14,19.14,0,0,0-6.5-3.94,22,22,0,0,0-7.61-1.28ZM1043,455c1.16-.2,2.29-.42,3.39-.65a72.75,72.75,0,0,0,12-3.45l-3,3.14a17.47,17.47,0,0,1-4.87,3.81,7.19,7.19,0,0,1-3,.81,3,3,0,0,1-1.51-.38,6.37,6.37,0,0,1-2-1.83,11.2,11.2,0,0,1-.9-1.45Z"/><path class="cls-5" d="M1006.75,370.56a14.6,14.6,0,0,1,5,.81,11.55,11.55,0,0,1,4,2.38,10,10,0,0,1,2.6,3.87,11.47,11.47,0,0,1,.73,4.11,14,14,0,0,1-1.44,6.11,14.19,14.19,0,0,1-4.18,5.15l-1.2.92h-3.8l-1.32-1.43a4.81,4.81,0,0,0-2.06-1.46,5.73,5.73,0,0,0-1.75-.3,9.39,9.39,0,0,0-5,2,50.34,50.34,0,0,0-7.73,6.87,131.92,131.92,0,0,0-8.86,10.6c-2.18,2.87-4.47,6-6.81,9.18l-1.16,1.6,1,1.7c2.68,4.51,5.17,8.56,7.4,12.05,2.91,4.55,5.6,8.56,8,11.9s4.53,6.14,6.42,8.4,3.65,4.19,5.24,5.78a39.11,39.11,0,0,0,3.07,2.79,15.88,15.88,0,0,0,2.41,1.66,7.68,7.68,0,0,0,1.81.74,7.25,7.25,0,0,0,1.89.23,12.42,12.42,0,0,0,2.66-.33l.2-.05,3.17-.73-1-3.1a36.6,36.6,0,0,1-1.7-11.12,47.84,47.84,0,0,1,1.13-10.29,48.51,48.51,0,0,1,3.27-9.81A45.57,45.57,0,0,1,1024,422a37.32,37.32,0,0,1,7.2-7.17,33.71,33.71,0,0,1,9-4.85,30.92,30.92,0,0,1,10.41-1.8,26.71,26.71,0,0,1,7.66,1.07,21,21,0,0,1,6,2.9l1.25.88,1.45-.51.35-.12c1.15-.4,2.34-.82,3.44-1.17,1.81-.56,3.4-1,4.85-1.41s2.89-.72,4.13-.95a19.12,19.12,0,0,1,3.43-.38,10,10,0,0,1,7.3,3.06,15.53,15.53,0,0,1,2.69,3.78,35.66,35.66,0,0,1,2.11,5v.05c.4,1.1.93,2.62,1.47,4.3s1.19,3.71,1.88,6c.64,2.08,1.34,4.45,2.16,7.23.31,1.07.62,2.16.93,3.26l2.44,8.6,3.25-8.32.81-2.08.32-.83,4.92-12.48c1.6-4,3.19-8,4.72-11.82a8.74,8.74,0,0,1,2.25-3.24,10,10,0,0,1,2.64-1.72,11.33,11.33,0,0,1,2.8-.85,14.74,14.74,0,0,1,2.48-.21,14.13,14.13,0,0,1,4.13.6,22.15,22.15,0,0,1,3.26,1.3l4.35,2.18-2.55,4.14c-1.3,2.11-2.63,4.42-4,6.87s-2.76,5.18-4.29,8.22-3,6-4.42,9.12-2.95,6.4-4.44,9.73c-1.36,3-2.78,6.31-4.37,10s-2.88,6.81-4.13,9.85c-1.34,3.22-2.63,6.47-3.84,9.66s-2.42,6.34-3.59,9.36c-1.1,2.84-2.23,5.7-3.45,8.74s-2.36,5.61-3.54,8a65.94,65.94,0,0,1-3.82,6.78,30.56,30.56,0,0,1-4.85,5.85,22.58,22.58,0,0,1-6.21,4.15,19.12,19.12,0,0,1-7.86,1.61,16.28,16.28,0,0,1-5.1-.77,13.84,13.84,0,0,1-4.14-2.13,10.93,10.93,0,0,1-3-3.56,9.73,9.73,0,0,1-1.11-4.54,10.58,10.58,0,0,1,1.41-5.15,10.16,10.16,0,0,1,4-4.05l2.29-1.29,2.23,1.38a9.39,9.39,0,0,0,4.73,1.43,6.39,6.39,0,0,0,3.8-1.13,15.86,15.86,0,0,0,4-4.55,64.77,64.77,0,0,0,4.58-9.1c1.29-3.06,2.71-6.58,4.22-10.45l.36-.93-.26-1-.3-1.09c-.69-2.55-1.48-5.38-2.41-8.66q-1.29-4.51-2.61-9.09c-1-3.29-1.83-6.24-2.66-9s-1.69-5.61-2.56-8.43-1.62-5.18-2.34-7.39c-.77-2.36-1.41-4.25-2-5.82-.33-.94-.65-1.76-1-2.51l-4.47-10.16-1.26,11a15.79,15.79,0,0,1-3.82,8.78,27.6,27.6,0,0,1-9.53,6.76,61.77,61.77,0,0,1-13,4c-2.58.53-5.36,1-8.25,1.39l-3.17.43.63,3.14c.17.84.38,1.66.62,2.45a21.19,21.19,0,0,0,3.21,6.55,13.61,13.61,0,0,0,4.43,3.9,10.46,10.46,0,0,0,5.09,1.29,14.5,14.5,0,0,0,6.17-1.52,25.33,25.33,0,0,0,7.07-5.38l2.27-2.34,2.9,1.45c.24.12.54.28.89.48a11.87,11.87,0,0,1,1.38.95,8.67,8.67,0,0,1,1.28,1.29,5.4,5.4,0,0,1,1.24,3.41,5,5,0,0,1-1,3v0l0,0a40.09,40.09,0,0,1-5.82,6.51,37.57,37.57,0,0,1-6.65,4.76,31,31,0,0,1-7.23,2.91,29.53,29.53,0,0,1-7.31.95,26,26,0,0,1-11.56-2.59,28.1,28.1,0,0,1-5.23-3.36l-1.39-1.13-1.65.69-.89.37c-2.07.86-4.05,1.65-5.87,2.34s-3.51,1.28-5,1.75a36.3,36.3,0,0,1-4.48,1.13,22.69,22.69,0,0,1-4.11.41,15.49,15.49,0,0,1-4-.5,17.06,17.06,0,0,1-3.57-1.4,21.32,21.32,0,0,1-3.26-2.13c-1-.77-2-1.65-3.07-2.65a69.38,69.38,0,0,1-5.91-6.38c-2.19-2.61-4.68-5.89-7.4-9.78-2.5-3.56-5.33-7.85-8.41-12.74l-5.24-8.3-.3,9.81-.39,12.7q-.24,7.63-.46,15.08l-.11,3.81-14.65,1.85-5.44-.6.18-4.15c.33-7.92.64-16,.94-23.89s.52-15.17.71-21.95.35-13.9.46-20.94c.1-6.89.15-13.88.15-20.78v-3.24l-3.06.06a51.46,51.46,0,0,0-6.25.6l-4.52.66-1.44-12,3.78-1c4.32-1.1,8-1.94,11-2.49a46.37,46.37,0,0,1,8.23-.89,14.85,14.85,0,0,1,6.39,1.19,9.61,9.61,0,0,1,4.53,4.21,13.61,13.61,0,0,1,1.49,5.43c.13,1.57.19,3.36.19,5.33,0,.62,0,2.25-.06,3.42l-.18,6.62c0,1.72-.1,3.6-.16,5.65l-.31,9.86,5.74-8,4-5.58a181.81,181.81,0,0,1,11.71-14.68,61.66,61.66,0,0,1,11-9.94,21.24,21.24,0,0,1,12-4M1034,436.33l5.76-1.29a30.81,30.81,0,0,0,7-2.32,10.27,10.27,0,0,0,3.62-2.73,4.12,4.12,0,0,0,.88-2.64,5.86,5.86,0,0,0-.38-2.14,4.85,4.85,0,0,0-1-1.63h0l0,0a4.38,4.38,0,0,0-1.4-1,4.3,4.3,0,0,0-1.75-.34,8.39,8.39,0,0,0-3.38.63,9.82,9.82,0,0,0-2.86,1.89,14.69,14.69,0,0,0-2.48,3.09,24,24,0,0,0-1.59,3.07l-2.35,5.41m-27.23-68.77a24.22,24.22,0,0,0-13.68,4.55,65.59,65.59,0,0,0-11.54,10.43,186.26,186.26,0,0,0-11.89,14.91l-4,5.6c.06-2.05.12-3.94.16-5.66l.18-6.62c0-1.81.06-3,.06-3.5,0-2-.06-3.92-.19-5.57a16.64,16.64,0,0,0-1.85-6.61,12.62,12.62,0,0,0-5.91-5.52,17.94,17.94,0,0,0-7.65-1.46,48.93,48.93,0,0,0-8.77.94c-3.08.57-6.86,1.42-11.24,2.53l-6.34,1.62,2.13,17.7,7.56-1.1a49.56,49.56,0,0,1,5.88-.57v.18q0,10.47-.15,20.73T939,431q-.3,10.63-.71,21.94t-.94,23.86l-.29,7,8.58.95,17.54-2.22.19-6.37q.23-7.45.46-15.07l.39-12.71c3.1,4.92,6,9.24,8.5,12.87,2.77,3.95,5.31,7.31,7.55,10a74,74,0,0,0,6.17,6.65c1.14,1.07,2.23,2,3.26,2.81a24.87,24.87,0,0,0,3.72,2.43,19.34,19.34,0,0,0,4.2,1.64,18.71,18.71,0,0,0,4.71.6,26.14,26.14,0,0,0,4.66-.46,39.76,39.76,0,0,0,4.83-1.22q2.34-.74,5.17-1.8t6-2.38l.89-.37a30.8,30.8,0,0,0,5.8,3.72,29.07,29.07,0,0,0,12.88,2.9,32,32,0,0,0,8-1.05,34.06,34.06,0,0,0,7.94-3.18,40.6,40.6,0,0,0,7.2-5.15,43.75,43.75,0,0,0,6.26-7,8.06,8.06,0,0,0,1.62-4.82,8.41,8.41,0,0,0-1.9-5.29,11.38,11.38,0,0,0-1.73-1.74,14.47,14.47,0,0,0-1.75-1.21c-.44-.24-.78-.43-1.06-.57l-4.88-2.43-3.8,3.91a22,22,0,0,1-6.19,4.75,11.47,11.47,0,0,1-4.89,1.24,7.59,7.59,0,0,1-3.66-.92,10.93,10.93,0,0,1-3.47-3.08,18.06,18.06,0,0,1-2.73-5.62c-.21-.69-.4-1.42-.55-2.17q4.41-.6,8.45-1.42a65.13,65.13,0,0,0,13.61-4.25,30.59,30.59,0,0,0,10.55-7.51,18.91,18.91,0,0,0,4.54-10.42c.25.57.55,1.31.91,2.31.57,1.61,1.21,3.53,1.93,5.74s1.51,4.71,2.33,7.35,1.67,5.46,2.55,8.4,1.76,5.95,2.65,9,1.75,6.07,2.6,9.07,1.66,5.88,2.41,8.63l.29,1.09c-1.5,3.86-2.91,7.34-4.19,10.37a60.38,60.38,0,0,1-4.35,8.67,12.61,12.61,0,0,1-3.18,3.69,3.36,3.36,0,0,1-2.08.59,6.43,6.43,0,0,1-1.51-.24,5.72,5.72,0,0,1-1.64-.74l-3.74-2.31-3.83,2.16a13.06,13.06,0,0,0-5.12,5.22,13.57,13.57,0,0,0-1.78,6.59,12.73,12.73,0,0,0,1.45,5.92,13.71,13.71,0,0,0,3.83,4.55,16.72,16.72,0,0,0,5,2.61,19.3,19.3,0,0,0,6,.92,22.17,22.17,0,0,0,9.09-1.87,26,26,0,0,0,7-4.69,33.86,33.86,0,0,0,5.32-6.43,66.39,66.39,0,0,0,4-7.07c1.22-2.52,2.44-5.29,3.63-8.25s2.29-5.73,3.47-8.78,2.36-6.15,3.59-9.38,2.46-6.32,3.81-9.57,2.71-6.51,4.12-9.82,2.88-6.65,4.35-9.95,2.94-6.51,4.42-9.68,2.93-6.15,4.38-9,2.86-5.59,4.24-8.14,2.62-4.7,3.87-6.73l4.27-6.93-7.28-3.64a25.1,25.1,0,0,0-3.72-1.49,17.26,17.26,0,0,0-5-.73,17.46,17.46,0,0,0-3,.25,14.92,14.92,0,0,0-3.52,1.07,12.76,12.76,0,0,0-3.44,2.24,11.71,11.71,0,0,0-3,4.33q-2.27,5.66-4.73,11.85c-1.63,4.12-3.27,8.29-4.92,12.48l-1.14,2.92c-.31-1.12-.63-2.21-.95-3.29q-1.14-3.93-2.16-7.26c-.68-2.26-1.32-4.28-1.9-6s-1.12-3.35-1.51-4.41a37.61,37.61,0,0,0-2.29-5.38,18.67,18.67,0,0,0-3.22-4.49,13.11,13.11,0,0,0-4.61-3.05,13.32,13.32,0,0,0-4.81-.89,22.21,22.21,0,0,0-4,.43c-1.27.24-2.72.57-4.36,1s-3.18.89-5,1.45c-1.27.39-2.58.86-3.89,1.32a23.92,23.92,0,0,0-6.87-3.32,30,30,0,0,0-8.52-1.19,34.23,34.23,0,0,0-11.43,2,37.18,37.18,0,0,0-9.79,5.28,40.44,40.44,0,0,0-7.77,7.75,48.88,48.88,0,0,0-5.6,9.3,51.21,51.21,0,0,0-3.47,10.42,50.62,50.62,0,0,0-1.2,10.93,39.63,39.63,0,0,0,1.84,12l-.19,0a9,9,0,0,1-2,.26,4.55,4.55,0,0,1-1.13-.13,4.79,4.79,0,0,1-1.13-.47,13.65,13.65,0,0,1-2-1.35c-.85-.69-1.8-1.56-2.84-2.59-1.52-1.53-3.23-3.41-5.06-5.59s-4-5-6.28-8.21-5-7.26-7.9-11.77c-2.24-3.49-4.7-7.51-7.35-12,2.31-3.19,4.58-6.25,6.77-9.14a127.78,127.78,0,0,1,8.66-10.35,46.23,46.23,0,0,1,7.25-6.46c1.9-1.31,2.95-1.45,3.32-1.45a2.87,2.87,0,0,1,.9.18,3.24,3.24,0,0,1,.71.63l2.21,2.38h6.13l2-1.54a17.39,17.39,0,0,0,6.8-13.64,14.58,14.58,0,0,0-.92-5.17,13.09,13.09,0,0,0-3.35-5,14.66,14.66,0,0,0-5-3,17.43,17.43,0,0,0-6.06-1Zm32.33,64.56a21,21,0,0,1,1.4-2.71,12,12,0,0,1,2-2.47,7,7,0,0,1,2-1.32,5.46,5.46,0,0,1,2.18-.38,1.3,1.3,0,0,1,.54.09,1.18,1.18,0,0,1,.44.3,1.84,1.84,0,0,1,.39.65,2.93,2.93,0,0,1,.18,1.07,1.12,1.12,0,0,1-.26.81,7,7,0,0,1-2.57,1.87,28.06,28.06,0,0,1-6.28,2.09Z"/></g></svg>