<svg xmlns="http://www.w3.org/2000/svg" viewBox="0 0 1190.56 196.04">
  <g>
    <rect x="9.7" y="9.7" width="1171.16" height="176.64" rx="88.32" fill="#fff"/>
    <path d="M1092.54 196H98A98 98 0 0 1 98 0h994.52a98 98 0 0 1 0 196ZM98 19.4a78.62 78.62 0 0 0 0 157.24h994.52a78.62 78.62 0 1 0 0-157.24Z"/>
  </g>
  <g>
    <path d="M194.33 155.27h-30.8l-31.7-41.17L100 155.27H69.21l47.9-59.61L73.59 41.6h30.71l27.39 35.56 27.54-35.56H190l-43.73 54.06Zm84.78-61.09a26.88 26.88 0 0 0 10.31-21.28c0-22.84-21.79-31.3-44-31.3h-45.65v113.67h47.72c27.64 0 47.57-10.38 47.57-35 0-6.91-2.26-19.05-15.95-26.09Zm-54.73-30.8h19.43c13.32 0 21.24 2 21.24 10.73 0 9.45-7.75 11.16-19.83 11.16h-20.84Zm23 70.11h-23v-26.44h21c15.75 0 24.53 2 24.53 13.22 0 3.62 0 13.22-22.57 13.22Zm76.21-49.19c-20 0-32.25 4.45-32.25 9.75 0 4.88 12.13 9.75 32.25 9.75Zm124 71h-23.87V88.18L399 155.27h-20.24L354 88.18v67.09h-23.84V41.6H361l27.8 77.69 28-77.69h30.82Zm254.22 0h-22.73L626 82.67v72.6h-23.83V41.6h22.6l53.09 72.59V41.6h23.91Zm36.07 0h-24.73V41.6h24.69Zm73 0h-24.71V63.38h-37.7V41.6h100.39v21.78h-38Zm99.41-115.48c-35.49 0-59.79 23.9-59.79 58.61s24.3 58.62 59.79 58.62c35.84 0 59.56-23.83 59.56-58.62s-23.72-58.61-59.56-58.61Zm-.15 96c-17.84 0-34.48-11.28-34.48-37.41 0-22.76 12.81-37.4 34.79-37.4 21.52 0 34.24 14.64 34.24 37.4 0 25.65-15.56 37.43-34.55 37.43ZM1074 120.41c-2.82-6.89-6.49-12.26-11-16 11.53-5.21 18.86-15.47 18.86-28.83 0-33-29.36-33.93-45.61-33.93h-55.59v113.62h24.61v-44.59h23.43a22.08 22.08 0 0 1 20.77 13.78l12 30.81h26.66Zm-39.5-31.52h-29.23V62.45h31.58c19.9 0 19.9 9.17 19.9 13.08 0 7.38-1.28 13.36-22.25 13.36Zm88.41 47.45h-16V114h-22.31V98h22.31V75.67h16V98h22.32v16h-22.32Z"/>
    <g>
      <path d="M591.93 98.81A67.25 67.25 0 1 0 512.78 165v-23a44.8 44.8 0 1 1 23.8 0v23a67.25 67.25 0 0 0 55.35-66.19Z"/>
      <g>
        <circle cx="524.68" cy="98.81" r="33.35" transform="rotate(-45 524.68735714 98.80738067)" fill="#dc1414"/>
        <ellipse cx="512.46" cy="82.27" rx="13.07" ry="10.29" transform="rotate(-35.3 512.39866978 82.27087826)" fill="#fff"/>
      </g>
    </g>
  </g>
</svg>