<svg xmlns="http://www.w3.org/2000/svg" viewBox="0 0 1197.64 531.88">
  <g>
    <g>
      <path d="M82 345.9c-18 0-40-17.77-40-38.51 0-25.28 14.14-45.86 31.53-45.86a12.13 12.13 0 0 1 7.51 2.8c6.43-34.38 6.8-66.45 6.48-82.09l-41.65 61.27L72 149.85l-61.61 7.36 54.4-38.42L9.47 66.63l68.74 25-7.62-79 33.83 71.67 44.41-66.42-20.22 82.48 63.81-4.08-25.81 14.52c1.1 0 2.29.07 3.65.13 1.88.09 4 .19 6.47.19a91 91 0 0 0 17.36-1.73c3.53-.69 6.71-1.57 9.51-2.35 4.3-1.2 8-2.24 11.67-2.24a16.43 16.43 0 0 1 7.86 1.94c6.67 3.54 9.35 10.37 10 12.38 2.42 7.35-3.77 14.27-10.32 21.59-5.61 6.27-11.41 12.76-11.41 19.17v147.63c0 7.57 0 25.29-7.67 33a12.29 12.29 0 0 1-9 3.72c-10.67 0-16.82-9.39-28.31-30.81L124 233.48v35.17c0 22.27-4 41.42-11.44 55.4S94.17 345.9 82 345.9Zm93.11-129.75v-36.77l-27.36-10Zm0-46.58v-9.69c0-10.06-6.62-16-12.46-21.29-6.46-5.82-13.11-11.81-7.2-21.52l-20.13 11.31Z" fill="#7dc8f5"/>
      <path d="m74.07 25.29 30 63.58 39.53-59.11-17.91 73.05 57-3.64-51 28.68 45.7 47.29v-15.26c0-23.84-33-26-18.06-44.37 1.69-2 3.8-2.46 6.94-2.46 2.64 0 6 .32 10.47.32a92.11 92.11 0 0 0 17.79-1.77c8.86-1.72 15.08-4.55 20.75-4.55a14.09 14.09 0 0 1 6.81 1.68c6.14 3.26 8.46 9.69 8.92 11.1 3.94 11.94-21.84 25.15-21.84 40.05v147c0 8.31.38 35.08-14.4 35.08-9.44 0-15.17-8.82-26.32-29.62l-46.69-87.91v44.2c0 44.89-16.54 75-39.73 75-17.48 0-37.75-17.11-37.75-36.26 0-24.52 13.61-43.61 29.28-43.61 3 0 5.71 1.53 9 4.87 6.84-34.24 8.07-70.24 7.06-93.4l-37.9 55.68 23.34-83.69-56.12 6.7L68.32 119 18.94 72.47 80.79 95l-6.72-69.71m103.31 199.16v-46.64l-34.72-12.66 34.72 59.3M67.11 0l2.48 25.72 6 62.57-55.11-20.05L0 60.8l15.85 14.94 45.38 42.8-44.89 31.71L1.83 160.5l17.64-2.11 49.45-5.91-21.54 77.22L40 256.11l15.42-22.67 29.93-44a416.19 416.19 0 0 1-5.93 71.24 13.38 13.38 0 0 0-5.89-1.39c-18.63 0-33.78 21.59-33.78 48.11 0 10.14 5 20.57 13.77 28.62 8.26 7.6 18.91 12.14 28.48 12.14 13 0 24.57-8.18 32.53-23 7.65-14.3 11.7-33.82 11.7-56.46v-26.18l38.21 72c11 20.45 17.77 32 30.3 32a14.67 14.67 0 0 0 10.57-4.38c8.36-8.37 8.34-26.75 8.33-34.6V159.88c0-5.56 5.51-11.71 10.84-17.67 6.69-7.48 13.6-15.21 10.78-23.79-.94-2.84-3.89-9.84-11.09-13.67a18.59 18.59 0 0 0-8.92-2.2c-4 0-7.82 1.08-12.28 2.32-2.89.81-5.88 1.64-9.33 2.31a88.08 88.08 0 0 1-16.93 1.69h-2.06l10.25-5.76 17.21-9.67-19.7 1.26-50.91 3.24L148 30.83 154.05 6l-14.19 21.26-35.1 52.5-26.62-56.39L67.11 0ZM139 128.92l12.15-6.83a13 13 0 0 0 .8 7.09c1.71 4.3 5.36 7.59 9.23 11.08 5.76 5.19 11.73 10.56 11.73 19.62V164L139 128.92Zm33.91 78.94-20-34.21 5.63 2 14.4 5.25v26.91Z" fill="#303030"/>
      <path d="m81 50.57 19 40.22a4.49 4.49 0 0 0 3.73 2.57h.34a4.52 4.52 0 0 0 3.74-2l25.32-37.88-11.83 48.24a4.51 4.51 0 0 0 4.37 5.58h.33l37.32-2.39-33.82 19a4.5 4.5 0 0 0-1 7l36.09 37.36-3-1.09-17.36-6.33a4.31 4.31 0 0 0-1.54-.27 4.5 4.5 0 0 0-3.88 6.77l34.71 59.3a4.49 4.49 0 0 0 3.88 2.23 4.3 4.3 0 0 0 1.18-.16 4.5 4.5 0 0 0 3.33-4.34v-46.57a4.32 4.32 0 0 0-.21-1.34 4.21 4.21 0 0 0 .21-1.33v-15.26c0-13.06-8.5-20.72-14.71-26.31-7.63-6.88-9.43-8.95-4.38-15.2.35-.41.76-.82 3.47-.82 1 0 2.26.06 3.68.12 1.95.1 4.17.2 6.79.2a97 97 0 0 0 18.61-1.87c3.8-.73 7.12-1.66 10-2.47 3.82-1.07 7.12-2 9.86-2a9.64 9.64 0 0 1 4.77 1.17c4.45 2.36 6.3 7.13 6.77 8.54 1.2 3.64-4 9.4-8.94 15-6.15 6.88-13.13 14.68-13.13 23.67v147.6c0 5.57 0 22.5-5.7 28.23a5.62 5.62 0 0 1-4.2 1.74c-6.58 0-11.58-7.14-22.35-27.23l-46.69-87.91a4.5 4.5 0 0 0-8.47 2.11v44.2c0 20.86-3.78 39.4-10.64 52.21-4.46 8.34-12.36 18.29-24.59 18.29-14.66 0-33.25-14.95-33.25-31.76 0-21.2 11.35-39.11 24.78-39.11 1.08 0 2.71.4 5.74 3.51a4.47 4.47 0 0 0 3.22 1.36 4.65 4.65 0 0 0 1.28-.18 4.48 4.48 0 0 0 3.13-3.43c8.58-43 7.64-83.18 7.15-94.48a4.5 4.5 0 0 0-3.27-4.14 4.68 4.68 0 0 0-1.23-.17 4.52 4.52 0 0 0-3.72 2l-22.43 33 16-57.27a4.5 4.5 0 0 0-4.34-5.71 4.71 4.71 0 0 0-.53 0l-38.48 4.6 34.87-24.63a4.5 4.5 0 0 0 .49-7l-33.59-31.6 41.38 15a4.49 4.49 0 0 0 6-4.66L81 50.57m-7-25.28L80.79 95 18.94 72.47 68.32 119l-49.38 34.92 56.12-6.7-23.34 83.69 37.85-55.66c1 23.16-.22 59.16-7.06 93.4-3.25-3.34-6-4.87-9-4.87-15.67 0-29.28 19.09-29.28 43.61 0 19.15 20.27 36.26 37.75 36.26 23.19 0 39.73-30.11 39.73-75v-44.2l46.69 87.91c11.15 20.8 16.88 29.62 26.32 29.62 14.78 0 14.4-26.77 14.4-35.08v-147c0-14.9 25.78-28.11 21.84-40-.46-1.41-2.78-7.84-8.92-11.1a14.09 14.09 0 0 0-6.81-1.68c-5.67 0-11.89 2.83-20.75 4.55a92.11 92.11 0 0 1-17.79 1.77c-4.45 0-7.83-.32-10.47-.32-3.14 0-5.25.45-6.94 2.46-14.9 18.37 18.06 20.53 18.06 44.37v15.26l-45.7-47.29 51-28.68-57 3.64 17.91-73-39.46 58.99-30-63.58Zm103.38 199.16-34.72-59.3 34.72 12.66v46.64Z" fill="#79c8cd"/>
    </g>
    <g>
      <path d="M286.14 345.4c-21.45 0-33.3-3.9-36.24-11.92-3.54-9.66 8.14-21.16 11.4-24.12v-80c-4.94-1.65-13.83-6.79-13.83-17.44 0-14.56 8.21-16.62 21.81-20 2-.51 4.24-1.06 6.59-1.7l5.79-1.56a29.09 29.09 0 1 1 19.11-4c6.35.19 10 4.88 10 12.93v111.8c3.12 3 14.32 14.53 10.66 24.18-3.04 7.96-14.58 11.83-35.29 11.83Z" fill="#7dc8f5"/>
      <path d="M285.65 133.06a26.82 26.82 0 1 1-26.82 26.82 26.82 26.82 0 0 1 26.82-26.82M300.38 187c6.83 0 8.11 6.09 8.11 10.68v112.69s37 32.78-22.35 32.78c-61.33 0-22.59-32.78-22.59-32.78v-82.69c-1.2-.23-13.83-3.72-13.83-15.72 0-14.75 8.8-14.71 26.74-19.54 12.87-3.42 19.92-5.42 23.92-5.42m-14.73-58.39a31.32 31.32 0 0 0-12.45 60.06c-1.55.41-3 .77-4.46 1.14-13.66 3.41-23.52 5.88-23.52 22.2 0 10.88 8.19 16.64 13.83 19v77.43c-4.37 4.09-15.07 15.5-11.27 25.88 3.31 9 15.86 13.4 38.36 13.4 21.76 0 34-4.34 37.37-13.28 3.93-10.36-6.34-21.84-10.52-25.94V197.63c0-6.95-2.52-11.85-7-14a31.3 31.3 0 0 0-20.38-55.08Z" fill="#303030"/>
      <path d="M285.65 137.56a22.32 22.32 0 1 1-22.32 22.32 22.35 22.35 0 0 1 22.32-22.32m14.73 53.89c1.26 0 3.61 0 3.61 6.18v112.74a4.53 4.53 0 0 0 1.52 3.37c3.95 3.52 11.5 12.42 9.58 17.45-.85 2.24-5.38 7.46-28.95 7.46-25.19 0-29.26-5.73-29.9-7.49-1.84-5 6.09-13.85 10.21-17.35a4.52 4.52 0 0 0 1.6-3.44v-82.69a4.46 4.46 0 0 0-3.62-4.41c-.1 0-10.21-2.35-10.21-11.31 0-5.73 1.51-7.63 3.15-8.82 2.63-1.92 7.45-3.13 13.55-4.65 2-.51 4.3-1.08 6.71-1.73l3.1-.84c10-2.69 16.58-4.47 19.65-4.47m-14.73-58.39a26.82 26.82 0 1 0 26.82 26.82 26.82 26.82 0 0 0-26.82-26.82ZM300.38 187c-4 0-11.05 2-23.92 5.47-17.94 4.83-26.74 4.79-26.74 19.54 0 12 12.63 15.49 13.83 15.72v82.69s-38.74 32.78 22.59 32.78c59.36 0 22.35-32.78 22.35-32.78V197.63c0-4.59-1.28-10.68-8.11-10.68Z" fill="#79c8cd"/>
    </g>
    <g>
      <path d="M394.63 346.19c-13.76 0-28.38-7-39.1-18.69-9.48-10.35-20.78-29.64-20.78-62.79 0-21.84 5.24-43.27 14.37-58.8 11.94-20.29 30.44-31 53.51-31 41.58 0 44 33.57 44.08 40.3 0 30.49-24.88 47.34-42.09 47.34-10.89 0-19.24-8.28-23.32-17.14-.82 10.64.61 22.53 6.82 30.37 4.38 5.54 10.69 8.35 18.76 8.35 9.82 0 14.21-7.65 18.09-14.41 2.93-5.1 5.7-9.93 10.59-9.93 7.6 0 14.11 14.12 14.11 25.68.24 14.93-7.38 32.5-19.4 44.72-7.19 7.28-19.22 16-35.64 16Z" fill="#7dc8f5"/>
      <path d="M402.63 177.14c38 0 41.75 29.42 41.83 38.07 0 28.5-23.08 45.07-39.84 45.07-14.25 0-23.83-15.95-23.83-26.26-5.05 21.35-1.66 52.34 26.09 52.34 18.75 0 19.87-24.34 28.68-24.34 5.32 0 11.86 11.94 11.86 23.43.39 24.26-21.42 58.49-52.79 58.49-23 0-57.63-21.48-57.63-79.23 0-37 15.63-87.57 65.63-87.57m0-4.5c-23.91 0-43.08 11.11-55.45 32.13-9.33 15.86-14.68 37.71-14.68 59.94 0 33.87 11.62 53.67 21.37 64.31 11.14 12.16 26.38 19.42 40.76 19.42 13.62 0 26.5-5.78 37.24-16.69 12.42-12.62 20.29-30.8 20.05-46.33 0-12.65-7.31-27.9-16.36-27.9-6.19 0-9.42 5.62-12.54 11.06-4.46 7.78-8.24 13.28-16.14 13.28-7.45 0-13-2.45-17-7.49-4.38-5.55-6.22-13.32-6.51-21.16l.46.6c5.6 7.07 13 11 20.79 11 10 0 21-4.91 29.35-13.13a50.47 50.47 0 0 0 15-36.44c0-4.22-.85-15-7.47-24.79-5.48-8.11-16.66-17.78-38.86-17.78Z" fill="#303030"/>
      <path d="M402.63 181.64c14.65 0 25.21 4.65 31.4 13.81 5.4 8 5.9 17.18 5.93 19.76a40.91 40.91 0 0 1-12.29 30c-6.65 6.51-15.48 10.56-23.05 10.56-11 0-19.33-13.2-19.33-21.76a4.51 4.51 0 0 0-4-4.47 4.71 4.71 0 0 0-.53 0 4.5 4.5 0 0 0-4.37 3.47c-3.42 14.46-3.53 34.39 6.41 47 5.65 7.14 14 10.91 24.06 10.91 13.73 0 19.88-10.71 23.94-17.8 1-1.74 3.62-6.3 4.66-6.53.52.21 2.39 1.58 4.38 5.7a31.72 31.72 0 0 1 3.06 13.22v.07c.21 13.05-6.81 29.09-17.46 39.91-6.29 6.39-16.74 14-30.83 14-11.9 0-24.66-6.17-34.12-16.5-12.44-13.57-19-33.71-19-58.23 0-20.67 4.9-40.86 13.44-55.38 10.81-18.37 26.85-27.69 47.69-27.69m0-4.5c-50 0-65.63 50.57-65.63 87.57 0 57.75 34.63 79.23 57.63 79.23 31.37 0 53.18-34.23 52.79-58.49 0-11.49-6.54-23.43-11.86-23.43-8.81 0-9.93 24.34-28.68 24.34-27.75 0-31.14-31-26.09-52.34 0 10.31 9.58 26.26 23.83 26.26 16.76 0 39.84-16.57 39.84-45.07-.08-8.65-3.83-38.07-41.83-38.07Z" fill="#79c8cd"/>
    </g>
    <g>
      <path d="m483.44 346.78-61 16.88 48.39-45.26-51.53-32H461a131 131 0 0 1-1.87-22.2c0-37.07 20.24-88.42 58.25-88.42 16.35 0 29.92 7.69 39.22 22.25 9.58 15 14.43 36.4 14.43 63.67 0 15.09 0 46-18.11 66.42L584.71 352l-59.06-4.56 16.06 79.25-34.53-71.23-36.81 77.39Zm44.64-64.34c3.35-1.94 5.8-5.3 7.3-10 3.21-10.17 1.23-24.91-4.22-35.26ZM497.26 245c-1 11.57 2.3 23.41 8.63 31L517 255.36a14.17 14.17 0 0 1-1.47.08c-6.01 0-12.82-3.97-18.27-10.44Z" fill="#7dc8f5"/>
      <path d="M517.38 178c31 0 51.4 28.67 51.4 83.67 0 19-.95 48-19.21 66.72l27.62 20.75-54.34-4.14L536 409.71l-28.81-59.43-32.28 67.87 11.3-74.46-55.51 15.36 43.85-41-47.35-29.39h36.49a129.64 129.64 0 0 1-2.31-24.45c0-37.84 20.66-86.17 56-86.17m8.21 107.88c19-5.46 15.91-40.65 3.79-55.65l-3.79 55.65m-19.21-6.08 15.75-29.16a9.34 9.34 0 0 1-6.56 2.51c-6.56 0-14.49-5.66-19.76-13.95-3 14.88 1.23 31.63 10.57 40.6m11-106.3c-17.67 0-33.71 11.07-45.16 31.17-9.61 16.85-15.34 39.09-15.34 59.5a134.1 134.1 0 0 0 1.48 20h-46.94l13.4 8.32 42.34 26.28-39.56 37-13.37 12.51 17.65-4.89 48.81-13.51-10.26 67.61-4.57 30.1 13.08-27.5 28.26-59.4 24.72 51 15.53 32.05-7.07-34.91-11.94-58.88 48.41 3.74 15.39 1.19-12.35-9.28-23.71-17.81c17.1-21 17.1-51.14 17.1-66.06 0-27.71-5-49.54-14.79-64.88s-24-23.29-41.11-23.29ZM530.71 277l2-29.57c2.27 8.29 2.66 17.51.51 24.31a18.91 18.91 0 0 1-2.52 5.26Zm-25.11-5.17a43.17 43.17 0 0 1-6.21-21.37c4.38 3.93 9.27 6.46 13.92 7.1l-7.71 14.27Z" fill="#303030"/>
      <path d="M517.38 182.54c14.13 0 25.42 6.44 33.53 19.13 8.75 13.69 13.37 34.44 13.37 60 0 14.66 0 45.18-17.93 63.58a4.45 4.45 0 0 0-1.27 3.48 4.51 4.51 0 0 0 1.79 3.26l15.28 11.48-38.95-3h-.35a4.5 4.5 0 0 0-4.41 5.39l6 29.82-13.27-27.38a4.5 4.5 0 0 0-4-2.54 4.51 4.51 0 0 0-4 2.57l-19.2 40.37 6.73-44.36a4.51 4.51 0 0 0-5.65-5l-37.86 10.48 30.48-28.5a4.51 4.51 0 0 0-.7-7.11L443 293.16h20.71a4.51 4.51 0 0 0 4.43-5.35 124.12 124.12 0 0 1-2.24-23.6c0-18.91 5.29-39.49 14.16-55 6.92-12.15 19-26.63 37.34-26.63m6.38 64a4.37 4.37 0 0 0-1.63-.31 4.5 4.5 0 0 0-3.07 1.21 4.86 4.86 0 0 1-3.49 1.3c-4.88 0-11.59-5-16-11.87a4.5 4.5 0 0 0-8.21 1.52c-3.33 16.44 1.55 34.84 11.86 44.75a4.49 4.49 0 0 0 3.12 1.25 4 4 0 0 0 .69 0 4.51 4.51 0 0 0 3.27-2.31l12.6-23.33-1.84 27a4.5 4.5 0 0 0 4.49 4.81 4.33 4.33 0 0 0 1.24-.18c7.19-2.06 12.37-7.53 15-15.81 4.5-14.25.49-35.33-8.93-47a4.5 4.5 0 0 0-8 2.53l-1.13 16.52M517.38 178c-35.34 0-56 48.33-56 86.17a129.64 129.64 0 0 0 2.31 24.45H427.2L474.52 318l-43.85 41 55.51-15.36-11.3 74.46 32.28-67.87L536 409.71 522.85 345l54.34 4.19-27.62-20.75c18.26-18.74 19.21-47.72 19.21-66.72 0-55-20.4-83.67-51.4-83.67Zm8.21 107.88 3.79-55.65c12.12 15 15.25 50.19-3.79 55.65Zm-19.21-6.08c-9.34-9-13.59-25.72-10.57-40.6 5.27 8.29 13.2 13.95 19.76 13.95a9.34 9.34 0 0 0 6.56-2.51l-15.75 29.16Z" fill="#79c8cd"/>
    </g>
    <g>
      <path d="M619.9 345.4c-21.45 0-33.3-3.9-36.24-11.92-3.54-9.66 8.14-21.16 11.4-24.12V156.71c-4.74-1.77-14.58-7.63-14.58-17.67 0-12.33 14.22-18.37 29.28-24.77l3.3-1.4c13.3-5.71 18.86-8 22.94-8 6.27 0 8.51 6.36 8.51 12.32v192.2c3.11 3 14.31 14.53 10.65 24.18-3.01 7.96-14.55 11.83-35.26 11.83Z" fill="#7dc8f5"/>
      <path d="M636 107.1c6 0 6.25 8.44 6.25 10.07v193.2s37 32.78-22.35 32.78c-61.33 0-22.59-32.78-22.59-32.78V155c-2.43-.33-14.58-5.75-14.58-16 0-11.67 15.48-17.36 31.22-24.1 12.33-5.29 18.34-7.84 22-7.84m0-4.5c-4.71 0-11.1 2.74-23.83 8.2l-3.29 1.4c-7.54 3.2-14.66 6.23-20.19 10-7 4.84-10.46 10.34-10.46 16.81 0 10.28 8.85 16.61 14.58 19.18v150.22c-4.37 4.09-15.07 15.5-11.27 25.88 3.31 9 15.86 13.4 38.36 13.4 21.76 0 34-4.34 37.37-13.28 3.93-10.36-6.34-21.84-10.52-25.94V117.17c0-8.85-4.22-14.57-10.75-14.57Z" fill="#303030"/>
      <path d="M636 111.6c1.13 0 1.75 3.29 1.75 5.57v193.2a4.53 4.53 0 0 0 1.52 3.37c4 3.52 11.5 12.42 9.58 17.45-.85 2.24-5.38 7.46-29 7.46-25.19 0-29.26-5.73-29.9-7.49-1.84-5 6.09-13.85 10.21-17.35a4.52 4.52 0 0 0 1.6-3.44V155a4.5 4.5 0 0 0-3.83-4.45c-2-.43-10.75-4.71-10.75-11.55 0-7.87 12.22-13.06 25.17-18.55l3.32-1.42c10.49-4.5 17.42-7.47 20.28-7.47m0-4.5c-3.71 0-9.72 2.55-22 7.84-15.74 6.74-31.22 12.43-31.22 24.1 0 10.25 12.15 15.67 14.58 16v155.37s-38.74 32.78 22.59 32.78c59.36 0 22.35-32.78 22.35-32.78v-193.2c0-1.63-.21-10.07-6.25-10.07Z" fill="#79c8cd"/>
    </g>
    <g>
      <path d="M711.87 346.72c-43.36 0-48-40.39-48-57.76 0-5.54.79-19.75 8.1-32.16A36.67 36.67 0 0 1 691 240.44c-15.72-1.74-22.91-19.07-22.91-35.23a46.64 46.64 0 0 1 6.6-23.19c4.11-6.88 9.05-11 13.2-11 2.19 0 3.65 1.14 5.33 2.48l-34.38-28.89 61.51 16.65-13.45-81.82 34.92 66.61 38.07-56.8-17.43 74.18L819 151.79l-47.05 37.12 30.83 32.69-27.84-5.6c4.66 15.55 6.23 33.43 7.76 50.76 1.87 21.36 3.65 41.53 11 54.18.11.19.3.46.52.8 1.89 2.79 6.31 9.33 3.21 15.17-2.91 5.48-11.36 8.14-25.81 8.14-11.7 0-20.26-2.69-25.44-8a18.34 18.34 0 0 1-3.16-4.38c-3.57 7.07-12.02 14.05-31.15 14.05Zm3.2-64.76a10.14 10.14 0 0 0-1.45 5.13 9.41 9.41 0 0 0 9.78 10.33 9.4 9.4 0 0 0 8-3.92h-.27a16.94 16.94 0 0 1-16.06-11.5ZM706.74 238a72.87 72.87 0 0 1 21.81 4.25c2.49-7.64 1.24-10.06.53-10.76a2.79 2.79 0 0 0-2.14-.7c-2.77 0-7 1.82-11.56 3.75-2.75 1.19-5.65 2.46-8.64 3.46Z" fill="#7dc8f5"/>
      <path d="m711.38 92.83 30.21 57.62 33.27-49.67-15.39 65.56 50.66-10.43-41.53 32.76L796.26 218l-24.64-5c11.93 34.91 6 84.72 20.16 109.05 1.65 2.83 16.86 20.72-20.14 20.72-26.85 0-28.5-14.58-28.4-18.91q.06-.62.09-1.2a10.16 10.16 0 0 0-.09 1.2c-.84 8.66-6.38 20.6-31.37 20.6-44 0-45.79-43.51-45.79-55.51 0-17.75 7.67-48.71 39.3-48.71a70.49 70.49 0 0 1 24.54 4.94c3.7-10 2.34-13.69.74-15.28a5 5 0 0 0-3.72-1.35c-7.42 0-20.67 9.77-33.2 9.77h-.11c-16.38 0-23.3-17.87-23.3-33.12 0-16.2 10.92-31.93 17.55-31.93 3.81 0 4.87 5.87 19.35 9.07l-39.15-32.9 55 14.9-11.7-71.51m12 206.84c5 0 10.26-2.68 11.48-8.86a16 16 0 0 1-3.71.44c-7.51 0-13.73-5.52-14.87-13.64-6.58 4-6.64 15.45.21 20.1a12.43 12.43 0 0 0 6.89 2m-21-233.61 4.52 27.5 10.62 64.62-48.3-13.07-19.68-5.33 15.61 13.12 19.54 16.42c-5.67 1.92-10.14 8.46-12 11.54a48.91 48.91 0 0 0-6.92 24.35c0 14.87 5.86 30.66 18.51 35.86A40 40 0 0 0 670 255.66c-7.59 12.88-8.41 27.58-8.41 33.3 0 13.06 2.37 24.89 6.84 34.2 8.12 16.89 23.14 25.81 43.45 25.81 17.5 0 26.59-5.58 31.25-12q.68.85 1.47 1.68c5.62 5.75 14.72 8.67 27 8.67 15.58 0 24.41-3 27.79-9.34 3.74-7-1.39-14.62-3.32-17.48-.19-.28-.35-.51-.45-.67-7.11-12.22-8.87-32.15-10.72-53.25-1.42-16.14-2.88-32.74-6.84-47.63l17.27 3.49 13.89 2.81-9.72-10.3-24.29-25.75 37.67-29.72 14.92-11.77-18.62 3.83-43.76 9 13.79-58.7 5.66-24.1-13.74 20.54-29.07 43.38-26.69-50.92-13-24.68Zm13.7 170.63.14-.06c4.12-1.76 8.37-3.57 10.68-3.57a2.3 2.3 0 0 1 .58.06s.85 1.33-.46 6.27a78.08 78.08 0 0 0-10.94-2.7Zm7.28 58.48A7.93 7.93 0 0 1 719 294a7.74 7.74 0 0 1-3.13-5.77 18.9 18.9 0 0 0 9.59 6.71 9.71 9.71 0 0 1-2.1.24Z" fill="#303030"/>
      <path d="m720.34 119.61 17.26 32.93a4.5 4.5 0 0 0 3.75 2.4h.24a4.52 4.52 0 0 0 3.74-2l19.49-29.1-9.73 41.46a4.49 4.49 0 0 0 4.38 5.53 4.76 4.76 0 0 0 .91-.09l32-6.6-26.61 21a4.49 4.49 0 0 0-.48 6.62l17.94 19-10.75-2.17a4.58 4.58 0 0 0-.9-.09 4.49 4.49 0 0 0-4.25 6c5.33 15.61 7 34.55 8.6 52.87 1.95 22.13 3.79 43 11.92 57 .2.35.45.72.76 1.18 1.1 1.63 4 6 2.84 8.22-.41.76-3.27 4.56-19.85 4.56-9.67 0-16.8-2.06-20.61-6a11.49 11.49 0 0 1-3.3-8.2c0-.41.07-.82.09-1.22a4.5 4.5 0 0 0-4-4.71 3.85 3.85 0 0 0-.48 0 4.51 4.51 0 0 0-4.44 3.78 15.72 15.72 0 0 0-.14 1.63c-1.11 10.85-10.15 16.39-26.85 16.39s-28.73-7-35.34-20.71c-3.89-8.1-5.95-18.58-5.95-30.3 0-10.38 2.68-21.12 7.16-28.73 6.06-10.27 15.36-15.48 27.64-15.48a66.12 66.12 0 0 1 22.88 4.62 4.58 4.58 0 0 0 1.66.32 4.5 4.5 0 0 0 4.22-2.94c2.29-6.19 4.75-15-.31-20a9.39 9.39 0 0 0-6.89-2.66c-4.15 0-8.81 2-14.22 4.29-6 2.57-12.82 5.48-19 5.48h-.11c-14.87 0-18.8-18.72-18.8-28.62a39.77 39.77 0 0 1 5.52-19.51c3.26-5.54 6.35-7.62 7.36-7.89.33.21.89.66 1.36 1 2.67 2.13 7.14 5.68 17.19 7.9a4.09 4.09 0 0 0 1 .11 4.5 4.5 0 0 0 2.89-7.95l-23.54-19.78L722 168.7a4.77 4.77 0 0 0 1.18.15 4.49 4.49 0 0 0 4.44-5.23l-7.23-44m3.06 184.56c6.69 0 14.19-3.86 15.89-12.49a4.5 4.5 0 0 0-4.41-5.37 4.61 4.61 0 0 0-1 .12 11.66 11.66 0 0 1-2.67.32c-5.32 0-9.6-4-10.41-9.76a4.51 4.51 0 0 0-6.81-3.22 15.62 15.62 0 0 0-7.08 13.16 16.16 16.16 0 0 0 16.53 17.24m-12-211.34 11.75 71.52-55-14.9 39.15 32.9c-14.48-3.2-15.54-9.07-19.35-9.07-6.63 0-17.56 15.73-17.55 31.93 0 15.25 6.92 33.12 23.3 33.12h.11c12.53 0 25.78-9.77 33.2-9.77a5 5 0 0 1 3.72 1.35c1.6 1.59 3 5.26-.74 15.28a70.49 70.49 0 0 0-24.54-4.94c-31.63 0-39.3 31-39.3 48.71 0 12 1.8 55.51 45.79 55.51 25 0 30.53-11.94 31.37-20.6a10.16 10.16 0 0 1 .09-1.2q0 .58-.09 1.2c-.1 4.33 1.55 18.91 28.4 18.91 37 0 21.79-17.89 20.14-20.72-14.17-24.33-8.23-74.14-20.16-109l24.64 5-27.82-29.4 41.53-32.76-50.66 10.43 15.39-65.56-33.27 49.67-30.21-57.62Zm12 206.84a12.43 12.43 0 0 1-6.89-2c-6.85-4.65-6.79-16.07-.21-20.1 1.14 8.12 7.36 13.64 14.87 13.64a16 16 0 0 0 3.71-.44c-1.22 6.18-6.47 8.86-11.48 8.86Z" fill="#79c8cd"/>
    </g>
    <g>
      <path d="M902.13 345.58c-15.15 0-22.27-3.1-26.81-12.36A36.58 36.58 0 0 1 848 344.85c-38.42 0-38.42-34.67-38.42-49.48v-64.13c-5.14-1.79-14.58-7.64-14.58-17.7 0-12.32 14.34-18.41 29.52-24.87l3.06-1.3c12.83-5.5 18.68-8 23.09-8 2.51 0 8.35 1.2 8.35 12.31v12.51c4-8.25 15.73-13.24 28-18.46l3.68-1.57c12.45-5.34 18.14-7.78 22.46-7.78 5.28 0 8.43 4.61 8.43 12.32v120.7c2.69 2.54 11.4 11.46 11.4 20.23.01 15.5-27.7 15.95-30.86 15.95Zm-43.07-67.74c0 10.1 2.13 15.22 6.32 15.22s6.82-5.84 6.82-11.49v-53.28c-3.88-1.35-10.29-5.23-13.14-11.32Z" fill="#7dc8f5"/>
      <path d="M913.21 178.62c6 0 6.18 8.34 6.18 10.07v121.68s11.4 10 11.4 19.25c0 11.42-20 13.71-28.67 13.71-16.58 0-22.24-3.71-26.26-14.58-2.07 3.79-11.73 13.85-27.82 13.85-36 0-36.17-32.06-36.17-47.23v-65.83c-3.16-.58-14.58-5.75-14.58-16 0-11.58 15.48-17.36 31.21-24.1 12.5-5.36 18.29-7.83 22.21-7.83 5.92 0 6.1 7.76 6.1 10.06v86.17c0 14 4.15 17.47 8.57 17.47 5.5 0 9.07-6.35 9.07-13.74v-55c-2.82-.35-14.58-5.94-14.58-16 0-11.58 15.48-17.34 31.21-24.08 12.42-5.33 18.21-7.84 22.13-7.84m0-4.5c-4.78 0-10.6 2.5-23.34 8l-.56.24-3.12 1.33c-7.57 3.22-14.73 6.26-20.29 10.08a33.52 33.52 0 0 0-4.59 3.71v-5.77c0-13.51-8.12-14.56-10.6-14.56-4.87 0-10.86 2.56-24 8.19l-3.06 1.3c-7.59 3.23-14.75 6.28-20.33 10.1-7.1 4.86-10.55 10.37-10.55 16.84 0 10.46 8.65 16.72 14.58 19.24v62.59c0 7.59 0 20.28 5 31.18 6.26 13.64 18.26 20.55 35.68 20.55a39.18 39.18 0 0 0 26.74-10.19c5 8 12.82 10.92 27.34 10.92a66.25 66.25 0 0 0 19-2.8c11.72-3.85 14.18-10.5 14.18-15.41 0-9-7.88-17.76-11.4-21.2v-119.8c0-9-4.09-14.57-10.68-14.57Zm-47.83 116.66c-3.77 0-4.07-9.93-4.07-13V224a28.3 28.3 0 0 0 8.64 5.88v51.74c0 5-2.1 9.24-4.57 9.24Z" fill="#303030"/>
      <path d="M913.21 183.12c.25 0 .62 0 1.09 1.36a13.56 13.56 0 0 1 .59 4.21v121.68a4.49 4.49 0 0 0 1.53 3.38c2.56 2.26 9.87 10 9.87 15.87 0 6.35-14.13 9.21-24.17 9.21-7.63 0-12.44-.81-15.6-2.62-2.8-1.6-4.66-4.21-6.43-9a4.49 4.49 0 0 0-3.89-2.93h-.34a4.49 4.49 0 0 0-3.94 2.34c-1.25 2.29-9.43 11.51-23.88 11.51-13.78 0-22.77-5-27.5-15.3-4.17-9.11-4.17-20.58-4.17-27.43v-65.86a4.49 4.49 0 0 0-3.69-4.42c-1.29-.24-10.89-4-10.89-11.58 0-7.85 12.34-13.1 25.4-18.65l3.09-1.32c11.22-4.81 17.41-7.46 20.43-7.46.33 0 .61 0 1 1.17a13.7 13.7 0 0 1 .57 4.39v86.17c0 18.16 7.11 22 13.07 22 7.86 0 13.57-7.67 13.57-18.24v-55a4.46 4.46 0 0 0-3.9-4.46c-1.81-.33-10.68-4.58-10.68-11.56 0-7.83 12.31-13.07 25.34-18.61l3.15-1.34.56-.24c10.87-4.66 16.86-7.23 19.79-7.23m0-4.5c-3.92 0-9.71 2.51-22.13 7.84-15.73 6.74-31.21 12.5-31.21 24.08 0 10.08 11.76 15.67 14.58 16v55c0 7.39-3.57 13.74-9.07 13.74-4.42 0-8.57-3.52-8.57-17.47v-86.18c0-2.3-.18-10.06-6.1-10.06-3.92 0-9.71 2.47-22.21 7.83-15.73 6.74-31.21 12.52-31.21 24.1 0 10.25 11.42 15.42 14.58 16v65.83c0 15.17.17 47.23 36.17 47.23 16.09 0 25.75-10.06 27.82-13.85 4 10.87 9.68 14.58 26.26 14.58 8.67 0 28.67-2.29 28.67-13.71 0-9.25-11.4-19.25-11.4-19.25V188.69c0-1.73-.18-10.07-6.18-10.07Z" fill="#79c8cd"/>
    </g>
    <g>
      <path d="M992.13 342.59c-31.37 0-50.85-17.87-50.85-46.63 0-15.74 6.43-32.47 18.35-32.47a27.31 27.31 0 0 1 6.4.81c-10.44-7.44-18.93-18.26-18.93-36.09 0-22.16 14.29-55.12 53.65-55.12 21.85 0 46.28 12.08 46.28 28.25 0 7.88-4.26 15.43-7.37 20.94l-.1.17c-3.92 6.94-10.47 18.54-20.56 18.65a12.35 12.35 0 0 1-2.55-.27c15.69 6.63 33.81 18.11 33.81 48.63 0 36.7-29.2 53.13-58.13 53.13Zm-11.58-45.06a19.46 19.46 0 0 0 13.08 5.11c8.92 0 12.92-5.83 12.92-11.61 0-6.76-8.63-10.63-19.55-15.54l-2-.9c5.55 4.84 9.27 10.27 9.27 14.08-.02 3.21-1.83 8.52-13.72 8.86Zm13.76-75a7.73 7.73 0 0 0-1.4 4.64v.16c0 4.29 5.86 6.73 15.43 10.34l2.48.94c-7.06-4.08-13.49-12.01-16.51-16.1Z" fill="#7dc8f5"/>
      <path d="M1000.75 175.34c20.75 0 44 11.49 44 26 0 7.37-4.07 14.49-7.18 20-3.69 6.53-9.83 17.4-18.62 17.5-10.23 0-22.88-17.41-24.59-20.11-1.81 2-4 5-3.72 8.57 0 16.9 57.34 8.4 57.34 62.15 0 36-29 50.88-55.88 50.88-27.75 0-48.6-14.51-48.6-44.38 0-15.5 6.1-30.22 16.1-30.22 15.25 0 32.37 16.34 32.37 22.93 0 5.72-7.73 6.62-12.66 6.62a38.51 38.51 0 0 1-4-.19c1.33 2 7.36 9.79 18.24 9.79 10.25 0 15.17-6.93 15.17-13.86 0-20.57-59.45-16.32-59.45-62.82 0-21.25 13.9-52.87 51.4-52.87m0-4.5c-22.89 0-36.19 11-43.32 20.21a62.72 62.72 0 0 0-12.58 37.16c0 15.25 5.83 25.57 13.82 33.06-12.9.8-19.64 17.84-19.64 34.69 0 30.15 20.34 48.88 53.1 48.88 15.57 0 30-4.57 40.77-12.88 12.83-9.94 19.61-24.64 19.61-42.5 0-27.19-13.68-39.85-27.78-47.25 8.08-3.24 13.38-12.61 16.79-18.65l.09-.17c3.24-5.73 7.67-13.57 7.67-22s-5.87-16.43-16.54-22.37a67.69 67.69 0 0 0-32-8.13Zm-2.6 59.95c-1.83-1.12-3-2.26-3-3.47.89 1.09 1.89 2.27 3 3.47ZM986.91 299c8.51-2.07 9.59-7.63 9.59-10.33a14.38 14.38 0 0 0-2.78-7.58c6.15 3.05 10.58 6.1 10.58 9.94 0 4.32-2.8 9.36-10.67 9.36a16.64 16.64 0 0 1-6.72-1.39Z" fill="#303030"/>
      <path d="M1000.75 179.84c19.58 0 39.53 10.85 39.53 21.5 0 6.11-3.6 12.5-6.5 17.63l-.1.16c-3 5.29-8.53 15.12-14.73 15.22-6.59 0-17.52-12.89-20.76-18a4.5 4.5 0 0 0-3.41-2.07 2.55 2.55 0 0 0-.39 0 4.52 4.52 0 0 0-3.33 1.47c-3.47 3.82-5.12 7.77-4.89 11.75.1 9.07 9.67 12.68 19.8 16.5 16.72 6.31 37.54 14.17 37.54 45.5 0 15.19-5.42 27.1-16.12 35.38-9.16 7.1-21.68 11-35.26 11-13.15 0-24.15-3.43-31.8-9.92-8.16-6.92-12.3-17-12.3-30 0-13.94 5.31-25.72 11.6-25.72 5.62 0 12.48 2.84 18.83 7.8 6.09 4.76 8.94 9.37 9 10.63 0 1-3.12 2.12-8.16 2.12-1.17 0-2.4-.06-3.5-.17h-.45a4.5 4.5 0 0 0-3.72 7 27 27 0 0 0 22 11.76c12.91 0 19.67-9.24 19.67-18.36 0-11.13-11.43-16.26-23.54-21.69-16.83-7.56-35.91-16.12-35.91-41.13 0-19.44 12.49-48.37 46.9-48.37m0-4.5c-37.5 0-51.4 31.62-51.4 52.87 0 46.5 59.45 42.25 59.45 62.82 0 6.93-4.92 13.86-15.17 13.86-10.88 0-16.91-7.83-18.24-9.79a38.51 38.51 0 0 0 4 .19c4.93 0 12.66-.9 12.66-6.62 0-6.59-17.12-22.93-32.37-22.93-10 0-16.1 14.72-16.1 30.22 0 29.87 20.85 44.38 48.6 44.38 26.87 0 55.88-14.88 55.88-50.88 0-53.75-57.34-45.25-57.34-62.15-.25-3.53 1.91-6.58 3.72-8.57 1.71 2.7 14.36 20.11 24.59 20.11 8.79-.1 14.93-11 18.62-17.5 3.11-5.52 7.18-12.64 7.18-20 0-14.51-23.28-26-44-26Z" fill="#79c8cd"/>
    </g>
    <g>
      <path d="M1090.74 345.4c-21.45 0-33.3-3.9-36.24-11.92-3.54-9.66 8.14-21.16 11.4-24.12v-79.91c-6.75-1.94-13.84-7.57-13.84-18 0-13.64 9.75-16.21 14.44-17.45l15.73-4.24-2.23-15.9-45.79 38 30-55.42-68-8.75 69.63-10.21-32-54.45 46.87 36.59 8.6-66.79 9.46 64.56 44-34.36-31.24 53.18 71.12 11.47-69.65 9.9 29.37 54.31-42.91-35.63-1.52 9.44a35 35 0 0 1 7.09-1c6.48 0 10.35 4.83 10.35 12.93v111.76c3.11 3 14.31 14.53 10.66 24.18-3.04 7.96-14.59 11.83-35.3 11.83Z" fill="#7dc8f5"/>
      <path d="m1089.4 69.37 7.65 52.21 37.77-29.49-26.92 45.85 59.7 9.63-58.14 8.24 25.36 46.91-37-30.71-2.69 16.65A46.3 46.3 0 0 1 1105 187c7.75 0 8.09 8.26 8.09 10.68v112.69s37 32.78-22.35 32.78c-61.33 0-22.59-32.78-22.59-32.78v-82.69c-1.2-.23-13.84-2.78-13.84-16.22 0-12.63 9.15-14.28 13.57-15.49l16.86-4.55-3.1-21.86-39.94 33.16 26-48.06-55.05-7.09 56.76-8.32-27.7-47.16 40.69 31.76 7-54.48m-.29-33-4.17 32.43-6 46.66-34.46-26.91L1025.87 74l12 20.34 24.31 41.4-50.18 7.38-32.36 4.74 32.44 4.17 48.55 6.25-22.88 42.3-11.07 20.47 17.9-14.87 9.53-7.9c-2.48 2.86-4.29 7-4.29 13.18 0 10.84 6.83 17 13.84 19.62v77.29c-4.37 4.09-15.07 15.5-11.27 25.88 3.31 9 15.86 13.4 38.36 13.4 21.76 0 34-4.34 37.37-13.28 3.93-10.36-6.34-21.84-10.52-25.94v-110.8a24 24 0 0 0-.25-3.58l14.65 12.13 17.9 14.87-11.07-20.47-22.29-41.22 51.75-7.33 29.4-4.17-29.32-4.73-53.21-8.59 23.59-40.17 12-20.34-18.59 14.51-31.68 24.73-6.53-44.56-4.74-32.35Zm-30.82 158.43 20-16.62 1.41 9.94-13 3.51c-.26.08-.52.14-.79.21a29 29 0 0 0-7.63 3Zm42.36-11.91.38-2.37 2.42 2c-.83.07-1.76.18-2.8.36Z" fill="#303030"/>
      <path d="m1089.69 102.38 2.91 19.85a4.49 4.49 0 0 0 2.78 3.52 4.45 4.45 0 0 0 4.44-.63l19.18-15-15 25.51a4.5 4.5 0 0 0 3.16 6.72l30.38 4.9-28.74 4.07a4.5 4.5 0 0 0-3.32 6.6l14.3 26.44-19.08-15.84a4.55 4.55 0 0 0-2.88-1 4.33 4.33 0 0 0-1.58.29 4.49 4.49 0 0 0-2.86 3.49l-2.69 16.65a4.49 4.49 0 0 0 5.54 5.08 43.46 43.46 0 0 1 8.75-1.57 2.62 2.62 0 0 1 2.84 1.76 10.77 10.77 0 0 1 .75 4.42v112.73a4.53 4.53 0 0 0 1.52 3.37c4 3.52 11.5 12.42 9.58 17.45-.85 2.24-5.38 7.46-29 7.46-25.19 0-29.26-5.73-29.9-7.49-1.84-5 6.09-13.85 10.21-17.35a4.52 4.52 0 0 0 1.6-3.44v-82.69a4.5 4.5 0 0 0-3.65-4.42c-2.39-.46-10.19-2.68-10.19-11.8 0-7.83 3.9-9.47 9.41-10.93l.83-.22 16.86-4.54a4.51 4.51 0 0 0 3.28-5l-3.1-21.87a4.47 4.47 0 0 0-2.83-3.56 4.34 4.34 0 0 0-1.62-.3 4.54 4.54 0 0 0-2.88 1l-22 18.3 14.92-27.59a4.5 4.5 0 0 0-3.38-6.61l-22.62-2.91 24.4-3.57a4.5 4.5 0 0 0 3.23-6.73l-15.75-26.83 22.09 17.25a4.47 4.47 0 0 0 2.77.95 4.42 4.42 0 0 0 1.71-.34 4.5 4.5 0 0 0 2.75-3.58l2.84-22.05m-.29-33-7 54.48-40.66-31.72 27.7 47.16-56.76 8.32 55.05 7.09-26 48.06 39.94-33.16 3.1 21.86-16.85 4.58c-4.42 1.21-13.57 2.86-13.57 15.49 0 13.44 12.64 16 13.84 16.22v82.69s-38.74 32.78 22.59 32.78c59.36 0 22.35-32.78 22.35-32.78V197.63c0-2.42-.34-10.68-8.09-10.68a46.3 46.3 0 0 0-9.85 1.71l2.69-16.65 37 30.71-25.36-46.91 58.14-8.24-59.7-9.63 26.92-45.85-37.77 29.49-7.65-52.21Z" fill="#79c8cd"/>
    </g>
  </g>
  <g>
    <path d="M1074.76 529.63c-9.15 0-18.61-6.07-18.61-16.25a15.79 15.79 0 0 1 8-13.78l5-2.8 4.87 3a4.46 4.46 0 0 0 2 .71c.6 0 1.47-.39 3.32-3.31 2.66-4.19 4.85-9.75 6.95-15.12.38-.95.75-1.9 1.12-2.84l-1.91-6.78c-3.49-12.45-7.09-25.27-11.21-37.39-5.64 11.73-20.68 16-34.52 18.18 1 3.16 3.29 7.68 7.89 7.68 4.32 0 8.2-4.14 11.64-7.79.45-.48.89-1 1.33-1.41l1.15-1.2 1.48.74 1.62.79c4.62 2.19 10.94 5.2 10.94 12.47 0 5.26-4.59 9.64-7.95 12.84l-.62.6a36.54 36.54 0 0 1-24.75 10 30.91 30.91 0 0 1-19-6.3l-1.55.63c-6.38 2.59-13 5.28-19.61 5.28-11.09 0-17.83-7.93-23.78-14.93a166.9 166.9 0 0 1-12.3-17l-.87 28.8-19.73 2.55-10.92-1.22.08-2.1c1.24-29.73 2.52-60.45 2.55-92.07-2.29.23-5.37.69-7.8 1.06-1.19.18-2.25.34-3.08.45l-2.27.31-2.64-21.94 1.93-.48 4.07-1c7.57-1.94 16.15-4.13 22.63-4.13 5.73 0 10.17 1.58 13.19 4.68 3.48 3.57 5.06 9.06 4.85 16.79l-.22 8.59c9.77-13.39 22.9-30.61 38.69-30.61 10.36 0 17.58 6.75 17.58 16.42s-7.75 18.06-14.09 18.06a7.55 7.55 0 0 1-6.52-3.24c-.16-.19-.36-.45-.49-.57-2.52.28-12 9.25-23.22 25.22 8 13.17 15.59 25.6 25.49 35.86l.81.76a12.12 12.12 0 0 0 3.93 3 42.44 42.44 0 0 1-1.16-9.91c0-26.41 18.61-47.9 41.49-47.9a28.15 28.15 0 0 1 15.75 4.27c5.46-1.85 12-4 16.85-4 12.61 0 16.5 12.89 18.6 19.81l3.14 10.4 8.41-21.24c2.25-5.69 8.17-9.37 15.09-9.37a19.91 19.91 0 0 1 8.94 2.13l10.27 5.16-1.36 2.1c-11.64 18.06-20.23 37.83-29.46 59.94-2 4.78-3.9 9.75-5.73 14.55-2.73 7.16-5.55 14.57-8.81 21.52-6.65 14.15-15.9 21.33-27.47 21.33Z" fill="#51a2f3"/>
    <path d="M1006.72 367.56c8.71 0 15.3 5.48 15.3 14.17 0 8.48-6.76 15.81-11.84 15.81-4.83 0-4.5-3.82-6.91-3.82-4.34 0-16 13-26 27.4 8.28 13.65 16.18 26.77 26.59 37.54 2.33 2.18 4.4 4.55 7.35 4.55a6.43 6.43 0 0 0 1.9-.31 39.49 39.49 0 0 1-1.84-12c0-24.08 16.66-45.65 39.24-45.65 6 0 11 1.4 15.41 4.51 5.52-1.87 12.34-4.2 17.19-4.2 10.24 0 13.87 9.69 16.44 18.22l5 16.57 10.79-27.24c2-5.12 7.3-7.95 13-7.95a17.67 17.67 0 0 1 7.93 1.89l8 4c-12 18.68-21.07 39.74-29.65 60.29-5 11.93-9.09 24.47-14.5 36-4.85 10.35-12.56 20.06-25.43 20.06-8.13 0-16.36-5.17-16.36-14a13.59 13.59 0 0 1 6.9-11.81l3.83-2.16 3.74 2.31a6.5 6.5 0 0 0 3.19 1c2 0 3.46-1.57 5.22-4.35 3.37-5.31 5.86-12.34 8.54-19-4.8-17-9.66-35.12-15.67-51.57-2.31 17-22.26 21.46-37.15 23.6 1.15 5.58 4.38 11.78 10.7 11.78 5.93 0 10.57-5.7 14.59-9.89 4.84 2.4 11.32 4.66 11.32 11.24 0 4.58-4.63 8.69-7.88 11.82a34.4 34.4 0 0 1-23.19 9.38 28.92 28.92 0 0 1-18.68-6.62c-7.14 2.84-14.4 6.23-21.52 6.23-9.71 0-15.86-6.84-22.06-14.13-5.61-6.59-10.72-14.42-16-22.85l-1 34.15-17.54 2.22-8.58-.95c1.33-32 2.58-62.85 2.55-94.56-2.93 0-10.11 1.22-13.44 1.67l-2.13-17.7c8.57-2.12 18.83-5.09 26.16-5.09 12.67 0 16.09 8.07 15.79 19.16l-.4 15.78c9.88-13.27 24.15-35.5 41.12-35.49m32.36 64.56c3.11-.62 9.11-2.62 9.11-4.77 0-.85-.29-2.11-1.55-2.11-3.89 0-6.26 3.8-7.56 6.88m-32.36-69.06c-14.63 0-26.74 13.3-36.26 25.81v-1.48c.25-8.4-1.55-14.4-5.48-18.4-3.47-3.56-8.45-5.36-14.81-5.36-6.77 0-15.49 2.23-23.19 4.2l-4 1-3.86 1 .48 3.95 2.13 17.7.54 4.53 4.53-.61 3.11-.46c1.53-.23 3.44-.51 5.22-.74-.1 30.67-1.34 60.53-2.55 89.44l-.17 4.2 4.17.46 8.58 1h.53l.53-.06 17.52-2.25 3.82-.49.11-3.84.6-19.85a140.23 140.23 0 0 0 8.56 11.32c5.95 7 13.36 15.72 25.49 15.72 7.08 0 13.88-2.77 20.46-5.45l.39-.16a33.65 33.65 0 0 0 19.35 6 38.86 38.86 0 0 0 26.31-10.64l.62-.6c3.65-3.48 8.64-8.24 8.64-14.46 0-8.69-7.35-12.19-12.22-14.51l-1.59-.76-1-.53a31 31 0 0 0 10.45-8.42c3.49 10.71 6.62 21.87 9.68 32.76.57 2 1.13 4.05 1.7 6.05l-.84 2.13c-2.17 5.52-4.21 10.73-6.76 14.75a12.37 12.37 0 0 1-1.62 2.18 4.89 4.89 0 0 1-.68-.33l-3.68-2.28-2.26-1.39-2.32 1.3-3.83 2.15a18.07 18.07 0 0 0-9.19 15.74c0 11.58 10.6 18.5 20.86 18.5 12.52 0 22.45-7.62 29.51-22.65 3.29-7 6.13-14.47 8.87-21.67 1.83-4.79 3.71-9.74 5.7-14.48 9.2-22 17.74-41.69 29.29-59.59l2.71-4.21-4.48-2.25-8-4a22.25 22.25 0 0 0-9.95-2.37c-7.85 0-14.59 4.24-17.18 10.8l-6 15.23-1.27-4.22c-2.1-6.95-6.47-21.41-20.75-21.41-5 0-11.18 1.93-16.57 3.74a30.65 30.65 0 0 0-16-4c-24.12 0-43.74 22.5-43.74 50.15 0 1.53.08 3.05.23 4.56-9.38-9.74-16.73-21.57-24.36-34.13 8.82-12.36 16.52-20.35 19.92-22.56a9.6 9.6 0 0 0 7.62 3.3c8.25 0 16.34-10.06 16.34-20.31 0-10.82-8.33-18.67-19.8-18.67v4.5-4.5Zm36.22 92a83.39 83.39 0 0 0 15.34-4.07l-.6.64c-3.12 3.32-6.66 7.08-10 7.08-2.25 0-3.77-1.74-4.76-3.66Z" fill="#303030"/>
    <path d="M1006.72 370.56c7.36 0 12.3 4.49 12.3 11.17 0 7.27-5.89 12.81-8.84 12.81a2.46 2.46 0 0 1-2.43-1.28 5.59 5.59 0 0 0-4.48-2.54c-8.16 0-25.14 23.9-28.46 28.69l-1.11 1.6 1 1.66.31.5c8.32 13.73 16.18 26.69 26.7 37.57v.06l.05.05.8.76c2.25 2.16 4.8 4.6 8.6 4.6a9.33 9.33 0 0 0 2.81-.46l2.85-.91-.82-2.84a36.6 36.6 0 0 1-1.7-11.12c0-23.52 16.26-42.65 36.24-42.65 5.47 0 9.94 1.29 13.67 3.95l1.26.89 1.45-.49c5.29-1.8 11.87-4 16.22-4 7.25 0 10.57 6.16 13.57 16.08l5 16.58 2.49 8.24 3.17-8 10.79-27.25c1.46-3.68 5.46-6.05 10.21-6.05a14.76 14.76 0 0 1 6.59 1.57l5.07 2.55c-11 17.63-19.26 36.72-28.11 57.93-2 4.85-4 9.86-5.79 14.71-2.7 7.07-5.49 14.39-8.66 21.15-5.79 12.34-13.23 18.34-22.72 18.34-6.48 0-13.36-3.85-13.36-11a10.55 10.55 0 0 1 5.37-9.2l2.29-1.29 2.23 1.38a9.33 9.33 0 0 0 4.69 1.45c3.61 0 5.86-2.76 7.76-5.75 2.93-4.62 5.2-10.41 7.4-16 .46-1.17.92-2.34 1.39-3.51l.38-.95-.28-1c-.7-2.48-1.4-5-2.11-7.51-4.16-14.8-8.46-30.12-13.63-44.27l-4.16-11.38-1.63 12c-2 14.52-19.53 18.87-34.6 21l-3.16.46.64 3.12c1.82 8.87 6.92 14.17 13.64 14.17 6.48 0 11.35-5.07 15.27-9.24 4.76 2.28 7.64 4 7.64 7.59 0 3-3.65 6.49-6.32 9l-.64.62a31.2 31.2 0 0 1-21.11 8.54 25.84 25.84 0 0 1-16.78-5.95l-1.36-1.11-1.65.65-2.78 1.13c-5.91 2.4-12 4.89-17.63 4.89-8 0-13.27-5.42-19.78-13.08-5.61-6.6-10.88-14.73-15.8-22.5l-5.23-8.28-.3 9.79-1 31.59-14.65 1.85-5.44-.6c1.24-29.67 2.47-60.32 2.44-91.89v-3h-3a97.35 97.35 0 0 0-10.83 1.26l-1.44-12 1.53-.39c7.27-1.86 15.51-4 21.33-4 4.32 0 7.4 1 9.43 3.09 2.43 2.5 3.53 6.75 3.36 13L962.6 403l-.25 9.45 5.65-7.58c1-1.36 2.07-2.81 3.16-4.32 9.22-12.65 21.84-30 35.56-30m27.4 65.6 5.54-1.1c2.71-.54 11.53-2.68 11.53-7.71 0-3-1.87-5.11-4.55-5.11-3 0-7.29 1.51-10.32 8.71l-2.2 5.21m-27.4-68.6c-17 0-31.24 22.22-41.12 35.49l.4-15.78c.3-11.09-3.12-19.16-15.79-19.16-7.33 0-17.59 3-26.16 5.09l2.13 17.7c3.33-.45 10.51-1.67 13.44-1.67 0 31.71-1.22 62.54-2.55 94.56l8.58.95 17.54-2.22 1-34.15c5.33 8.43 10.44 16.26 16 22.85 6.2 7.29 12.35 14.13 22.06 14.13 7.12 0 14.38-3.39 21.52-6.23a28.92 28.92 0 0 0 18.68 6.62 34.4 34.4 0 0 0 23.19-9.38c3.25-3.13 7.88-7.24 7.88-11.82 0-6.58-6.48-8.84-11.32-11.24-4 4.19-8.66 9.89-14.59 9.89-6.32 0-9.55-6.2-10.7-11.78 14.89-2.14 34.84-6.57 37.15-23.6 6 16.45 10.87 34.58 15.67 51.57-2.68 6.7-5.17 13.73-8.54 19-1.76 2.78-3.23 4.35-5.22 4.35a6.5 6.5 0 0 1-3.19-1l-3.74-2.31-3.83 2.16a13.59 13.59 0 0 0-6.9 11.81c0 8.83 8.23 14 16.36 14 12.87 0 20.58-9.71 25.43-20.06 5.41-11.51 9.5-24.05 14.5-36 8.58-20.55 17.61-41.61 29.65-60.29l-8-4a17.67 17.67 0 0 0-7.93-1.89c-5.7 0-11 2.83-13 7.95l-10.79 27.24-5-16.57c-2.57-8.53-6.2-18.22-16.44-18.22-4.85 0-11.67 2.33-17.19 4.2-4.36-3.11-9.41-4.51-15.41-4.51-22.58 0-39.24 21.57-39.24 45.65a39.49 39.49 0 0 0 1.84 12 6.43 6.43 0 0 1-1.9.31c-3 0-5-2.37-7.35-4.55-10.41-10.77-18.31-23.89-26.59-37.54 10-14.41 21.66-27.4 26-27.4 2.41 0 2.08 3.82 6.91 3.82 5.08 0 11.84-7.33 11.84-15.81 0-8.69-6.59-14.17-15.3-14.17Zm32.36 64.56c1.3-3.08 3.67-6.88 7.56-6.88 1.26 0 1.55 1.26 1.55 2.11 0 2.15-6 4.15-9.11 4.77Z" fill="#96b4ff"/>
  </g>
</svg>