<svg xmlns="http://www.w3.org/2000/svg" viewBox="0 0 512 512">
  <path d="m 456.40197,32.003919 c -0.78225,0.02635 -1.56241,0.09642 -2.33683,0.209896 H 330.8713 c -11.70856,-0.165507 -21.2889,9.28014 -21.2889,20.989552 0,11.709412 9.58034,21.155059 21.2889,20.989552 h 75.26925 L 211.08016,269.2482 c -8.48451,8.14487 -8.62251,21.67019 -0.30599,29.98649 8.31652,8.31629 21.8422,8.17828 29.98727,-0.30601 L 435.82178,103.8734 v 75.26727 c -0.16511,11.70798 9.28067,21.28763 20.99011,21.28763 11.70944,0 21.15522,-9.57965 20.99011,-21.28763 V 55.867988 C 479.58081,43.008911 469.37842,31.634099 456.40197,32.008745 Z M 114.97031,103.17764 c -34.52891,0 -62.970308,28.44064 -62.970308,62.96866 V 395.03134 C 52.000002,429.55936 80.4414,458 114.97031,458 h 230.89111 c 34.52889,0 62.97028,-28.44064 62.97028,-62.96866 v -121.9373 c 0.16531,-11.70811 -9.28053,-21.28799 -20.99011,-21.28799 -11.70957,0 -21.15541,9.57988 -20.9901,21.28799 v 121.9373 c 0,11.84084 -9.14894,20.98958 -20.99007,20.98958 H 114.97031 c -11.84113,0 -20.990099,-9.14874 -20.990099,-20.98958 V 166.1463 c 0,-11.84084 9.148969,-20.98956 20.990099,-20.98956 h 125.94061 c 11.70861,0.16559 21.28904,-9.28008 21.28904,-20.98955 0,-11.70947 -9.58043,-21.15514 -21.28904,-20.98955 z"/>
</svg>