<svg xmlns="http://www.w3.org/2000/svg" viewBox="0 0 20 20">
  <path d="m 2.85355,2.14645 c -0.19526,-0.19527 -0.51184,-0.19527 -0.7071,0 -0.19527,0.19526 -0.19527,0.51184 0,0.7071 L 3.55462,4.26173 C 3.20539,4.75213 3,5.35207 3,5.99999 V 14 c 0,1.6568 1.34315,3 3,3 h 8 c 0.6479,0 1.2479,-0.2054 1.7383,-0.5546 l 1.4081,1.4082 c 0.1953,0.1952 0.5119,0.1952 0.7072,0 0.1952,-0.1953 0.1952,-0.5119 0,-0.7072 z M 9.41374,10.1208 C 9.24519,10.1923 9.08705,10.2961 8.94868,10.432 L 4.27937,15.0201 C 4.10191,14.7214 4,14.3726 4,14 V 5.99999 C 4,5.62909 4.10096,5.28177 4.2769,4.98401 Z M 6,16 C 5.63085,16 5.28505,15.9 4.98824,15.7256 l 4.66132,-4.5803 c 0.19453,-0.1911 0.50634,-0.1911 0.70084,0 l 4.6614,4.5803 C 14.7149,15.9 14.3692,16 14,16 Z M 16,5.99999 v 7.87861 l 0.8984,0.8984 C 16.9647,14.5292 17,14.2687 17,14 V 5.99999 c 0,-1.65686 -1.3431,-3 -3,-3 H 6 c -0.26873,0 -0.52922,0.03533 -0.77705,0.10161 L 6.12134,3.99999 H 14 c 1.1046,0 2,0.89543 2,2 z m -2,1.5 c 0,-0.82843 -0.6716,-1.5 -1.5,-1.5 -0.8284,0 -1.5,0.67157 -1.5,1.5 0,0.82842 0.6716,1.5 1.5,1.5 0.8284,0 1.5,-0.67158 1.5,-1.5 z"/>
</svg>