<svg xmlns="http://www.w3.org/2000/svg" viewBox="0 0 24 24">
  <path d="m 18.4,6.6 c -0.3,0 -0.5,-0.1 -0.7,-0.3 -0.4,-0.4 -0.4,-1 0,-1.4 l 1.4,-1.4 c 0.4,-0.4 1,-0.4 1.4,0 0.4,0.4 0.4,1 0,1.4 L 19.1,6.3 C 18.9,6.5 18.6,6.6 18.4,6.6 Z M 4.2,20.8 c -0.3,0 -0.5,-0.1 -0.7,-0.3 -0.4,-0.4 -0.4,-1 0,-1.4 l 1.4,-1.4 c 0.4,-0.4 1,-0.4 1.4,0 0.4,0.4 0.4,1 0,1.4 L 4.9,20.5 C 4.7,20.7 4.5,20.8 4.2,20.8 Z M 23,13 h -2 c -0.6,0 -1,-0.4 -1,-1 0,-0.6 0.4,-1 1,-1 h 2 c 0.6,0 1,0.4 1,1 0,0.6 -0.4,1 -1,1 z M 3,13 H 1 C 0.4,13 0,12.6 0,12 0,11.4 0.4,11 1,11 h 2 c 0.6,0 1,0.4 1,1 0,0.6 -0.4,1 -1,1 z m 16.8,7.8 c -0.3,0 -0.5,-0.1 -0.7,-0.3 l -1.4,-1.4 c -0.4,-0.4 -0.4,-1 0,-1.4 0.4,-0.4 1,-0.4 1.4,0 l 1.4,1.4 c 0.4,0.4 0.4,1 0,1.4 -0.2,0.2 -0.5,0.3 -0.7,0.3 z M 5.6,6.6 C 5.3,6.6 5.1,6.5 4.9,6.3 L 3.5,4.9 c -0.4,-0.4 -0.4,-1 0,-1.4 0.4,-0.4 1,-0.4 1.4,0 l 1.4,1.4 c 0.4,0.4 0.4,1 0,1.4 C 6.2,6.5 5.9,6.6 5.6,6.6 Z M 12,24 c -0.6,0 -1,-0.4 -1,-1 v -2 c 0,-0.6 0.4,-1 1,-1 0.6,0 1,0.4 1,1 v 2 c 0,0.6 -0.4,1 -1,1 z M 12,4 C 11.4,4 11,3.6 11,3 V 1 c 0,-0.6 0.4,-1 1,-1 0.6,0 1,0.4 1,1 v 2 c 0,0.6 -0.4,1 -1,1 z m 0,14 C 8.7,18 6,15.3 6,12 6,8.7 8.7,6 12,6 c 3.3,0 6,2.7 6,6 0,3.3 -2.7,6 -6,6 z" />
</svg>