<svg xmlns="http://www.w3.org/2000/svg" viewBox="0 0 512 512">
  <path d="M186.7 284.7c-8.1 0-15.1 3.8-20.7 11.7-5.6 7.8-8.4 17.3-8.4 28.6s2.9 21 8.4 28.7 12.5 11.7 20.7 11.7c7.6 0 14.2-3.9 19.7-11.7 5.6-7.7 8.4-17.3 8.4-28.7s-2.9-20.9-8.4-28.6c-5.5-7.7-12.1-11.7-19.7-11.7zm139.6 0c-8 0-15.1 3.8-20.7 11.7-5.6 7.8-8.4 17.3-8.4 28.6s2.9 21 8.4 28.7 12.6 11.7 20.7 11.7c7.6 0 14.2-3.9 19.8-11.7 5.7-7.7 8.4-17.3 8.4-28.7s-2.9-20.9-8.4-28.6c-5.5-7.7-12.1-11.7-19.8-11.7zm99.2-105.3c-.1 0 2.4-13 .3-35.7-2-22.7-6.7-43.6-14.4-62.7 0 0-3.9.7-11.4 2.6-7.5 1.9-19.8 5.8-36.5 13.5-16.5 7.7-33.9 18-52.1 30.5-12.3-3.6-30.7-5.4-55.4-5.4-23.5 0-41.9 1.8-55.4 5.4-39.8-28.1-73.1-43.7-100-46.6-7.7 19.1-12.4 40.1-14.3 62.9-2.1 22.7.4 35.8.4 35.8-21.7 24-30.6 58.5-30.6 87 0 22.1.6 42 5.5 59.7 5 17.6 11.3 32 18.8 43 7.8 11.2 17.3 21 28.2 29 11.2 8.5 21.4 14.6 30.7 18.4 9.4 4 20 6.9 32.1 9 9 1.8 18.1 3 27.2 3.7 0 0 25 1.4 57.5 1.4s57.4-1.4 57.4-1.4c9.1-.7 18.2-1.9 27.2-3.7 11-1.8 21.7-4.8 32-9 9.3-3.9 19.6-9.9 30.8-18.4 10.9-8 20.4-17.9 28.1-29.1 7.5-11 13.8-25.4 18.8-43s5.4-37.7 5.4-59.8c.2-27.5-8.7-62.5-30.3-87.1zm-58.4 213c-24.9 11.9-61.5 16.8-110.1 16.8h-1.9c-48.6 0-85.2-4.7-109.6-16.8-24.5-12-36.9-36.6-36.9-73.6 0-22.1 7.7-40.1 22.8-53.8 6.6-5.9 14.6-10 24.6-12.5 10-2.5 19.1-2.5 27.7-2.3 8.4.4 20.2 2 35.1 3.2 14.9 1.2 26.2 2.7 37.3 2.7 10.4 0 24.3-1.8 46.5-3.6s38.8-2.7 49.5-.9c11 1.8 20.5 5.7 28.7 13.4 15.8 14.4 23.7 32.3 23.8 53.8-.1 37-12.7 61.6-37.5 73.6z" />
</svg>