<svg xmlns="http://www.w3.org/2000/svg" viewBox="0 0 512 512">
  <path d="m 256,115.98906 c 0,0 -125.09376,0.004 -156.275634,8.36751 -17.220674,4.60979 -30.747073,18.13605 -35.356851,35.35685 C 56.004067,190.89516 56,255.99453 56,255.99453 c 0,0 0.0041,65.09909 8.367515,96.28111 4.609778,17.22067 18.136177,30.74788 35.356851,35.35686 C 130.90624,395.99641 256,396 256,396 c 0,0 125.09503,-0.004 156.27565,-8.36751 17.22067,-4.60898 30.74786,-18.13619 35.35684,-35.35686 8.36392,-31.18201 8.36751,-96.2811 8.36751,-96.2811 0,0 -0.0378,-65.09937 -8.36751,-96.28111 -4.60898,-17.22081 -18.13617,-30.74706 -35.35684,-35.35685 C 381.09503,115.99313 256,115.98906 256,115.98906 Z M 215.96719,196 319.8775,255.99453 215.96719,315.98905 Z" />
</svg>