<svg xmlns="http://www.w3.org/2000/svg" viewBox="0 0 512 512">
  <path d="M395.2 255.5c-14.7 32.9-45 45.1-94 50.1 15.9 10.2 20.4 22.8 20.4 57 0 34.3-.5 38.9-.2 46.8 0 13 18.8 19.1 18.2 23.2-.6 4.3-15.6 3.6-22.6 1-19.9-6.7-17.8-23.5-17.8-23.5l-.6-45.9s1.3-24.6-7.7-24.6v75c0 16.3 11.2 21.3 11.2 27.1 0 10.4-20.7-1-27-7.4-9.5-9.7-8.6-30.7-8.3-47.2.2-15.8-.2-50.8-.2-50.8l-6.5.2s2.8 76.1-3.4 90c-7.9 17.8-32 24-32 15.8 0-5.5 6-3.9 9.4-15.9 2.8-10.4 2-88 2-88s-7.8 4.7-7.8 19.1l-.2 55.9c0 14.3-19.9 22.2-29.7 22.2-4.8 0-10.8 0-10.8-2.7 0-6.6 18.3-10.4 18.3-24.2l-.2-42.4s-9.3 1.6-22.4 1.6c-33.1 0-43.6-21.5-48.5-33.5-6.5-15.4-14.9-22.9-24-28.7-5.5-3.6-6.7-7.7-.4-9.1 29.3-5.5 36.8 33.7 56.5 40 13.9 4.4 31.9 2.6 40.8-3.4 1.3-11.9 9.9-22.2 16.9-27.7-49.8-4.8-79.3-22.2-94.7-50.3-2.6-4.4-3.8-5.8-7.3-15.3-4.8-14.3-6.8-30.7-6.8-48.9 0-32.5 10-44.6 23.5-61.9-10.1-37 3.8-62.3 3.8-62.3s21.5-4.5 62.2 25c22.2-9.4 81.1-10.3 108.8-2.1 17.2-11.4 48.4-27.6 61-23 3.4 5.5 10.8 21.8 4.5 57.4 4.3 7.7 26.5 24.5 26.6 71.6-.2 17.4-2 31.9-5.4 44.3" />
</svg>