<svg xmlns="http://www.w3.org/2000/svg" viewBox="0 0 24 24">
  <path fill="none" stroke="#fff" stroke-width="2" d="M17.789 19.094s1.29-2.56.21-3.22h-.05a12.48 12.48 0 0 0 .42-5c.63-3.18.82-6-1.23-7-.67-1.38-1.51-2.13-2.65-1.76-1.52-1.1-2.79-1.59-3.27-.39a1.79 1.79 0 0 0-2.52.67c-1.34-.81-4 1.7-4.48 3.57-.17.95 1 1.17 1 1.17a1.2 1.2 0 0 0 .12 2.07 2.38 2.38 0 0 1 .94 1.2 13.46 13.46 0 0 0 .5 5.46c-.62.64.18 2.89.18 2.89s-2.56 2.07-1.89 3c1 1.49 13.52 1.68 14.56.21.88-1.19-1.84-2.87-1.84-2.87z" />
  <path fill="#746e68" d="M6.249 11.324s.53-1.06-.91-2.12a1.2 1.2 0 0 1-.12-2.07s-1.17-.22-1-1.17c.48-1.87 3.14-4.38 4.48-3.57a1.79 1.79 0 0 1 2.52-.67c.48-1.2 1.75-.71 3.27.32 1.14-.37 2 .38 2.65 1.76 2.05 1.05 1.86 3.87 1.23 7.05z" />
  <path fill="#141e29" d="M6.249 11.324s.53-1.06-.91-2.12 1.27-2.82 1.27-2.82-2.16.6-2-.35c.46-1.87 2.29-2 3.58-1.2a2.57 2.57 0 0 1 2.23-.64c.49-1.2 2-2.72 4.2-.46a3.21 3.21 0 0 1 2.56 2.12c1.49 1.45 1.34 2.17 1.19 5z" />
  <path fill="#a7948e" d="M6.829 16.034s-1.85-5.86.57-7.59a6 6 0 0 1 4.72-.66 7.21 7.21 0 0 1 4.24.16c3.55 1.62 1.57 8 1.57 8z" />
  <path fill="#141e29" d="M6.769 15.874c-.62.64.18 2.89.18 2.89s-2.56 2.07-1.89 3c1 1.49 13.52 1.68 14.56.21.89-1.24-1.83-2.92-1.83-2.92s1.29-2.56.21-3.22c-1.08-.66-10.5-.73-11.23.04z" />
</svg>