<svg xmlns="http://www.w3.org/2000/svg" viewBox="0 0 20 20">
  <path d="M 12.9365,4.05224 C 13.1033,3.67311 12.9312,3.23052 12.5521,3.0637 12.1729,2.89688 11.7303,3.069 11.5635,3.44813 L 6.06352,15.9481 c -0.16682,0.3792 0.0053,0.8218 0.38443,0.9886 0.37914,0.1668 0.82172,-0.0053 0.98854,-0.3845 z m 2.3562,9.79246 C 14.9644,13.5921 14.903,13.1212 15.1555,12.7929 L 17.3038,10.0002 15.1555,7.20749 C 14.903,6.87917 14.9644,6.40829 15.2927,6.15574 15.621,5.90319 16.0919,5.96461 16.3445,6.29292 l 2.5,3.25 c 0.2073,0.26959 0.2073,0.64498 0,0.91458 l -2.5,3.25 c -0.2526,0.3283 -0.7235,0.3897 -1.0518,0.1372 z M 4.70728,6.15581 C 5.0356,6.40836 5.09702,6.87925 4.84447,7.20756 L 2.69622,10.0003 4.84447,12.793 c 0.25255,0.3283 0.19113,0.7992 -0.13719,1.0517 -0.32831,0.2526 -0.7992,0.1912 -1.05175,-0.1371 l -2.5,-3.25 c -0.20737,-0.2696 -0.20737,-0.64501 0,-0.9146 l 2.5,-3.25 C 3.90808,5.96468 4.37897,5.90326 4.70728,6.15581 Z" />
</svg>