<svg xmlns="http://www.w3.org/2000/svg" viewBox="0 0 480 110">
  <path fill="#fff" d="M105 55a50 50 0 0 1-50 50A50 50 0 0 1 5 55 50 50 0 0 1 55 5a50 50 0 0 1 50 50Z" />
  <path fill="#e66100" d="M55.00026 0C24.62458-.00001 0 24.62458 0 55.00026 0 85.37592 24.62458 110.00001 55.00026 110 85.37592 110 110 85.37592 110 55.00026 110 24.62458 85.37592 0 55.00026 0Zm7.30343 13.80691c12.96294.0628 29.0051 10.40922 26.70018 41.18508 17.57506 19.46756-7.42095 45.74437-35.58388 45.12748 8.49494-8.38934 9.09712-19.42362 9.09712-19.42362s-6.00971 12.9434-20.31865 17.69659c-8.30486-2.43476-16.43515-7.56355-23.39599-16.24242 10.42309-19.5229 31.71654-32.71689 55.08501-28.43909 0 0-4.44924-5.47903-19.21536-5.38055 0 0 .09858-11.64001-6.81974-18.98747 3.5844-.75784 9.38185 2.33371 9.38185 2.33371-6.64972-4.22686-12.95657-8.85361-23.57117-8.45478 2.39331-6.55008 14.34796-3.33055 14.34796-3.33055 2.3658-3.69282 7.96195-6.11502 14.29267-6.08438z" />
  <path fill="#e66100" d="M130 25v59.23438h12.32422V59.0293h26.32032v25.20508h12.32226V25h-12.32226v24.35547h-26.32032V25Zm85.12305 11.45508c-4.69484 0-8.94911 1.01986-12.76367 3.05664-3.81456 1.9802-6.83831 4.80882-9.06836 8.48633-2.17136 3.6775-3.25586 7.92141-3.25586 12.73047 0 4.80905 1.05529 9.051 3.16797 12.72851 2.17136 3.67751 5.13475 6.5355 8.89062 8.57227C205.84963 84.0095 210.07469 85 214.76954 85c4.75352 0 9.03895-.9905 12.85351-2.9707 3.87325-2.03678 6.92425-4.89476 9.1543-8.57227 2.28873-3.67751 3.43359-7.91946 3.43359-12.72852 0-4.80905-1.11565-9.05295-3.3457-12.73046-2.17137-3.67751-5.16396-6.50613-8.97852-8.48633-3.81456-2.03678-8.06883-3.05664-12.76367-3.05664zm149.20703 0c-4.81221 0-9.06648.9905-12.76367 2.9707-3.69719 1.9802-6.57296 4.80882-8.62695 8.48633-2.054 3.67751-3.08008 7.95078-3.08008 12.8164 0 4.80906 1.02608 9.05101 3.08008 12.72852 2.11268 3.67751 5.01765 6.5355 8.71484 8.57227C355.41017 84.0095 359.63524 85 364.33008 85c5.80987 0 10.71056-1.4427 14.70117-4.32813 3.99062-2.942 6.68921-6.67695 8.09766-11.20312H373.8379c-1.93663 3.79066-5.19402 5.68555-9.77149 5.68555-3.16902 0-5.84035-.96115-8.01172-2.88477-2.17136-1.92362-3.40188-4.58389-3.69531-7.97852h35.65039c.23474-1.35784.35156-2.88471.35156-4.58203 0-4.58274-1.02608-8.62698-3.08008-12.13476-1.9953-3.56436-4.84187-6.3088-8.53906-8.23242-3.6385-1.92362-7.77595-2.88672-12.41211-2.88672zm90.58203 0c-4.69484 0-8.95106 1.01986-12.76562 3.05664-3.81456 1.9802-6.83636 4.80882-9.06641 8.48633-2.17136 3.6775-3.25781 7.92141-3.25781 12.73047 0 4.80905 1.05724 9.051 3.16992 12.72851 2.17137 3.67751 5.13475 6.5355 8.89063 8.57227C445.63869 84.0095 449.86376 85 454.5586 85c4.75353 0 9.03895-.9905 12.85351-2.9707 3.87325-2.03678 6.92425-4.89476 9.1543-8.57227C478.85515 69.77952 480 65.53757 480 60.72851c0-4.80905-1.11565-9.05295-3.3457-12.73046-2.17136-3.67751-5.16396-6.50613-8.97851-8.48633-3.81456-2.03678-8.06883-3.05664-12.76368-3.05664zm-178.3457.08594c-3.28639 0-6.22057.70666-8.80273 2.1211-2.52348 1.41442-4.5776 3.36607-6.16211 5.85546v-7.29687h-12.32422v47.01367h12.32422V60.8125c0-4.35643.96767-7.41212 2.90429-9.16601 1.99531-1.7539 4.92949-2.63086 8.80274-2.63086h3.25781zm35.29883 0c-3.05165 0-5.86901.59313-8.45117 1.78125-2.52348 1.13154-4.60681 2.71713-6.25 4.7539v-5.85546h-12.32422v47.01367h12.32422V58.26563c0-3.73409.96962-6.59012 2.90625-8.57032 1.9953-2.03677 4.69389-3.05468 8.09765-3.05468 3.34508 0 5.98721 1.01791 7.92383 3.05468 1.93662 1.9802 2.9043 4.83623 2.9043 8.57032v25.96875h12.32422V56.6543c0-6.33663-1.79128-11.2598-5.3711-14.76758-3.57981-3.56435-8.27411-5.3457-14.08398-5.3457zm112.76367 0c-3.28639 0-6.22057.70666-8.80273 2.1211-2.52348 1.41442-4.5776 3.36607-6.16211 5.85546v-7.29687h-12.32422v47.01367h12.32422V60.8125c0-4.35643.96962-7.41212 2.90625-9.16601 1.9953-1.7539 4.92949-2.63086 8.80273-2.63086h3.25586zm-60.65039 9.67383c3.2277 0 5.9555.93373 8.18555 2.80078 2.23005 1.81046 3.37491 4.24366 3.43359 7.29883h-23.15039c.46948-3.16832 1.73116-5.62893 3.78516-7.38282 2.11268-1.81046 4.69444-2.7168 7.74609-2.7168zm-149.03125.5957c3.52113 0 6.48452 1.21562 8.89063 3.64844 2.46479 2.37624 3.69726 5.79994 3.69726 10.26953 0 2.99858-.58801 5.54336-1.76172 7.63672-1.17371 2.09335-2.7586 3.67699-4.7539 4.75195-1.93663 1.01839-4.01995 1.5293-6.25 1.5293-3.52114 0-6.45532-1.18822-8.80274-3.56446-2.28873-2.43281-3.43164-5.88392-3.43164-10.35351 0-4.4696 1.17406-7.8933 3.52148-10.26953 2.40611-2.43282 5.3695-3.64844 8.89063-3.64844zm239.78711 0c3.52113 0 6.48647 1.21562 8.89258 3.64844 2.46479 2.37624 3.69531 5.79994 3.69531 10.26953 0 2.99858-.58606 5.54336-1.75977 7.63672-1.17371 2.09335-2.75859 3.67699-4.7539 4.75195-1.93662 1.01839-4.01995 1.5293-6.25 1.5293-3.52113 0-6.45532-1.18822-8.80274-3.56446-2.28873-2.43281-3.43359-5.88392-3.43359-10.35351 0-4.4696 1.17406-7.8933 3.52148-10.26953 2.40611-2.43282 5.3695-3.64844 8.89063-3.64844z" />
</svg>