<svg xmlns="http://www.w3.org/2000/svg" viewBox="0 0 1197.5 236.93">
  <defs>
    <linearGradient id="a" x1="74.24" y1="-197.13" x2="74.24" y2="39.55" gradientTransform="matrix(1 0 0 -1 0 39.55)" gradientUnits="userSpaceOnUse">
      <stop offset="0" stop-color="#0afa50"/>
      <stop offset=".21" stop-color="#0ae550"/>
      <stop offset=".35" stop-color="#0adc50"/>
      <stop offset=".38" stop-color="#09d851"/>
      <stop offset=".79" stop-color="#03a857"/>
      <stop offset="1" stop-color="#00965a"/>
    </linearGradient>
    <linearGradient id="b" x1="150.66" y1="-197.13" x2="150.66" y2="39.55" gradientTransform="matrix(1 0 0 -1 0 39.55)" gradientUnits="userSpaceOnUse">
      <stop offset="0" stop-color="#00965a"/>
      <stop offset=".21" stop-color="#03a857"/>
      <stop offset=".62" stop-color="#09d851"/>
      <stop offset=".65" stop-color="#0adc50"/>
      <stop offset=".79" stop-color="#0ae550"/>
      <stop offset="1" stop-color="#0afa50"/>
    </linearGradient>
  </defs>
  <g>
    <path fill="url(#a)" d="M0 0h66.34l45.93 163.05 36.2 73.63H76.55L0 0z"/>
    <path fill="url(#b)" d="M158.68 0h66.1l-76.31 236.68H76.55l35.72-73.63L158.68 0z"/>
  </g>
  <path d="M249.32 27.22C249.32 10.33 263 0 279 0c16.53 0 29.41 10.58 29.41 27.22 0 16.36-13.51 27-29.41 27-15-.03-29.68-9.51-29.68-27ZM304 71.2v163.29h-50.07V71.2Zm137.3-1.94v53h-13.62c-25.65 0-37.67 9.69-37.67 36.21v75.81H340.2V71.2h50.06v27.22c18.1-27.17 40.82-29.16 51.03-29.16Zm19.56-42C460.85 10.33 474.52 0 490.5 0c16.5 0 29.4 10.58 29.4 27.22 0 16.36-13.5 27-29.4 27-14.98-.03-29.65-9.51-29.65-27Zm54.67 44v163.23h-50V71.2Zm148.6-53.46v76c-10.94-16.49-30.42-25-50.3-25-42.12 0-72.17 34.65-72.17 83.83 0 50.32 30.38 84.08 71.93 84.08 21.28 0 40.15-8.54 50.54-25.76v23.33h50.06V17.74ZM629 193.43c-19.67 0-36.35-14.18-36.35-40.83 0-31.35 23-40.28 35.68-40.28 16 0 35.76 11.76 35.76 40.53.03 26.73-17.73 40.58-35.09 40.58ZM745.77 27.22C745.77 10.33 759.44 0 775.41 0c16.53 0 29.41 10.58 29.41 27.22 0 16.36-13.51 27-29.41 27-14.97-.03-29.64-9.51-29.64-27Zm54.67 44v163.27h-50.06V71.2Zm148.23 0v23.06c-10.22-17.11-29-25.51-50.3-25.51-46.84 0-72.17 40.48-72.17 84.08 0 54.23 34 84.08 71.69 84.08 21.64 0 39.87-8.73 50.78-25.52v23.08h50.06V71.2Zm-35.14 122.32c-19.33 0-35.81-14.79-35.81-40.94 0-29.52 21-40.28 35.15-40.28 21.66 0 36.29 16.76 36.29 40.53 0 28.23-18.8 40.69-35.63 40.69Zm284-54.54v95.49h-49.57V145.8c0-28.88-20.4-34.63-31.34-34.63-7.06 0-31.35 2.91-31.35 34.63v88.45h-50.06V71.2h50.06v21.63c11.24-15.53 30-23.33 49.33-23.33 42.6 0 62.9 29.75 62.9 69.5Z" fill="#1e2830"/>
</svg>