<?xml version="1.0" encoding="utf-8"?>
<!-- Generator: Adobe Illustrator 24.1.2, SVG Export Plug-In . SVG Version: 6.00 Build 0)  -->
<svg version="1.1" id="Capa_1" xmlns="http://www.w3.org/2000/svg" xmlns:xlink="http://www.w3.org/1999/xlink" x="0px" y="0px"
	 viewBox="0 0 492.9 97.4" style="enable-background:new 0 0 492.9 97.4;" xml:space="preserve">
<style type="text/css">
	.st0{fill:url(#a4843855-c7e8-4aca-9423-7c0d1625c748_1_);}
	.st1{fill:url(#bc383a68-8436-4523-be9b-55b699492934_1_);}
	.st2{fill:#F4F8FC;}
</style>
<g id="f875d878-4f6d-40c6-a7b7-36e8086de041">
	<g id="ff830961-d930-4a66-bd68-700a6e333c5a">
		<g id="ac1460c9-4c84-4aed-8807-bf7bd3e470e4">
			<g id="e633804b-757f-4002-bbac-25df5340ff94">
				<g id="a3c41839-2539-4697-badb-ff37ed6f0f10">
					
						<linearGradient id="a4843855-c7e8-4aca-9423-7c0d1625c748_1_" gradientUnits="userSpaceOnUse" x1="30.55" y1="297.4" x2="30.55" y2="200" gradientTransform="matrix(1 0 0 1 0 -200)">
						<stop  offset="0" style="stop-color:#0AFA50"/>
						<stop  offset="0.21" style="stop-color:#0AE550"/>
						<stop  offset="0.35" style="stop-color:#0ADC50"/>
						<stop  offset="0.38" style="stop-color:#09D851"/>
						<stop  offset="0.79" style="stop-color:#03A857"/>
						<stop  offset="1" style="stop-color:#00965A"/>
					</linearGradient>
					<polygon id="a4843855-c7e8-4aca-9423-7c0d1625c748" class="st0" points="0,0 27.3,0 46.2,67.1 61.1,97.4 31.5,97.4 					"/>
					
						<linearGradient id="bc383a68-8436-4523-be9b-55b699492934_1_" gradientUnits="userSpaceOnUse" x1="62" y1="297.4" x2="62" y2="200" gradientTransform="matrix(1 0 0 1 0 -200)">
						<stop  offset="0" style="stop-color:#00965A"/>
						<stop  offset="0.21" style="stop-color:#03A857"/>
						<stop  offset="0.62" style="stop-color:#09D851"/>
						<stop  offset="0.65" style="stop-color:#0ADC50"/>
						<stop  offset="0.79" style="stop-color:#0AE550"/>
						<stop  offset="1" style="stop-color:#0AFA50"/>
					</linearGradient>
					<polygon id="bc383a68-8436-4523-be9b-55b699492934" class="st1" points="65.3,0 92.5,0 61.1,97.4 31.5,97.4 46.2,67.1 					"/>
				</g>
				<path id="b4f17b4c-1a97-42e3-aab2-011aef735dd3" class="st2" d="M106,19.1c-2.2-2-3.5-4.9-3.4-7.9c-0.1-3,1.2-6,3.4-8
					c2.4-2.2,5.6-3.3,8.8-3.2c3.2-0.1,6.3,1,8.7,3.2c2.2,2,3.5,5,3.4,8c0.1,3-1.2,5.9-3.4,7.9c-2.4,2.2-5.5,3.3-8.7,3.2
					C111.6,22.4,108.4,21.2,106,19.1z M125.1,29.3v67.2h-20.6V29.3H125.1z M169.6,31.7c3.6-2.1,7.8-3.2,12-3.2v21.8H176
					c-5.1,0-9,1.1-11.6,3.3s-3.8,6.1-3.9,11.6v31.2H140V29.3h20.6v11.2C162.9,36.9,166,33.9,169.6,31.7L169.6,31.7z M193,19.1
					c-2.2-2-3.5-4.9-3.4-7.9c-0.1-3,1.2-6,3.4-8c2.4-2.2,5.6-3.3,8.9-3.2c3.2-0.1,6.3,1,8.7,3.2c2.3,2,3.5,5,3.4,8
					c0.1,3-1.2,5.9-3.4,7.9c-2.4,2.2-5.5,3.3-8.7,3.2C198.6,22.4,195.4,21.3,193,19.1z M212.1,29.3v67.2h-20.6V29.3H212.1z
					 M226.9,44.5c2.4-4.9,6-9.1,10.6-12c4.5-2.8,9.7-4.3,15.1-4.2c4.2,0,8.3,0.9,12.1,2.8c3.5,1.7,6.4,4.3,8.6,7.5V7.3h20.6v89.1
					h-20.6v-9.6c-2,3.3-4.9,5.9-8.3,7.7c-3.9,2-8.1,3-12.5,2.9c-5.3,0.1-10.6-1.4-15.1-4.3c-4.6-3-8.3-7.2-10.6-12.1
					c-2.7-5.7-4-11.9-3.9-18.2C222.8,56.5,224.1,50.2,226.9,44.5z M269,50.7c-5.5-5.8-14.7-6-20.4-0.4c-0.1,0.1-0.3,0.3-0.4,0.4
					c-2.9,2.9-4.3,7-4.3,12.1s1.4,9.2,4.3,12.3c5.4,5.8,14.5,6,20.2,0.6c0.2-0.2,0.4-0.4,0.6-0.6c2.8-3,4.3-7,4.3-12.2
					S271.8,53.6,269,50.7z M310.3,19.1c-2.2-2-3.5-4.9-3.4-7.9c-0.1-3,1.2-6,3.4-8c2.4-2.2,5.6-3.3,8.8-3.2c3.2-0.1,6.4,1,8.7,3.2
					c2.3,2,3.5,5,3.4,8c0.1,3-1.2,5.9-3.4,7.9c-2.4,2.2-5.5,3.3-8.7,3.2C315.9,22.4,312.7,21.3,310.3,19.1L310.3,19.1z M329.4,29.3
					v67.2h-20.6V29.3H329.4z M344.1,44.5c2.4-4.9,6-9.1,10.6-12c4.5-2.8,9.7-4.3,15-4.2c4.3-0.1,8.6,0.9,12.5,2.9
					c3.4,1.7,6.2,4.4,8.2,7.6v-9.5H411v67.2h-20.6V87c-2.1,3.2-5,5.8-8.4,7.6c-3.8,2-8.1,3-12.5,2.9c-5.3,0.1-10.5-1.4-14.9-4.3
					c-4.6-3-8.3-7.2-10.7-12.1c-2.7-5.7-4-11.9-3.9-18.2C340.1,56.5,341.4,50.2,344.1,44.5L344.1,44.5z M386.3,50.7
					c-5.5-5.8-14.7-6-20.4-0.4c-0.1,0.1-0.3,0.3-0.4,0.4c-2.9,2.9-4.3,7-4.3,12.1s1.4,9.2,4.3,12.3c5.4,5.8,14.5,6.1,20.2,0.6
					c0.2-0.2,0.4-0.4,0.6-0.6c2.9-3,4.3-7,4.3-12.2C390.5,57.8,389.1,53.7,386.3,50.7L386.3,50.7z M485.8,36.2c4.7,5.1,7,12.1,7,21
					v39.3h-20.4V60c0-4.5-1.2-8-3.5-10.5c-5.3-5-13.5-5-18.8,0c-2.3,2.5-3.5,6-3.5,10.5v36.4H426V29.3h20.6v8.9c2.2-3,5.1-5.4,8.4-7
					c3.7-1.8,7.8-2.7,11.9-2.6C474.9,28.5,481.1,31.1,485.8,36.2L485.8,36.2z"/>
			</g>
		</g>
	</g>
</g>
</svg>
